<?xml version="1.0"?>
<svg width="1606" height="694" xmlns="http://www.w3.org/2000/svg">
<g stroke-width="2" stroke="black" font-family="Verdana" font-size="12">
<line x1="859" y1="260" x2="839" y2="260" />
<line x1="879" y1="275" x2="859" y2="275" />
<line x1="597" y1="140" x2="541" y2="140" />
<line x1="617" y1="155" x2="597" y2="155" />
<line x1="839" y1="215" x2="819" y2="215" />
<line x1="601" y1="375" x2="581" y2="375" />
<line x1="621" y1="385" x2="601" y2="385" />
<line x1="915" y1="335" x2="895" y2="335" />
<line x1="581" y1="313" x2="561" y2="313" />
<line x1="819" y1="252" x2="581" y2="252" />
<line x1="839" y1="290" x2="819" y2="290" />
<line x1="895" y1="320" x2="839" y2="320" />
<line x1="283" y1="55" x2="263" y2="55" />
<line x1="263" y1="86" x2="243" y2="86" />
<line x1="283" y1="117" x2="263" y2="117" />
<line x1="521" y1="149" x2="283" y2="149" />
<line x1="541" y1="194" x2="521" y2="194" />
<line x1="561" y1="249" x2="541" y2="249" />
<line x1="581" y1="185" x2="561" y2="185" />
<line x1="243" y1="55" x2="5" y2="55" />
<line x1="879" y1="245" x2="859" y2="245" />
<line x1="899" y1="265" x2="879" y2="265" />
<line x1="899" y1="285" x2="879" y2="285" />
<line x1="657" y1="365" x2="601" y2="365" />
<line x1="541" y1="105" x2="521" y2="105" />
<line x1="617" y1="125" x2="597" y2="125" />
<line x1="637" y1="145" x2="617" y2="145" />
<line x1="861" y1="205" x2="839" y2="205" />
<line x1="637" y1="165" x2="617" y2="165" />
<line x1="859" y1="225" x2="839" y2="225" />
<line x1="263" y1="25" x2="243" y2="25" />
<line x1="935" y1="325" x2="915" y2="325" />
<line x1="935" y1="345" x2="915" y2="345" />
<line x1="915" y1="305" x2="895" y2="305" />
<line x1="303" y1="45" x2="283" y2="45" />
<line x1="303" y1="65" x2="283" y2="65" />
<line x1="303" y1="85" x2="283" y2="85" />
<line x1="860" y1="245" x2="860" y2="275" />
<line x1="880" y1="265" x2="880" y2="285" />
<line x1="598" y1="125" x2="598" y2="155" />
<line x1="618" y1="145" x2="618" y2="165" />
<line x1="840" y1="205" x2="840" y2="225" />
<line x1="602" y1="365" x2="602" y2="385" />
<line x1="916" y1="325" x2="916" y2="345" />
<line x1="582" y1="252" x2="582" y2="375" />
<line x1="820" y1="215" x2="820" y2="290" />
<line x1="840" y1="260" x2="840" y2="320" />
<line x1="896" y1="305" x2="896" y2="335" />
<line x1="284" y1="45" x2="284" y2="65" />
<line x1="264" y1="55" x2="264" y2="117" />
<line x1="284" y1="85" x2="284" y2="149" />
<line x1="522" y1="105" x2="522" y2="194" />
<line x1="542" y1="140" x2="542" y2="249" />
<line x1="562" y1="185" x2="562" y2="313" />
<line x1="244" y1="25" x2="244" y2="86" />
<defs>
    <filter x="0" y="0.0" width="1" height="1.0" id="solid">
      <feFlood flood-color="white"/>
      <feComposite in="SourceGraphic"/>
    </filter>
  </defs>
<text x="885" y="247" stroke-width="1">Osmundacaulis_tehuelchensis</text>
<text x="905" y="267" stroke-width="1">Osmundacaulis_tasmanensis</text>
<text x="905" y="287" stroke-width="1">Osmundacaulis_andrewii</text>
<text x="663" y="367" stroke-width="1">Lunea_jonesii</text>
<text x="547" y="107" stroke-width="1">Grammatocaulis_donponii</text>
<text x="623" y="127" stroke-width="1">Itopsidema_vancleavei</text>
<text x="643" y="147" stroke-width="1">Donwelliacaulis_chlouberii</text>
<text x="867" y="207" stroke-width="1">Zhongmingella_plenasioides</text>
<text x="643" y="167" stroke-width="1">Tiania_yunnanensis</text>
<text x="865" y="227" stroke-width="1">Shuichengella_primitiva</text>
<text x="269" y="27" stroke-width="1">Rastropteris_pinquanensis</text>
<text x="941" y="327" stroke-width="1">Guairea_millerii</text>
<text x="941" y="347" stroke-width="1">Guairea_carnierii</text>
<text x="921" y="307" stroke-width="1">Guairea_brasiliensis</text>
<text x="309" y="47" stroke-width="1">Grammatopteris_freitasii</text>
<text x="309" y="67" stroke-width="1">Grammatopteris_rigollotii</text>
<text x="309" y="87" stroke-width="1">Grammatopteris_baldaufii</text>
<text x="625" y="387" stroke-width="1">[Osmundoideae]</text>
<text x="585" y="187" stroke-width="1">[Bathypteris+Thamnopteroideae]</text>
</g>
<g stroke-width="2" stroke="black" font-family="Verdana" font-style="regular" font-size="12">
<text filter="url(#solid)" x="547" y="141" stroke-width="1">[absent]</text>
<text filter="url(#solid)" x="587" y="253" stroke-width="1">[thinner_than_parenchymatous_layer]</text>
<text filter="url(#solid)" x="845" y="321" stroke-width="1">[absent]</text>
<text filter="url(#solid)" x="289" y="150" stroke-width="1">[thicker_than_parenchymatous_layer]</text>
<text filter="url(#solid)" x="-37" y="56" stroke-width="1">[thinner_than_parenchymatous_layer]</text>
<text filter="url(#solid)" x="607" y="366" stroke-width="1">[absent]</text>
<text filter="url(#solid)" x="845" y="206" stroke-width="1">[?]</text>
</g>
</svg>
