<?xml version="1.0"?>
<svg width="1077" height="694" xmlns="http://www.w3.org/2000/svg">
<g stroke-width="2" stroke="black" font-family="Verdana" font-size="12">
<line x1="241" y1="260" x2="221" y2="260" />
<line x1="261" y1="275" x2="241" y2="275" />
<line x1="161" y1="140" x2="141" y2="140" />
<line x1="181" y1="155" x2="161" y2="155" />
<line x1="221" y1="215" x2="201" y2="215" />
<line x1="201" y1="375" x2="181" y2="375" />
<line x1="221" y1="385" x2="201" y2="385" />
<line x1="261" y1="335" x2="241" y2="335" />
<line x1="181" y1="313" x2="161" y2="313" />
<line x1="201" y1="252" x2="181" y2="252" />
<line x1="221" y1="290" x2="201" y2="290" />
<line x1="241" y1="320" x2="221" y2="320" />
<line x1="101" y1="55" x2="81" y2="55" />
<line x1="81" y1="86" x2="61" y2="86" />
<line x1="101" y1="117" x2="81" y2="117" />
<line x1="121" y1="149" x2="101" y2="149" />
<line x1="141" y1="194" x2="121" y2="194" />
<line x1="161" y1="249" x2="141" y2="249" />
<line x1="181" y1="185" x2="161" y2="185" />
<line x1="61" y1="55" x2="5" y2="55" />
<line x1="263" y1="245" x2="241" y2="245" />
<line x1="281" y1="265" x2="261" y2="265" />
<line x1="281" y1="285" x2="261" y2="285" />
<line x1="223" y1="365" x2="201" y2="365" />
<line x1="143" y1="105" x2="121" y2="105" />
<line x1="183" y1="125" x2="161" y2="125" />
<line x1="203" y1="145" x2="181" y2="145" />
<line x1="243" y1="205" x2="221" y2="205" />
<line x1="203" y1="165" x2="181" y2="165" />
<line x1="243" y1="225" x2="221" y2="225" />
<line x1="83" y1="25" x2="61" y2="25" />
<line x1="283" y1="325" x2="261" y2="325" />
<line x1="283" y1="345" x2="261" y2="345" />
<line x1="263" y1="305" x2="241" y2="305" />
<line x1="123" y1="45" x2="101" y2="45" />
<line x1="123" y1="65" x2="101" y2="65" />
<line x1="123" y1="85" x2="101" y2="85" />
<line x1="242" y1="245" x2="242" y2="275" />
<line x1="262" y1="265" x2="262" y2="285" />
<line x1="162" y1="125" x2="162" y2="155" />
<line x1="182" y1="145" x2="182" y2="165" />
<line x1="222" y1="205" x2="222" y2="225" />
<line x1="202" y1="365" x2="202" y2="385" />
<line x1="262" y1="325" x2="262" y2="345" />
<line x1="182" y1="252" x2="182" y2="375" />
<line x1="202" y1="215" x2="202" y2="290" />
<line x1="222" y1="260" x2="222" y2="320" />
<line x1="242" y1="305" x2="242" y2="335" />
<line x1="102" y1="45" x2="102" y2="65" />
<line x1="82" y1="55" x2="82" y2="117" />
<line x1="102" y1="85" x2="102" y2="149" />
<line x1="122" y1="105" x2="122" y2="194" />
<line x1="142" y1="140" x2="142" y2="249" />
<line x1="162" y1="185" x2="162" y2="313" />
<line x1="62" y1="25" x2="62" y2="86" />
<defs>
    <filter x="0" y="0.0" width="1" height="1.0" id="solid">
      <feFlood flood-color="white"/>
      <feComposite in="SourceGraphic"/>
    </filter>
  </defs>
<text x="269" y="247" stroke-width="1">Osmundacaulis_tehuelchensis</text>
<text x="287" y="267" stroke-width="1">Osmundacaulis_tasmanensis</text>
<text x="287" y="287" stroke-width="1">Osmundacaulis_andrewii</text>
<text x="229" y="367" stroke-width="1">Lunea_jonesii</text>
<text x="149" y="107" stroke-width="1">Grammatocaulis_donponii</text>
<text x="189" y="127" stroke-width="1">Itopsidema_vancleavei</text>
<text x="209" y="147" stroke-width="1">Donwelliacaulis_chlouberii</text>
<text x="249" y="207" stroke-width="1">Zhongmingella_plenasioides</text>
<text x="209" y="167" stroke-width="1">Tiania_yunnanensis</text>
<text x="249" y="227" stroke-width="1">Shuichengella_primitiva</text>
<text x="89" y="27" stroke-width="1">Rastropteris_pinquanensis</text>
<text x="289" y="327" stroke-width="1">Guairea_millerii</text>
<text x="289" y="347" stroke-width="1">Guairea_carnierii</text>
<text x="269" y="307" stroke-width="1">Guairea_brasiliensis</text>
<text x="129" y="47" stroke-width="1">Grammatopteris_freitasii</text>
<text x="129" y="67" stroke-width="1">Grammatopteris_rigollotii</text>
<text x="129" y="87" stroke-width="1">Grammatopteris_baldaufii</text>
<text x="225" y="387" stroke-width="1">[Osmundoideae]</text>
<text x="185" y="187" stroke-width="1">[Bathypteris+Thamnopteroideae]</text>
</g>
<g stroke-width="2" stroke="black" font-family="Verdana" font-style="regular" font-size="12">
<text filter="url(#solid)" x="-3" y="56" stroke-width="1">[absent]</text>
<text filter="url(#solid)" x="247" y="246" stroke-width="1">[?]</text>
<text filter="url(#solid)" x="207" y="366" stroke-width="1">[?]</text>
<text filter="url(#solid)" x="127" y="106" stroke-width="1">[?]</text>
<text filter="url(#solid)" x="167" y="126" stroke-width="1">[?]</text>
<text filter="url(#solid)" x="187" y="146" stroke-width="1">[?]</text>
<text filter="url(#solid)" x="227" y="206" stroke-width="1">[?]</text>
<text filter="url(#solid)" x="187" y="166" stroke-width="1">[?]</text>
<text filter="url(#solid)" x="227" y="226" stroke-width="1">[?]</text>
<text filter="url(#solid)" x="67" y="26" stroke-width="1">[?]</text>
<text filter="url(#solid)" x="267" y="326" stroke-width="1">[?]</text>
<text filter="url(#solid)" x="267" y="346" stroke-width="1">[?]</text>
<text filter="url(#solid)" x="247" y="306" stroke-width="1">[?]</text>
<text filter="url(#solid)" x="107" y="46" stroke-width="1">[?]</text>
<text filter="url(#solid)" x="107" y="66" stroke-width="1">[?]</text>
<text filter="url(#solid)" x="107" y="86" stroke-width="1">[?]</text>
</g>
</svg>
