<?xml version="1.0" encoding="UTF-8" standalone="no"?>
<svg
   width="987"
   height="1937"
   version="1.1"
   id="svg1037"
   sodipodi:docname="pruned_dep.svg"
   inkscape:version="1.2.1 (9c6d41e, 2022-07-14)"
   xmlns:inkscape="http://www.inkscape.org/namespaces/inkscape"
   xmlns:sodipodi="http://sodipodi.sourceforge.net/DTD/sodipodi-0.dtd"
   xmlns="http://www.w3.org/2000/svg"
   xmlns:svg="http://www.w3.org/2000/svg">
  <defs
     id="defs1041" />
  <sodipodi:namedview
     id="namedview1039"
     pagecolor="#ffffff"
     bordercolor="#000000"
     borderopacity="0.25"
     inkscape:showpageshadow="2"
     inkscape:pageopacity="0.0"
     inkscape:pagecheckerboard="0"
     inkscape:deskcolor="#d1d1d1"
     showgrid="false"
     inkscape:zoom="0.68921921"
     inkscape:cx="254.63597"
     inkscape:cy="322.82908"
     inkscape:window-width="1440"
     inkscape:window-height="773"
     inkscape:window-x="0"
     inkscape:window-y="25"
     inkscape:window-maximized="1"
     inkscape:current-layer="g1035" />
  <g
     stroke-width="2"
     stroke="black"
     font-family="Verdana"
     font-size="12"
     id="g735">
    <line
       x1="414"
       y1="1135"
       x2="394"
       y2="1135"
       id="line132" />
    <line
       x1="454"
       y1="1295"
       x2="434"
       y2="1295"
       id="line134" />
    <line
       x1="494"
       y1="1380"
       x2="474"
       y2="1380"
       id="line136" />
    <line
       x1="514"
       y1="1395"
       x2="494"
       y2="1395"
       id="line138" />
    <line
       x1="334"
       y1="875"
       x2="314"
       y2="875"
       id="line140" />
    <line
       x1="554"
       y1="1500"
       x2="534"
       y2="1500"
       id="line142" />
    <line
       x1="574"
       y1="1515"
       x2="554"
       y2="1515"
       id="line144" />
    <line
       x1="534"
       y1="1531"
       x2="514"
       y2="1531"
       id="line146" />
    <line
       x1="554"
       y1="1562"
       x2="534"
       y2="1562"
       id="line148" />
    <line
       x1="574"
       y1="1580"
       x2="554"
       y2="1580"
       id="line150" />
    <line
       x1="594"
       y1="1595"
       x2="574"
       y2="1595"
       id="line152" />
    <line
       x1="194"
       y1="400"
       x2="174"
       y2="400"
       id="line154" />
    <line
       x1="214"
       y1="415"
       x2="194"
       y2="415"
       id="line156" />
    <line
       x1="254"
       y1="645"
       x2="234"
       y2="645"
       id="line158" />
    <line
       x1="294"
       y1="724"
       x2="274"
       y2="724"
       id="line160" />
    <line
       x1="314"
       y1="744"
       x2="294"
       y2="744"
       id="line162" />
    <line
       x1="334"
       y1="763"
       x2="314"
       y2="763"
       id="line164" />
    <line
       x1="354"
       y1="782"
       x2="334"
       y2="782"
       id="line166" />
    <line
       x1="374"
       y1="800"
       x2="354"
       y2="800"
       id="line168" />
    <line
       x1="394"
       y1="815"
       x2="374"
       y2="815"
       id="line170" />
    <line
       x1="214"
       y1="555"
       x2="194"
       y2="555"
       id="line172" />
    <line
       x1="434"
       y1="1183"
       x2="414"
       y2="1183"
       id="line174" />
    <line
       x1="454"
       y1="1202"
       x2="434"
       y2="1202"
       id="line176" />
    <line
       x1="474"
       y1="1220"
       x2="454"
       y2="1220"
       id="line178" />
    <line
       x1="494"
       y1="1235"
       x2="474"
       y2="1235"
       id="line180" />
    <line
       x1="354"
       y1="1043"
       x2="334"
       y2="1043"
       id="line182" />
    <line
       x1="374"
       y1="1101"
       x2="354"
       y2="1101"
       id="line184" />
    <line
       x1="394"
       y1="1197"
       x2="374"
       y2="1197"
       id="line186" />
    <line
       x1="414"
       y1="1260"
       x2="394"
       y2="1260"
       id="line188" />
    <line
       x1="434"
       y1="1338"
       x2="414"
       y2="1338"
       id="line190" />
    <line
       x1="454"
       y1="1382"
       x2="434"
       y2="1382"
       id="line192" />
    <line
       x1="474"
       y1="1419"
       x2="454"
       y2="1419"
       id="line194" />
    <line
       x1="494"
       y1="1459"
       x2="474"
       y2="1459"
       id="line196" />
    <line
       x1="514"
       y1="1493"
       x2="494"
       y2="1493"
       id="line198" />
    <line
       x1="534"
       y1="1455"
       x2="514"
       y2="1455"
       id="line200" />
    <line
       x1="234"
       y1="595"
       x2="214"
       y2="595"
       id="line202" />
    <line
       x1="394"
       y1="955"
       x2="374"
       y2="955"
       id="line204" />
    <line
       x1="194"
       y1="600"
       x2="174"
       y2="600"
       id="line206" />
    <line
       x1="214"
       y1="645"
       x2="194"
       y2="645"
       id="line208" />
    <line
       x1="234"
       y1="695"
       x2="214"
       y2="695"
       id="line210" />
    <line
       x1="254"
       y1="745"
       x2="234"
       y2="745"
       id="line212" />
    <line
       x1="274"
       y1="805"
       x2="254"
       y2="805"
       id="line214" />
    <line
       x1="294"
       y1="886"
       x2="274"
       y2="886"
       id="line216" />
    <line
       x1="314"
       y1="928"
       x2="294"
       y2="928"
       id="line218" />
    <line
       x1="334"
       y1="982"
       x2="314"
       y2="982"
       id="line220" />
    <line
       x1="354"
       y1="922"
       x2="334"
       y2="922"
       id="line222" />
    <line
       x1="374"
       y1="940"
       x2="354"
       y2="940"
       id="line224" />
    <line
       x1="114"
       y1="140"
       x2="94"
       y2="140"
       id="line226" />
    <line
       x1="134"
       y1="155"
       x2="114"
       y2="155"
       id="line228" />
    <line
       x1="174"
       y1="355"
       x2="154"
       y2="355"
       id="line230" />
    <line
       x1="154"
       y1="533"
       x2="134"
       y2="533"
       id="line232" />
    <line
       x1="174"
       y1="562"
       x2="154"
       y2="562"
       id="line234" />
    <line
       x1="214"
       y1="475"
       x2="194"
       y2="475"
       id="line236" />
    <line
       x1="134"
       y1="462"
       x2="114"
       y2="462"
       id="line238" />
    <line
       x1="154"
       y1="392"
       x2="134"
       y2="392"
       id="line240" />
    <line
       x1="174"
       y1="430"
       x2="154"
       y2="430"
       id="line242" />
    <line
       x1="194"
       y1="460"
       x2="174"
       y2="460"
       id="line244" />
    <line
       x1="54"
       y1="55"
       x2="34"
       y2="55"
       id="line246" />
    <line
       x1="154"
       y1="233"
       x2="134"
       y2="233"
       id="line248" />
    <line
       x1="174"
       y1="262"
       x2="154"
       y2="262"
       id="line250" />
    <line
       x1="194"
       y1="300"
       x2="174"
       y2="300"
       id="line252" />
    <line
       x1="214"
       y1="315"
       x2="194"
       y2="315"
       id="line254" />
    <line
       x1="34"
       y1="91"
       x2="14"
       y2="91"
       id="line256" />
    <line
       x1="54"
       y1="128"
       x2="34"
       y2="128"
       id="line258" />
    <line
       x1="74"
       y1="171"
       x2="54"
       y2="171"
       id="line260" />
    <line
       x1="94"
       y1="237"
       x2="74"
       y2="237"
       id="line262" />
    <line
       x1="114"
       y1="335"
       x2="94"
       y2="335"
       id="line264" />
    <line
       x1="134"
       y1="209"
       x2="114"
       y2="209"
       id="line266" />
    <line
       x1="14"
       y1="58"
       x2="5"
       y2="58"
       id="line268" />
    <line
       x1="434"
       y1="1125"
       x2="414"
       y2="1125"
       id="line270" />
    <line
       x1="434"
       y1="1145"
       x2="414"
       y2="1145"
       id="line272" />
    <line
       x1="594"
       y1="1505"
       x2="574"
       y2="1505"
       id="line274" />
    <line
       x1="574"
       y1="1545"
       x2="554"
       y2="1545"
       id="line276" />
    <line
       x1="614"
       y1="1585"
       x2="594"
       y2="1585"
       id="line278" />
    <line
       x1="594"
       y1="1565"
       x2="574"
       y2="1565"
       id="line280" />
    <line
       x1="574"
       y1="1485"
       x2="554"
       y2="1485"
       id="line282" />
    <line
       x1="474"
       y1="1265"
       x2="454"
       y2="1265"
       id="line284" />
    <line
       x1="474"
       y1="1285"
       x2="454"
       y2="1285"
       id="line286" />
    <line
       x1="474"
       y1="1305"
       x2="454"
       y2="1305"
       id="line288" />
    <line
       x1="354"
       y1="865"
       x2="334"
       y2="865"
       id="line290" />
    <line
       x1="534"
       y1="1385"
       x2="514"
       y2="1385"
       id="line292" />
    <line
       x1="474"
       y1="1325"
       x2="454"
       y2="1325"
       id="line294" />
    <line
       x1="514"
       y1="1365"
       x2="494"
       y2="1365"
       id="line296" />
    <line
       x1="534"
       y1="1405"
       x2="514"
       y2="1405"
       id="line298" />
    <line
       x1="354"
       y1="885"
       x2="334"
       y2="885"
       id="line300" />
    <line
       x1="594"
       y1="1525"
       x2="574"
       y2="1525"
       id="line302" />
    <line
       x1="514"
       y1="1425"
       x2="494"
       y2="1425"
       id="line304" />
    <line
       x1="554"
       y1="1445"
       x2="534"
       y2="1445"
       id="line306" />
    <line
       x1="234"
       y1="545"
       x2="214"
       y2="545"
       id="line308" />
    <line
       x1="394"
       y1="1005"
       x2="374"
       y2="1005"
       id="line310" />
    <line
       x1="474"
       y1="1185"
       x2="454"
       y2="1185"
       id="line312" />
    <line
       x1="274"
       y1="625"
       x2="254"
       y2="625"
       id="line314" />
    <line
       x1="414"
       y1="945"
       x2="394"
       y2="945"
       id="line316" />
    <line
       x1="394"
       y1="1025"
       x2="374"
       y2="1025"
       id="line318" />
    <line
       x1="514"
       y1="1225"
       x2="494"
       y2="1225"
       id="line320" />
    <line
       x1="614"
       y1="1605"
       x2="594"
       y2="1605"
       id="line322" />
    <line
       x1="394"
       y1="785"
       x2="374"
       y2="785"
       id="line324" />
    <line
       x1="214"
       y1="385"
       x2="194"
       y2="385"
       id="line326" />
    <line
       x1="234"
       y1="405"
       x2="214"
       y2="405"
       id="line328" />
    <line
       x1="234"
       y1="425"
       x2="214"
       y2="425"
       id="line330" />
    <line
       x1="334"
       y1="725"
       x2="314"
       y2="725"
       id="line332" />
    <line
       x1="354"
       y1="745"
       x2="334"
       y2="745"
       id="line334" />
    <line
       x1="474"
       y1="1345"
       x2="454"
       y2="1345"
       id="line336" />
    <line
       x1="414"
       y1="805"
       x2="394"
       y2="805"
       id="line338" />
    <line
       x1="374"
       y1="765"
       x2="354"
       y2="765"
       id="line340" />
    <line
       x1="394"
       y1="1045"
       x2="374"
       y2="1045"
       id="line342" />
    <line
       x1="174"
       y1="505"
       x2="154"
       y2="505"
       id="line344" />
    <line
       x1="94"
       y1="105"
       x2="74"
       y2="105"
       id="line346" />
    <line
       x1="394"
       y1="1065"
       x2="374"
       y2="1065"
       id="line348" />
    <line
       x1="274"
       y1="645"
       x2="254"
       y2="645"
       id="line350" />
    <line
       x1="314"
       y1="705"
       x2="294"
       y2="705"
       id="line352" />
    <line
       x1="274"
       y1="685"
       x2="254"
       y2="685"
       id="line354" />
    <line
       x1="274"
       y1="665"
       x2="254"
       y2="665"
       id="line356" />
    <line
       x1="494"
       y1="1205"
       x2="474"
       y2="1205"
       id="line358" />
    <line
       x1="414"
       y1="825"
       x2="394"
       y2="825"
       id="line360" />
    <line
       x1="394"
       y1="1085"
       x2="374"
       y2="1085"
       id="line362" />
    <line
       x1="234"
       y1="565"
       x2="214"
       y2="565"
       id="line364" />
    <line
       x1="454"
       y1="1165"
       x2="434"
       y2="1165"
       id="line366" />
    <line
       x1="374"
       y1="985"
       x2="354"
       y2="985"
       id="line368" />
    <line
       x1="254"
       y1="585"
       x2="234"
       y2="585"
       id="line370" />
    <line
       x1="514"
       y1="1245"
       x2="494"
       y2="1245"
       id="line372" />
    <line
       x1="394"
       y1="1105"
       x2="374"
       y2="1105"
       id="line374" />
    <line
       x1="314"
       y1="845"
       x2="294"
       y2="845"
       id="line376" />
    <line
       x1="554"
       y1="1465"
       x2="534"
       y2="1465"
       id="line378" />
    <line
       x1="134"
       y1="125"
       x2="114"
       y2="125"
       id="line380" />
    <line
       x1="154"
       y1="145"
       x2="134"
       y2="145"
       id="line382" />
    <line
       x1="254"
       y1="605"
       x2="234"
       y2="605"
       id="line384" />
    <line
       x1="374"
       y1="905"
       x2="354"
       y2="905"
       id="line386" />
    <line
       x1="414"
       y1="965"
       x2="394"
       y2="965"
       id="line388" />
    <line
       x1="394"
       y1="925"
       x2="374"
       y2="925"
       id="line390" />
    <line
       x1="194"
       y1="345"
       x2="174"
       y2="345"
       id="line392" />
    <line
       x1="154"
       y1="165"
       x2="134"
       y2="165"
       id="line394" />
    <line
       x1="234"
       y1="305"
       x2="214"
       y2="305"
       id="line396" />
    <line
       x1="194"
       y1="225"
       x2="174"
       y2="225"
       id="line398" />
    <line
       x1="174"
       y1="205"
       x2="154"
       y2="205"
       id="line400" />
    <line
       x1="194"
       y1="245"
       x2="174"
       y2="245"
       id="line402" />
    <line
       x1="214"
       y1="285"
       x2="194"
       y2="285"
       id="line404" />
    <line
       x1="194"
       y1="265"
       x2="174"
       y2="265"
       id="line406" />
    <line
       x1="194"
       y1="365"
       x2="174"
       y2="365"
       id="line408" />
    <line
       x1="34"
       y1="25"
       x2="14"
       y2="25"
       id="line410" />
    <line
       x1="194"
       y1="525"
       x2="174"
       y2="525"
       id="line412" />
    <line
       x1="234"
       y1="465"
       x2="214"
       y2="465"
       id="line414" />
    <line
       x1="234"
       y1="485"
       x2="214"
       y2="485"
       id="line416" />
    <line
       x1="214"
       y1="445"
       x2="194"
       y2="445"
       id="line418" />
    <line
       x1="74"
       y1="45"
       x2="54"
       y2="45"
       id="line420" />
    <line
       x1="74"
       y1="65"
       x2="54"
       y2="65"
       id="line422" />
    <line
       x1="74"
       y1="85"
       x2="54"
       y2="85"
       id="line424" />
    <line
       x1="234"
       y1="325"
       x2="214"
       y2="325"
       id="line426" />
    <line
       x1="154"
       y1="185"
       x2="134"
       y2="185"
       id="line428" />
    <line
       x1="415"
       y1="1125"
       x2="415"
       y2="1145"
       id="line430" />
    <line
       x1="455"
       y1="1265"
       x2="455"
       y2="1325"
       id="line432" />
    <line
       x1="495"
       y1="1365"
       x2="495"
       y2="1395"
       id="line434" />
    <line
       x1="515"
       y1="1385"
       x2="515"
       y2="1405"
       id="line436" />
    <line
       x1="335"
       y1="865"
       x2="335"
       y2="885"
       id="line438" />
    <line
       x1="555"
       y1="1485"
       x2="555"
       y2="1515"
       id="line440" />
    <line
       x1="575"
       y1="1505"
       x2="575"
       y2="1525"
       id="line442" />
    <line
       x1="535"
       y1="1500"
       x2="535"
       y2="1562"
       id="line444" />
    <line
       x1="555"
       y1="1545"
       x2="555"
       y2="1580"
       id="line446" />
    <line
       x1="575"
       y1="1565"
       x2="575"
       y2="1595"
       id="line448" />
    <line
       x1="595"
       y1="1585"
       x2="595"
       y2="1605"
       id="line450" />
    <line
       x1="195"
       y1="385"
       x2="195"
       y2="415"
       id="line452" />
    <line
       x1="215"
       y1="405"
       x2="215"
       y2="425"
       id="line454" />
    <line
       x1="255"
       y1="625"
       x2="255"
       y2="665"
       id="line456" />
    <line
       x1="295"
       y1="705"
       x2="295"
       y2="744"
       id="line458" />
    <line
       x1="315"
       y1="725"
       x2="315"
       y2="763"
       id="line460" />
    <line
       x1="335"
       y1="745"
       x2="335"
       y2="782"
       id="line462" />
    <line
       x1="355"
       y1="765"
       x2="355"
       y2="800"
       id="line464" />
    <line
       x1="375"
       y1="785"
       x2="375"
       y2="815"
       id="line466" />
    <line
       x1="395"
       y1="805"
       x2="395"
       y2="825"
       id="line468" />
    <line
       x1="215"
       y1="545"
       x2="215"
       y2="565"
       id="line470" />
    <line
       x1="435"
       y1="1165"
       x2="435"
       y2="1202"
       id="line472" />
    <line
       x1="455"
       y1="1185"
       x2="455"
       y2="1220"
       id="line474" />
    <line
       x1="475"
       y1="1205"
       x2="475"
       y2="1235"
       id="line476" />
    <line
       x1="495"
       y1="1225"
       x2="495"
       y2="1245"
       id="line478" />
    <line
       x1="355"
       y1="985"
       x2="355"
       y2="1101"
       id="line480" />
    <line
       x1="375"
       y1="1005"
       x2="375"
       y2="1197"
       id="line482" />
    <line
       x1="395"
       y1="1135"
       x2="395"
       y2="1260"
       id="line484" />
    <line
       x1="415"
       y1="1183"
       x2="415"
       y2="1338"
       id="line486" />
    <line
       x1="435"
       y1="1295"
       x2="435"
       y2="1382"
       id="line488" />
    <line
       x1="455"
       y1="1345"
       x2="455"
       y2="1419"
       id="line490" />
    <line
       x1="475"
       y1="1380"
       x2="475"
       y2="1459"
       id="line492" />
    <line
       x1="495"
       y1="1425"
       x2="495"
       y2="1493"
       id="line494" />
    <line
       x1="515"
       y1="1455"
       x2="515"
       y2="1531"
       id="line496" />
    <line
       x1="535"
       y1="1445"
       x2="535"
       y2="1465"
       id="line498" />
    <line
       x1="235"
       y1="585"
       x2="235"
       y2="605"
       id="line500" />
    <line
       x1="395"
       y1="945"
       x2="395"
       y2="965"
       id="line502" />
    <line
       x1="195"
       y1="555"
       x2="195"
       y2="645"
       id="line504" />
    <line
       x1="215"
       y1="595"
       x2="215"
       y2="695"
       id="line506" />
    <line
       x1="235"
       y1="645"
       x2="235"
       y2="745"
       id="line508" />
    <line
       x1="255"
       y1="685"
       x2="255"
       y2="805"
       id="line510" />
    <line
       x1="275"
       y1="724"
       x2="275"
       y2="886"
       id="line512" />
    <line
       x1="295"
       y1="845"
       x2="295"
       y2="928"
       id="line514" />
    <line
       x1="315"
       y1="875"
       x2="315"
       y2="982"
       id="line516" />
    <line
       x1="335"
       y1="922"
       x2="335"
       y2="1043"
       id="line518" />
    <line
       x1="355"
       y1="905"
       x2="355"
       y2="940"
       id="line520" />
    <line
       x1="375"
       y1="925"
       x2="375"
       y2="955"
       id="line522" />
    <line
       x1="115"
       y1="125"
       x2="115"
       y2="155"
       id="line524" />
    <line
       x1="135"
       y1="145"
       x2="135"
       y2="165"
       id="line526" />
    <line
       x1="175"
       y1="345"
       x2="175"
       y2="365"
       id="line528" />
    <line
       x1="155"
       y1="505"
       x2="155"
       y2="562"
       id="line530" />
    <line
       x1="175"
       y1="525"
       x2="175"
       y2="600"
       id="line532" />
    <line
       x1="215"
       y1="465"
       x2="215"
       y2="485"
       id="line534" />
    <line
       x1="135"
       y1="392"
       x2="135"
       y2="533"
       id="line536" />
    <line
       x1="155"
       y1="355"
       x2="155"
       y2="430"
       id="line538" />
    <line
       x1="175"
       y1="400"
       x2="175"
       y2="460"
       id="line540" />
    <line
       x1="195"
       y1="445"
       x2="195"
       y2="475"
       id="line542" />
    <line
       x1="55"
       y1="45"
       x2="55"
       y2="65"
       id="line544" />
    <line
       x1="155"
       y1="205"
       x2="155"
       y2="262"
       id="line546" />
    <line
       x1="175"
       y1="225"
       x2="175"
       y2="300"
       id="line548" />
    <line
       x1="195"
       y1="285"
       x2="195"
       y2="315"
       id="line550" />
    <line
       x1="215"
       y1="305"
       x2="215"
       y2="325"
       id="line552" />
    <line
       x1="35"
       y1="55"
       x2="35"
       y2="128"
       id="line554" />
    <line
       x1="55"
       y1="85"
       x2="55"
       y2="171"
       id="line556" />
    <line
       x1="75"
       y1="105"
       x2="75"
       y2="237"
       id="line558" />
    <line
       x1="95"
       y1="140"
       x2="95"
       y2="335"
       id="line560" />
    <line
       x1="115"
       y1="209"
       x2="115"
       y2="462"
       id="line562" />
    <line
       x1="135"
       y1="185"
       x2="135"
       y2="233"
       id="line564" />
    <line
       x1="15"
       y1="25"
       x2="15"
       y2="91"
       id="line566" />
    <defs
       id="defs573">
      <filter
         x="-0.042139918"
         y="-0.045878136"
         width="1.0842798"
         height="1.0917563"
         id="solid">
        <feFlood
           flood-color="white"
           id="feFlood568"
           result="result1" />
        <feComposite
           in="SourceGraphic"
           in2="result1"
           id="feComposite570" />
      </filter>
    </defs>
    <text
       x="440"
       y="1127"
       stroke-width="1"
       id="text575">Millerocaulis_zamunerae</text>
    <text
       x="440"
       y="1147"
       stroke-width="1"
       id="text577">Millerocaulis_australis_Vera2010</text>
    <text
       x="600"
       y="1507"
       stroke-width="1"
       id="text579">Todea_barbara</text>
    <text
       x="580"
       y="1547"
       stroke-width="1"
       id="text581">Leptopteris_superba</text>
    <text
       x="620"
       y="1587"
       stroke-width="1"
       id="text583">Leptopteris_wilkesiana</text>
    <text
       x="600"
       y="1567"
       stroke-width="1"
       id="text585">Leptopteris_hymenophylloides</text>
    <text
       x="580"
       y="1487"
       stroke-width="1"
       id="text587">Leptopteris_fraseri</text>
    <text
       x="480"
       y="1267"
       stroke-width="1"
       id="text589">Osmunda_regalis</text>
    <text
       x="480"
       y="1287"
       stroke-width="1"
       id="text591">Osmunda_lancea</text>
    <text
       x="480"
       y="1307"
       stroke-width="1"
       id="text593">Osmunda_japonica</text>
    <text
       x="360"
       y="867"
       stroke-width="1"
       id="text595">Claytosmunda_claytoniana</text>
    <text
       x="540"
       y="1387"
       stroke-width="1"
       id="text597">Osmundastrum_cinnamomea</text>
    <text
       x="480"
       y="1327"
       stroke-width="1"
       id="text599">Osmunda_iliaensis</text>
    <text
       x="520"
       y="1367"
       stroke-width="1"
       id="text601">Osmundastrum_cinnamomea_NeogeneJapan</text>
    <text
       x="540"
       y="1407"
       stroke-width="1"
       id="text603">Osmundastrum_cinnamomea_NeogeneUSA</text>
    <text
       x="360"
       y="887"
       stroke-width="1"
       id="text605">Claytosmunda_nathorstii</text>
    <text
       x="600"
       y="1527"
       stroke-width="1"
       id="text607">Todea_tidwellii</text>
    <text
       x="520"
       y="1427"
       stroke-width="1"
       id="text609">Osmundacaulis_kidstonii</text>
    <text
       x="560"
       y="1447"
       stroke-width="1"
       id="text611">Claytosmunda_embreei</text>
    <text
       x="240"
       y="547"
       stroke-width="1"
       id="text613">Claytosmunda_tekelili</text>
    <text
       x="400"
       y="1007"
       stroke-width="1"
       id="text615">Millerocaulis_sahnii</text>
    <text
       x="480"
       y="1187"
       stroke-width="1"
       id="text617">Millerocaulis_rajmahalensis</text>
    <text
       x="280"
       y="627"
       stroke-width="1"
       id="text619">Millerocaulis_livingstonensis</text>
    <text
       x="420"
       y="947"
       stroke-width="1"
       id="text621">Millerocaulis_kolbei</text>
    <text
       x="400"
       y="1027"
       stroke-width="1"
       id="text623">Millerocaulis_australis</text>
    <text
       x="520"
       y="1227"
       stroke-width="1"
       id="text625">Millerocaulis_amarjolensis</text>
    <text
       x="620"
       y="1607"
       stroke-width="1"
       id="text627">Leptoperis_estipularis</text>
    <text
       x="400"
       y="787"
       stroke-width="1"
       id="text629">Claytosmunda_johnstonii</text>
    <text
       x="220"
       y="387"
       stroke-width="1"
       id="text631">Osmundacaulis_tehuelchensis</text>
    <text
       x="240"
       y="407"
       stroke-width="1"
       id="text633">Osmundacaulis_tasmanensis</text>
    <text
       x="240"
       y="427"
       stroke-width="1"
       id="text635">Osmundacaulis_andrewii</text>
    <text
       x="340"
       y="727"
       stroke-width="1"
       id="text637">Claytosmunda_wangii</text>
    <text
       x="360"
       y="747"
       stroke-width="1"
       id="text639">Claytosmunda_plumites</text>
    <text
       x="480"
       y="1347"
       stroke-width="1"
       id="text641">Osmundastrum_pulchella</text>
    <text
       x="420"
       y="807"
       stroke-width="1"
       id="text643">Claytosmunda_liaoningensis</text>
    <text
       x="380"
       y="767"
       stroke-width="1"
       id="text645">Claytosmunda_chengii</text>
    <text
       x="400"
       y="1047"
       stroke-width="1"
       id="text647">Millerocaulis_dunlopii</text>
    <text
       x="180"
       y="507"
       stroke-width="1"
       id="text649">Lunea_jonesii</text>
    <text
       x="100"
       y="107"
       stroke-width="1"
       id="text651">Grammatocaulis_donponii</text>
    <text
       x="400"
       y="1067"
       stroke-width="1"
       id="text653">Millerocaulis_wrightii</text>
    <text
       x="280"
       y="647"
       stroke-width="1"
       id="text655">Millerocaulis_websteri</text>
    <text
       x="320"
       y="707"
       stroke-width="1"
       id="text657">Millerocaulis_wadei</text>
    <text
       x="280"
       y="687"
       stroke-width="1"
       id="text659">Millerocaulis_swanensis</text>
    <text
       x="280"
       y="667"
       stroke-width="1"
       id="text661">Millerocaulis_spinksii</text>
    <text
       x="500"
       y="1207"
       stroke-width="1"
       id="text663">Millerocaulis_santaecrucis</text>
    <text
       x="420"
       y="827"
       stroke-width="1"
       id="text665">Millerocaulis_richmondii</text>
    <text
       x="400"
       y="1087"
       stroke-width="1"
       id="text667">Millerocaulis_patagonicus</text>
    <text
       x="240"
       y="567"
       stroke-width="1"
       id="text669">Millerocaulis_macromedullosus</text>
    <text
       x="460"
       y="1167"
       stroke-width="1"
       id="text671">Millerocaulis_hebeiensis</text>
    <text
       x="380"
       y="987"
       stroke-width="1"
       id="text673">Millerocaulis_gibbianus</text>
    <text
       x="260"
       y="587"
       stroke-width="1"
       id="text675">Millerocaulis_broganii</text>
    <text
       x="520"
       y="1247"
       stroke-width="1"
       id="text677">Millerocaulis_beipiaoensis</text>
    <text
       x="400"
       y="1107"
       stroke-width="1"
       id="text679">Millerocaulis_aucklandicus</text>
    <text
       x="320"
       y="847"
       stroke-width="1"
       id="text681">Millerocaulis_tuhajkulensis</text>
    <text
       x="560"
       y="1467"
       stroke-width="1"
       id="text683">Osmundastrum_indentata</text>
    <text
       x="140"
       y="127"
       stroke-width="1"
       id="text685">Itopsidema_vancleavei</text>
    <text
       x="160"
       y="147"
       stroke-width="1"
       id="text687">Donwelliacaulis_chlouberii</text>
    <text
       x="260"
       y="607"
       stroke-width="1"
       id="text689">Millerocaulis_woolfei</text>
    <text
       x="380"
       y="907"
       stroke-width="1"
       id="text691">Millerocaulis_lutziae</text>
    <text
       x="420"
       y="967"
       stroke-width="1"
       id="text693">Millerocaulis_herbstii</text>
    <text
       x="400"
       y="927"
       stroke-width="1"
       id="text695">Claytosmunda_beardmorensis</text>
    <text
       x="200"
       y="347"
       stroke-width="1"
       id="text697">Zhongmingella_plenasioides</text>
    <text
       x="160"
       y="167"
       stroke-width="1"
       id="text699">Tiania_yunnanensis</text>
    <text
       x="240"
       y="307"
       stroke-width="1"
       id="text701">Thamnopteris_splendida</text>
    <text
       x="200"
       y="227"
       stroke-width="1"
       id="text703">Thamnopteris_schlechtendalii</text>
    <text
       x="180"
       y="207"
       stroke-width="1"
       id="text705">Thamnopteris_kidstonii</text>
    <text
       x="200"
       y="247"
       stroke-width="1"
       id="text707">Thamnopteris_kazanensis</text>
    <text
       x="220"
       y="287"
       stroke-width="1"
       id="text709">Thamnopteris_javorskii</text>
    <text
       x="200"
       y="267"
       stroke-width="1"
       id="text711">Thamnopteris_gwynnevaughanii</text>
    <text
       x="200"
       y="367"
       stroke-width="1"
       id="text713">Shuichengella_primitiva</text>
    <text
       x="40"
       y="27"
       stroke-width="1"
       id="text715">Rastropteris_pinquanensis</text>
    <text
       x="200"
       y="527"
       stroke-width="1"
       id="text717">Palaeosmunda_williamsii</text>
    <text
       x="240"
       y="467"
       stroke-width="1"
       id="text719">Guairea_millerii</text>
    <text
       x="240"
       y="487"
       stroke-width="1"
       id="text721">Guairea_carnierii</text>
    <text
       x="220"
       y="447"
       stroke-width="1"
       id="text723">Guairea_brasiliensis</text>
    <text
       x="80"
       y="47"
       stroke-width="1"
       id="text725">Grammatopteris_freitasii</text>
    <text
       x="80"
       y="67"
       stroke-width="1"
       id="text727">Grammatopteris_rigollotii</text>
    <text
       x="80"
       y="87"
       stroke-width="1"
       id="text729">Grammatopteris_baldaufii</text>
    <text
       x="240"
       y="327"
       stroke-width="1"
       id="text731">Chasmatopteris_principalis</text>
    <text
       x="160"
       y="187"
       stroke-width="1"
       id="text733">Bathypteris_rhomboidea</text>
  </g>
  <g
     stroke-width="2"
     stroke="black"
     font-family="Verdana"
     font-style="regular"
     font-size="12"
     id="g1035">
    <text
       xml:space="preserve"
       style="font-weight:bold;font-size:9.33333px;font-family:sans-serif;-inkscape-font-specification:'sans-serif Bold';text-align:center;text-anchor:middle;fill:#f70000;fill-opacity:1;stroke:#f30000;stroke-width:1.107;stroke-opacity:1"
       x="144.1899"
       y="387.04214"
       id="text2596"><tspan
         sodipodi:role="line"
         id="tspan2594"
         x="144.1899"
         y="387.04214">III</tspan></text>
    <text
       xml:space="preserve"
       style="font-weight:bold;font-size:9.33333px;font-family:sans-serif;-inkscape-font-specification:'sans-serif Bold';text-align:center;text-anchor:middle;fill:#f70000;fill-opacity:1;stroke:#f30000;stroke-width:1.107;stroke-opacity:1"
       x="145.09172"
       y="528.74463"
       id="text2596-5"><tspan
         sodipodi:role="line"
         id="tspan2594-3"
         x="145.09172"
         y="528.74463">IV</tspan></text>
    <text
       xml:space="preserve"
       style="font-weight:bold;font-size:9.33333px;font-family:sans-serif;-inkscape-font-specification:'sans-serif Bold';text-align:center;text-anchor:middle;fill:#f70000;fill-opacity:1;stroke:#ff0000;stroke-width:1.107;stroke-opacity:1"
       x="104.18288"
       y="134.30838"
       id="text4417"><tspan
         sodipodi:role="line"
         id="tspan4415"
         x="104.18288"
         y="134.30838">I</tspan></text>
    <text
       xml:space="preserve"
       style="font-weight:bold;font-size:9.33333px;font-family:sans-serif;-inkscape-font-specification:'sans-serif Bold';text-align:center;text-anchor:middle;fill:#f70000;fill-opacity:1;stroke:#ff0000;stroke-width:1.107;stroke-opacity:1"
       x="124.14036"
       y="203.45383"
       id="text4417-7"><tspan
         sodipodi:role="line"
         id="tspan4415-8"
         x="124.14036"
         y="203.45383">II</tspan></text>
  </g>
</svg>
