<?xml version="1.0" encoding="UTF-8" standalone="no"?>
<svg
   width="1339"
   height="2193"
   version="1.1"
   id="svg343"
   sodipodi:docname="f1a_half.svg"
   inkscape:version="1.3.2 (091e20e, 2023-11-25, custom)"
   xmlns:inkscape="http://www.inkscape.org/namespaces/inkscape"
   xmlns:sodipodi="http://sodipodi.sourceforge.net/DTD/sodipodi-0.dtd"
   xmlns="http://www.w3.org/2000/svg"
   xmlns:svg="http://www.w3.org/2000/svg">
  <defs
     id="defs343" />
  <sodipodi:namedview
     id="namedview343"
     pagecolor="#ffffff"
     bordercolor="#000000"
     borderopacity="0.25"
     inkscape:showpageshadow="2"
     inkscape:pageopacity="0.0"
     inkscape:pagecheckerboard="0"
     inkscape:deskcolor="#d1d1d1"
     inkscape:zoom="1.0485687"
     inkscape:cx="441.07742"
     inkscape:cy="264.64645"
     inkscape:window-width="1920"
     inkscape:window-height="1009"
     inkscape:window-x="-8"
     inkscape:window-y="-8"
     inkscape:window-maximized="1"
     inkscape:current-layer="g343" />
  <g
     stroke-width="2"
     stroke="black"
     font-family="Verdana"
     font-size="20"
     id="g283">
    <line
       x1="199"
       y1="75"
       x2="135"
       y2="75"
       id="line1" />
    <line
       x1="479"
       y1="1505"
       x2="459"
       y2="1505"
       id="line2" />
    <line
       x1="459"
       y1="1536"
       x2="439"
       y2="1536"
       id="line3" />
    <line
       x1="479"
       y1="1567"
       x2="459"
       y2="1567"
       id="line4" />
    <line
       x1="499"
       y1="1590"
       x2="479"
       y2="1590"
       id="line5" />
    <line
       x1="519"
       y1="1615"
       x2="499"
       y2="1615"
       id="line6" />
    <line
       x1="339"
       y1="775"
       x2="319"
       y2="775"
       id="line7" />
    <line
       x1="419"
       y1="471"
       x2="399"
       y2="471"
       id="line8" />
    <line
       x1="439"
       y1="498"
       x2="419"
       y2="498"
       id="line9" />
    <line
       x1="459"
       y1="532"
       x2="439"
       y2="532"
       id="line10" />
    <line
       x1="479"
       y1="580"
       x2="459"
       y2="580"
       id="line11" />
    <line
       x1="499"
       y1="615"
       x2="479"
       y2="615"
       id="line12" />
    <line
       x1="399"
       y1="448"
       x2="379"
       y2="448"
       id="line13" />
    <line
       x1="359"
       y1="390"
       x2="339"
       y2="390"
       id="line14" />
    <line
       x1="379"
       y1="416"
       x2="359"
       y2="416"
       id="line15" />
    <line
       x1="479"
       y1="1440"
       x2="459"
       y2="1440"
       id="line16" />
    <line
       x1="499"
       y1="1455"
       x2="479"
       y2="1455"
       id="line17" />
    <line
       x1="419"
       y1="955"
       x2="399"
       y2="955"
       id="line18" />
    <line
       x1="399"
       y1="963"
       x2="379"
       y2="963"
       id="line19" />
    <line
       x1="419"
       y1="1002"
       x2="399"
       y2="1002"
       id="line20" />
    <line
       x1="439"
       y1="1020"
       x2="419"
       y2="1020"
       id="line21" />
    <line
       x1="459"
       y1="1035"
       x2="439"
       y2="1035"
       id="line22" />
    <line
       x1="319"
       y1="760"
       x2="299"
       y2="760"
       id="line23" />
    <line
       x1="419"
       y1="1083"
       x2="399"
       y2="1083"
       id="line24" />
    <line
       x1="439"
       y1="1102"
       x2="419"
       y2="1102"
       id="line25" />
    <line
       x1="459"
       y1="1120"
       x2="439"
       y2="1120"
       id="line26" />
    <line
       x1="479"
       y1="1135"
       x2="459"
       y2="1135"
       id="line27" />
    <line
       x1="459"
       y1="1190"
       x2="439"
       y2="1190"
       id="line28" />
    <line
       x1="479"
       y1="1215"
       x2="459"
       y2="1215"
       id="line29" />
    <line
       x1="439"
       y1="1235"
       x2="419"
       y2="1235"
       id="line30" />
    <line
       x1="459"
       y1="1280"
       x2="439"
       y2="1280"
       id="line31" />
    <line
       x1="479"
       y1="1315"
       x2="459"
       y2="1315"
       id="line32" />
    <line
       x1="499"
       y1="1345"
       x2="479"
       y2="1345"
       id="line33" />
    <line
       x1="519"
       y1="1365"
       x2="499"
       y2="1365"
       id="line34" />
    <line
       x1="339"
       y1="921"
       x2="319"
       y2="921"
       id="line35" />
    <line
       x1="359"
       y1="998"
       x2="339"
       y2="998"
       id="line36" />
    <line
       x1="379"
       y1="1091"
       x2="359"
       y2="1091"
       id="line37" />
    <line
       x1="399"
       y1="1220"
       x2="379"
       y2="1220"
       id="line38" />
    <line
       x1="419"
       y1="1357"
       x2="399"
       y2="1357"
       id="line39" />
    <line
       x1="439"
       y1="1479"
       x2="419"
       y2="1479"
       id="line40" />
    <line
       x1="459"
       y1="1422"
       x2="439"
       y2="1422"
       id="line41" />
    <line
       x1="299"
       y1="814"
       x2="279"
       y2="814"
       id="line42" />
    <line
       x1="319"
       y1="868"
       x2="299"
       y2="868"
       id="line43" />
    <line
       x1="339"
       y1="815"
       x2="319"
       y2="815"
       id="line44" />
    <line
       x1="299"
       y1="260"
       x2="279"
       y2="260"
       id="line45" />
    <line
       x1="319"
       y1="275"
       x2="299"
       y2="275"
       id="line46" />
    <line
       x1="279"
       y1="757"
       x2="259"
       y2="757"
       id="line47" />
    <line
       x1="299"
       y1="700"
       x2="279"
       y2="700"
       id="line48" />
    <line
       x1="319"
       y1="715"
       x2="299"
       y2="715"
       id="line49" />
    <line
       x1="259"
       y1="524"
       x2="239"
       y2="524"
       id="line50" />
    <line
       x1="279"
       y1="292"
       x2="259"
       y2="292"
       id="line51" />
    <line
       x1="299"
       y1="325"
       x2="279"
       y2="325"
       id="line52" />
    <line
       x1="319"
       y1="346"
       x2="299"
       y2="346"
       id="line53" />
    <line
       x1="339"
       y1="367"
       x2="319"
       y2="367"
       id="line54" />
    <line
       x1="239"
       y1="374"
       x2="219"
       y2="374"
       id="line55" />
    <line
       x1="71"
       y1="88"
       x2="7"
       y2="88"
       id="line56" />
    <line
       x1="135"
       y1="131"
       x2="71"
       y2="131"
       id="line57" />
    <line
       x1="199"
       y1="187"
       x2="135"
       y2="187"
       id="line58" />
    <line
       x1="219"
       y1="269"
       x2="199"
       y2="269"
       id="line59" />
    <line
       x1="239"
       y1="165"
       x2="219"
       y2="165"
       id="line60" />
    <line
       x1="7"
       y1="56"
       x2="5"
       y2="56"
       id="line61" />
    <line
       x1="91"
       y1="45"
       x2="71"
       y2="45"
       id="line62" />
    <line
       x1="219"
       y1="65"
       x2="199"
       y2="65"
       id="line63" />
    <line
       x1="27"
       y1="25"
       x2="7"
       y2="25"
       id="line64" />
    <line
       x1="219"
       y1="85"
       x2="199"
       y2="85"
       id="line65" />
    <line
       x1="479"
       y1="1245"
       x2="459"
       y2="1245"
       id="line66" />
    <line
       x1="479"
       y1="1265"
       x2="459"
       y2="1265"
       id="line67" />
    <line
       x1="519"
       y1="565"
       x2="499"
       y2="565"
       id="line68" />
    <line
       x1="499"
       y1="1485"
       x2="479"
       y2="1485"
       id="line69" />
    <line
       x1="499"
       y1="1505"
       x2="479"
       y2="1505"
       id="line70" />
    <line
       x1="519"
       y1="1565"
       x2="499"
       y2="1565"
       id="line71" />
    <line
       x1="539"
       y1="1605"
       x2="519"
       y2="1605"
       id="line72" />
    <line
       x1="519"
       y1="1585"
       x2="499"
       y2="1585"
       id="line73" />
    <line
       x1="499"
       y1="1545"
       x2="479"
       y2="1545"
       id="line74" />
    <line
       x1="439"
       y1="1065"
       x2="419"
       y2="1065"
       id="line75" />
    <line
       x1="459"
       y1="1085"
       x2="439"
       y2="1085"
       id="line76" />
    <line
       x1="499"
       y1="1125"
       x2="479"
       y2="1125"
       id="line77" />
    <line
       x1="499"
       y1="1525"
       x2="479"
       y2="1525"
       id="line78" />
    <line
       x1="499"
       y1="545"
       x2="479"
       y2="545"
       id="line79" />
    <line
       x1="479"
       y1="485"
       x2="459"
       y2="485"
       id="line80" />
    <line
       x1="479"
       y1="505"
       x2="459"
       y2="505"
       id="line81" />
    <line
       x1="479"
       y1="525"
       x2="459"
       y2="525"
       id="line82" />
    <line
       x1="479"
       y1="1105"
       x2="459"
       y2="1105"
       id="line83" />
    <line
       x1="499"
       y1="1425"
       x2="479"
       y2="1425"
       id="line84" />
    <line
       x1="359"
       y1="765"
       x2="339"
       y2="765"
       id="line85" />
    <line
       x1="539"
       y1="1345"
       x2="519"
       y2="1345"
       id="line86" />
    <line
       x1="479"
       y1="1165"
       x2="459"
       y2="1165"
       id="line87" />
    <line
       x1="359"
       y1="845"
       x2="339"
       y2="845"
       id="line88" />
    <line
       x1="499"
       y1="1285"
       x2="479"
       y2="1285"
       id="line89" />
    <line
       x1="499"
       y1="1205"
       x2="479"
       y2="1205"
       id="line90" />
    <line
       x1="539"
       y1="1625"
       x2="519"
       y2="1625"
       id="line91" />
    <line
       x1="519"
       y1="585"
       x2="499"
       y2="585"
       id="line92" />
    <line
       x1="519"
       y1="605"
       x2="499"
       y2="605"
       id="line93" />
    <line
       x1="459"
       y1="1005"
       x2="439"
       y2="1005"
       id="line94" />
    <line
       x1="399"
       y1="385"
       x2="379"
       y2="385"
       id="line95" />
    <line
       x1="379"
       y1="365"
       x2="359"
       y2="365"
       id="line96" />
    <line
       x1="439"
       y1="445"
       x2="419"
       y2="445"
       id="line97" />
    <line
       x1="519"
       y1="625"
       x2="499"
       y2="625"
       id="line98" />
    <line
       x1="519"
       y1="645"
       x2="499"
       y2="645"
       id="line99" />
    <line
       x1="459"
       y1="465"
       x2="439"
       y2="465"
       id="line100" />
    <line
       x1="359"
       y1="785"
       x2="339"
       y2="785"
       id="line101" />
    <line
       x1="519"
       y1="665"
       x2="499"
       y2="665"
       id="line102" />
    <line
       x1="419"
       y1="425"
       x2="399"
       y2="425"
       id="line103" />
    <line
       x1="399"
       y1="405"
       x2="379"
       y2="405"
       id="line104" />
    <line
       x1="439"
       y1="945"
       x2="419"
       y2="945"
       id="line105" />
    <line
       x1="419"
       y1="925"
       x2="399"
       y2="925"
       id="line106" />
    <line
       x1="479"
       y1="1025"
       x2="459"
       y2="1025"
       id="line107" />
    <line
       x1="439"
       y1="985"
       x2="419"
       y2="985"
       id="line108" />
    <line
       x1="519"
       y1="1445"
       x2="499"
       y2="1445"
       id="line109" />
    <line
       x1="539"
       y1="1365"
       x2="519"
       y2="1365"
       id="line110" />
    <line
       x1="519"
       y1="1465"
       x2="499"
       y2="1465"
       id="line111" />
    <line
       x1="319"
       y1="245"
       x2="299"
       y2="245"
       id="line112" />
    <line
       x1="519"
       y1="1325"
       x2="499"
       y2="1325"
       id="line113" />
    <line
       x1="359"
       y1="865"
       x2="339"
       y2="865"
       id="line114" />
    <line
       x1="439"
       y1="965"
       x2="419"
       y2="965"
       id="line115" />
    <line
       x1="379"
       y1="905"
       x2="359"
       y2="905"
       id="line116" />
    <line
       x1="359"
       y1="885"
       x2="339"
       y2="885"
       id="line117" />
    <line
       x1="479"
       y1="1185"
       x2="459"
       y2="1185"
       id="line118" />
    <line
       x1="479"
       y1="1045"
       x2="459"
       y2="1045"
       id="line119" />
    <line
       x1="499"
       y1="1305"
       x2="479"
       y2="1305"
       id="line120" />
    <line
       x1="339"
       y1="745"
       x2="319"
       y2="745"
       id="line121" />
    <line
       x1="499"
       y1="1145"
       x2="479"
       y2="1145"
       id="line122" />
    <line
       x1="359"
       y1="805"
       x2="339"
       y2="805"
       id="line123" />
    <line
       x1="499"
       y1="1225"
       x2="479"
       y2="1225"
       id="line124" />
    <line
       x1="539"
       y1="1385"
       x2="519"
       y2="1385"
       id="line125" />
    <line
       x1="339"
       y1="705"
       x2="319"
       y2="705"
       id="line126" />
    <line
       x1="479"
       y1="1405"
       x2="459"
       y2="1405"
       id="line127" />
    <line
       x1="359"
       y1="825"
       x2="339"
       y2="825"
       id="line128" />
    <line
       x1="339"
       y1="265"
       x2="319"
       y2="265"
       id="line129" />
    <line
       x1="219"
       y1="105"
       x2="199"
       y2="105"
       id="line130" />
    <line
       x1="259"
       y1="125"
       x2="239"
       y2="125"
       id="line131" />
    <line
       x1="259"
       y1="145"
       x2="239"
       y2="145"
       id="line132" />
    <line
       x1="259"
       y1="165"
       x2="239"
       y2="165"
       id="line133" />
    <line
       x1="259"
       y1="185"
       x2="239"
       y2="185"
       id="line134" />
    <line
       x1="339"
       y1="285"
       x2="319"
       y2="285"
       id="line135" />
    <line
       x1="319"
       y1="685"
       x2="299"
       y2="685"
       id="line136" />
    <line
       x1="339"
       y1="725"
       x2="319"
       y2="725"
       id="line137" />
    <line
       x1="319"
       y1="305"
       x2="299"
       y2="305"
       id="line138" />
    <line
       x1="339"
       y1="325"
       x2="319"
       y2="325"
       id="line139" />
    <line
       x1="359"
       y1="345"
       x2="339"
       y2="345"
       id="line140" />
    <line
       x1="259"
       y1="225"
       x2="239"
       y2="225"
       id="line141" />
    <line
       x1="259"
       y1="205"
       x2="239"
       y2="205"
       id="line142" />
    <line
       x1="200"
       y1="65"
       x2="200"
       y2="85"
       id="line143" />
    <line
       x1="480"
       y1="1485"
       x2="480"
       y2="1525"
       id="line144" />
    <line
       x1="460"
       y1="1505"
       x2="460"
       y2="1567"
       id="line145" />
    <line
       x1="480"
       y1="1545"
       x2="480"
       y2="1590"
       id="line146" />
    <line
       x1="500"
       y1="1565"
       x2="500"
       y2="1615"
       id="line147" />
    <line
       x1="520"
       y1="1605"
       x2="520"
       y2="1625"
       id="line148" />
    <line
       x1="340"
       y1="765"
       x2="340"
       y2="785"
       id="line149" />
    <line
       x1="420"
       y1="445"
       x2="420"
       y2="498"
       id="line150" />
    <line
       x1="440"
       y1="465"
       x2="440"
       y2="532"
       id="line151" />
    <line
       x1="460"
       y1="485"
       x2="460"
       y2="580"
       id="line152" />
    <line
       x1="480"
       y1="545"
       x2="480"
       y2="615"
       id="line153" />
    <line
       x1="500"
       y1="565"
       x2="500"
       y2="665"
       id="line154" />
    <line
       x1="400"
       y1="425"
       x2="400"
       y2="471"
       id="line155" />
    <line
       x1="360"
       y1="365"
       x2="360"
       y2="416"
       id="line156" />
    <line
       x1="380"
       y1="385"
       x2="380"
       y2="448"
       id="line157" />
    <line
       x1="480"
       y1="1425"
       x2="480"
       y2="1455"
       id="line158" />
    <line
       x1="500"
       y1="1445"
       x2="500"
       y2="1465"
       id="line159" />
    <line
       x1="420"
       y1="945"
       x2="420"
       y2="965"
       id="line160" />
    <line
       x1="400"
       y1="925"
       x2="400"
       y2="1002"
       id="line161" />
    <line
       x1="420"
       y1="985"
       x2="420"
       y2="1020"
       id="line162" />
    <line
       x1="440"
       y1="1005"
       x2="440"
       y2="1035"
       id="line163" />
    <line
       x1="460"
       y1="1025"
       x2="460"
       y2="1045"
       id="line164" />
    <line
       x1="320"
       y1="745"
       x2="320"
       y2="775"
       id="line165" />
    <line
       x1="420"
       y1="1065"
       x2="420"
       y2="1102"
       id="line166" />
    <line
       x1="440"
       y1="1085"
       x2="440"
       y2="1120"
       id="line167" />
    <line
       x1="460"
       y1="1105"
       x2="460"
       y2="1135"
       id="line168" />
    <line
       x1="480"
       y1="1125"
       x2="480"
       y2="1145"
       id="line169" />
    <line
       x1="460"
       y1="1165"
       x2="460"
       y2="1215"
       id="line170" />
    <line
       x1="480"
       y1="1205"
       x2="480"
       y2="1225"
       id="line171" />
    <line
       x1="440"
       y1="1190"
       x2="440"
       y2="1280"
       id="line172" />
    <line
       x1="460"
       y1="1245"
       x2="460"
       y2="1315"
       id="line173" />
    <line
       x1="480"
       y1="1285"
       x2="480"
       y2="1345"
       id="line174" />
    <line
       x1="500"
       y1="1325"
       x2="500"
       y2="1365"
       id="line175" />
    <line
       x1="520"
       y1="1345"
       x2="520"
       y2="1385"
       id="line176" />
    <line
       x1="340"
       y1="845"
       x2="340"
       y2="998"
       id="line177" />
    <line
       x1="360"
       y1="905"
       x2="360"
       y2="1091"
       id="line178" />
    <line
       x1="380"
       y1="963"
       x2="380"
       y2="1220"
       id="line179" />
    <line
       x1="400"
       y1="1083"
       x2="400"
       y2="1357"
       id="line180" />
    <line
       x1="420"
       y1="1235"
       x2="420"
       y2="1479"
       id="line181" />
    <line
       x1="440"
       y1="1422"
       x2="440"
       y2="1536"
       id="line182" />
    <line
       x1="460"
       y1="1405"
       x2="460"
       y2="1440"
       id="line183" />
    <line
       x1="300"
       y1="760"
       x2="300"
       y2="868"
       id="line184" />
    <line
       x1="320"
       y1="815"
       x2="320"
       y2="921"
       id="line185" />
    <line
       x1="340"
       y1="805"
       x2="340"
       y2="825"
       id="line186" />
    <line
       x1="300"
       y1="245"
       x2="300"
       y2="275"
       id="line187" />
    <line
       x1="320"
       y1="265"
       x2="320"
       y2="285"
       id="line188" />
    <line
       x1="280"
       y1="700"
       x2="280"
       y2="814"
       id="line189" />
    <line
       x1="300"
       y1="685"
       x2="300"
       y2="715"
       id="line190" />
    <line
       x1="320"
       y1="705"
       x2="320"
       y2="725"
       id="line191" />
    <line
       x1="260"
       y1="292"
       x2="260"
       y2="757"
       id="line192" />
    <line
       x1="280"
       y1="260"
       x2="280"
       y2="325"
       id="line193" />
    <line
       x1="300"
       y1="305"
       x2="300"
       y2="346"
       id="line194" />
    <line
       x1="320"
       y1="325"
       x2="320"
       y2="367"
       id="line195" />
    <line
       x1="340"
       y1="345"
       x2="340"
       y2="390"
       id="line196" />
    <line
       x1="240"
       y1="225"
       x2="240"
       y2="524"
       id="line197" />
    <line
       x1="72"
       y1="45"
       x2="72"
       y2="131"
       id="line198" />
    <line
       x1="136"
       y1="75"
       x2="136"
       y2="187"
       id="line199" />
    <line
       x1="200"
       y1="105"
       x2="200"
       y2="269"
       id="line200" />
    <line
       x1="220"
       y1="165"
       x2="220"
       y2="374"
       id="line201" />
    <line
       x1="240"
       y1="125"
       x2="240"
       y2="205"
       id="line202" />
    <line
       x1="8"
       y1="25"
       x2="8"
       y2="88"
       id="line203" />
    <defs
       id="defs203">
      <filter
         x="-0.063523573"
         y="-0.034385494"
         width="1.1270471"
         height="1.068771"
         id="solid">
        <feFlood
           flood-color="white"
           id="feFlood203" />
        <feComposite
           in="SourceGraphic"
           id="feComposite203" />
      </filter>
    </defs>
    <text
       x="97"
       y="49"
       stroke-width="1"
       id="text203">Diplopterygium_bancroftii</text>
    <text
       x="225"
       y="69"
       stroke-width="1"
       id="text204">Dipteris_conjugata</text>
    <text
       x="33"
       y="29"
       stroke-width="1"
       id="text205">Gleichenella_pectinata</text>
    <text
       x="225"
       y="89"
       stroke-width="1"
       id="text206">Matonia_pectinata</text>
    <text
       x="485"
       y="1249"
       stroke-width="1"
       id="text207">Millerocaulis_zamunerae</text>
    <text
       x="485"
       y="1269"
       stroke-width="1"
       id="text208">Millerocaulis_australis_Vera2010</text>
    <text
       x="525"
       y="569"
       stroke-width="1"
       id="text209">Osmundacaulis_hoskingii_tabulatus</text>
    <text
       x="505"
       y="1489"
       stroke-width="1"
       id="text210">Todea_papuana</text>
    <text
       x="505"
       y="1509"
       stroke-width="1"
       id="text211">Todea_barbara</text>
    <text
       x="525"
       y="1569"
       stroke-width="1"
       id="text212">Leptopteris_superba</text>
    <text
       x="545"
       y="1609"
       stroke-width="1"
       id="text213">Leptopteris_wilkesiana</text>
    <text
       x="525"
       y="1589"
       stroke-width="1"
       id="text214">Leptopteris_hymenophylloides</text>
    <text
       x="505"
       y="1549"
       stroke-width="1"
       id="text215">Leptopteris_fraseri</text>
    <text
       x="445"
       y="1069"
       stroke-width="1"
       id="text216">Osmundastrum_cinnamomea_NeogeneJapan</text>
    <text
       x="465"
       y="1089"
       stroke-width="1"
       id="text217">Osmundastrum_cinnamomea_NeogeneUSA</text>
    <text
       x="505"
       y="1129"
       stroke-width="1"
       id="text218">Osmundastrum_precinnamomea</text>
    <text
       x="505"
       y="1529"
       stroke-width="1"
       id="text219">Todea_tidwellii</text>
    <text
       x="505"
       y="549"
       stroke-width="1"
       id="text220">Osmundacaulis_whittlesii</text>
    <text
       x="485"
       y="489"
       stroke-width="1"
       id="text221">Osmundacaulis_skidegatensis</text>
    <text
       x="485"
       y="509"
       stroke-width="1"
       id="text222">Osmundacaulis_natalensis</text>
    <text
       x="485"
       y="529"
       stroke-width="1"
       id="text223">Osmundacaulis_atherstonei</text>
    <text
       x="485"
       y="1109"
       stroke-width="1"
       id="text224">Osmundastrum_cinnamomea_CretaceousCanada</text>
    <text
       x="505"
       y="1429"
       stroke-width="1"
       id="text225">Claytosmunda_embreei</text>
    <text
       x="365"
       y="769"
       stroke-width="1"
       id="text226">Claytosmunda_tekelili</text>
    <text
       x="545"
       y="1349"
       stroke-width="1"
       id="text227">Millerocaulis_sahnii</text>
    <text
       x="485"
       y="1169"
       stroke-width="1"
       id="text228">Millerocaulis_rajmahalensis</text>
    <text
       x="365"
       y="849"
       stroke-width="1"
       id="text229">Millerocaulis_livingstonensis</text>
    <text
       x="505"
       y="1289"
       stroke-width="1"
       id="text230">Millerocaulis_australis</text>
    <text
       x="505"
       y="1209"
       stroke-width="1"
       id="text231">Millerocaulis_amarjolensis</text>
    <text
       x="545"
       y="1629"
       stroke-width="1"
       id="text232">Leptoperis_estipularis</text>
    <text
       x="525"
       y="589"
       stroke-width="1"
       id="text233">Osmundacaulis_zululandensis</text>
    <text
       x="525"
       y="609"
       stroke-width="1"
       id="text234">Osmundacaulis_tidwellii</text>
    <text
       x="465"
       y="1009"
       stroke-width="1"
       id="text235">Claytosmunda_johnstonii</text>
    <text
       x="405"
       y="389"
       stroke-width="1"
       id="text236">Osmundacaulis_tasmanensis</text>
    <text
       x="385"
       y="369"
       stroke-width="1"
       id="text237">Osmundacaulis_richmondii</text>
    <text
       x="445"
       y="449"
       stroke-width="1"
       id="text238">Osmundacaulis_pruchnickii</text>
    <text
       x="525"
       y="629"
       stroke-width="1"
       id="text239">Osmundacaulis_nerii</text>
    <text
       x="525"
       y="649"
       stroke-width="1"
       id="text240">Osmundacaulis_lemonii</text>
    <text
       x="465"
       y="469"
       stroke-width="1"
       id="text241">Osmundacaulis_jonesii</text>
    <text
       x="365"
       y="789"
       stroke-width="1"
       id="text242">Osmundacaulis_janae</text>
    <text
       x="525"
       y="669"
       stroke-width="1"
       id="text243">Osmundacaulis_hoskingii_var.hoskingii</text>
    <text
       x="425"
       y="429"
       stroke-width="1"
       id="text244">Osmundacaulis_griggsii</text>
    <text
       x="405"
       y="409"
       stroke-width="1"
       id="text245">Osmundacaulis_andrewii</text>
    <text
       x="445"
       y="949"
       stroke-width="1"
       id="text246">Claytosmunda_wangii</text>
    <text
       x="425"
       y="929"
       stroke-width="1"
       id="text247">Claytosmunda_plumites</text>
    <text
       x="485"
       y="1029"
       stroke-width="1"
       id="text248">Claytosmunda_liaoningensis</text>
    <text
       x="445"
       y="989"
       stroke-width="1"
       id="text249">Claytosmunda_chengii</text>
    <text
       x="525"
       y="1449"
       stroke-width="1"
       id="text250">Millerocaulis_limewoodensis</text>
    <text
       x="545"
       y="1369"
       stroke-width="1"
       id="text251">Millerocaulis_dunlopii</text>
    <text
       x="525"
       y="1469"
       stroke-width="1"
       id="text252">Millerocaulis_chubutensis</text>
    <text
       x="325"
       y="249"
       stroke-width="1"
       id="text253">Lunea_jonesii</text>
    <text
       x="525"
       y="1329"
       stroke-width="1"
       id="text254">Millerocaulis_wrightii</text>
    <text
       x="365"
       y="869"
       stroke-width="1"
       id="text255">Millerocaulis_websteri</text>
    <text
       x="445"
       y="969"
       stroke-width="1"
       id="text256">Millerocaulis_wadei</text>
    <text
       x="385"
       y="909"
       stroke-width="1"
       id="text257">Millerocaulis_swanensis</text>
    <text
       x="365"
       y="889"
       stroke-width="1"
       id="text258">Millerocaulis_spinksii</text>
    <text
       x="485"
       y="1189"
       stroke-width="1"
       id="text259">Millerocaulis_santaecrucis</text>
    <text
       x="485"
       y="1049"
       stroke-width="1"
       id="text260">Millerocaulis_richmondii</text>
    <text
       x="505"
       y="1309"
       stroke-width="1"
       id="text261">Millerocaulis_patagonicus</text>
    <text
       x="345"
       y="749"
       stroke-width="1"
       id="text262">Millerocaulis_macromedullosus</text>
    <text
       x="505"
       y="1149"
       stroke-width="1"
       id="text263">Millerocaulis_gibbianus</text>
    <text
       x="365"
       y="809"
       stroke-width="1"
       id="text264">Millerocaulis_broganii</text>
    <text
       x="505"
       y="1229"
       stroke-width="1"
       id="text265">Millerocaulis_beipiaoensis</text>
    <text
       x="545"
       y="1389"
       stroke-width="1"
       id="text266">Millerocaulis_aucklandicus</text>
    <text
       x="345"
       y="709"
       stroke-width="1"
       id="text267">Millerocaulis_stipabonettiorum</text>
    <text
       x="485"
       y="1409"
       stroke-width="1"
       id="text268">Osmundastrum_indentata</text>
    <text
       x="365"
       y="829"
       stroke-width="1"
       id="text269">Millerocaulis_woolfei</text>
    <text
       x="345"
       y="269"
       stroke-width="1"
       id="text270">Zhongmingella_plenasioides</text>
    <text
       x="225"
       y="109"
       stroke-width="1"
       id="text271">Thamnopteris_splendida</text>
    <text
       x="265"
       y="129"
       stroke-width="1"
       id="text272">Thamnopteris_schlechtendalii</text>
    <text
       x="265"
       y="149"
       stroke-width="1"
       id="text273">Thamnopteris_kidstonii</text>
    <text
       x="265"
       y="169"
       stroke-width="1"
       id="text274">Thamnopteris_kazanensis</text>
    <text
       x="265"
       y="189"
       stroke-width="1"
       id="text275">Thamnopteris_gwynnevaughanii</text>
    <text
       x="345"
       y="289"
       stroke-width="1"
       id="text276">Shuichengella_primitiva</text>
    <text
       x="325"
       y="689"
       stroke-width="1"
       id="text277">Palaeosmunda_williamsii</text>
    <text
       x="345"
       y="729"
       stroke-width="1"
       id="text278">Palaeosmunda_playfordii</text>
    <text
       x="325"
       y="309"
       stroke-width="1"
       id="text279">Guairea_millerii</text>
    <text
       x="345"
       y="329"
       stroke-width="1"
       id="text280">Guairea_carnierii</text>
    <text
       x="365"
       y="349"
       stroke-width="1"
       id="text281">Guairea_brasiliensis</text>
    <text
       x="265"
       y="229"
       stroke-width="1"
       id="text282">Chasmatopteris_principalis</text>
    <text
       x="265"
       y="209"
       stroke-width="1"
       id="text283">Bathypteris_rhomboidea</text>
  </g>
  <g
     stroke-width="2"
     stroke="black"
     font-family="Verdana"
     font-style="regular"
     font-size="20"
     id="g343">
    <text
       filter="url(#solid)"
       x="465"
       y="1506"
       stroke-width="1"
       id="text285">7</text>
    <text
       filter="url(#solid)"
       x="445"
       y="1537"
       stroke-width="1"
       id="text286">6</text>
    <text
       filter="url(#solid)"
       x="465"
       y="1568"
       stroke-width="1"
       id="text287">6</text>
    <text
       filter="url(#solid)"
       x="485"
       y="1591"
       stroke-width="1"
       id="text288">6</text>
    <text
       filter="url(#solid)"
       x="505"
       y="1616"
       stroke-width="1"
       id="text289">6</text>
    <text
       filter="url(#solid)"
       x="325"
       y="776"
       stroke-width="1"
       id="text290">7</text>
    <text
       filter="url(#solid)"
       x="405"
       y="472"
       stroke-width="1"
       id="text291">2</text>
    <text
       filter="url(#solid)"
       x="425"
       y="499"
       stroke-width="1"
       id="text292">2</text>
    <text
       filter="url(#solid)"
       x="445"
       y="533"
       stroke-width="1"
       id="text293">2</text>
    <text
       filter="url(#solid)"
       x="465"
       y="581"
       stroke-width="1"
       id="text294">2</text>
    <text
       filter="url(#solid)"
       x="485"
       y="616"
       stroke-width="1"
       id="text295">3</text>
    <text
       filter="url(#solid)"
       x="385"
       y="449"
       stroke-width="1"
       id="text296">2</text>
    <text
       filter="url(#solid)"
       x="345"
       y="391"
       stroke-width="1"
       id="text297">2</text>
    <text
       filter="url(#solid)"
       x="365"
       y="417"
       stroke-width="1"
       id="text298">2</text>
    <text
       filter="url(#solid)"
       x="465"
       y="1441"
       stroke-width="1"
       id="text299">1</text>
    <text
       filter="url(#solid)"
       x="485"
       y="1456"
       stroke-width="1"
       id="text300">1</text>
    <text
       filter="url(#solid)"
       x="405"
       y="956"
       stroke-width="1"
       id="text301">1</text>
    <text
       filter="url(#solid)"
       x="385"
       y="964"
       stroke-width="1"
       id="text302">1</text>
    <text
       filter="url(#solid)"
       x="405"
       y="1003"
       stroke-width="1"
       id="text303">1</text>
    <text
       filter="url(#solid)"
       x="425"
       y="1021"
       stroke-width="1"
       id="text304">1</text>
    <text
       filter="url(#solid)"
       x="445"
       y="1036"
       stroke-width="1"
       id="text305">1</text>
    <text
       filter="url(#solid)"
       x="305"
       y="761"
       stroke-width="1"
       id="text306">2</text>
    <text
       filter="url(#solid)"
       x="405"
       y="1084"
       stroke-width="1"
       id="text307">1</text>
    <text
       filter="url(#solid)"
       x="425"
       y="1103"
       stroke-width="1"
       id="text308">1</text>
    <text
       filter="url(#solid)"
       x="445"
       y="1121"
       stroke-width="1"
       id="text309">1</text>
    <text
       filter="url(#solid)"
       x="465"
       y="1136"
       stroke-width="1"
       id="text310">1</text>
    <text
       filter="url(#solid)"
       x="445"
       y="1191"
       stroke-width="1"
       id="text311">1</text>
    <text
       filter="url(#solid)"
       x="465"
       y="1216"
       stroke-width="1"
       id="text312">1</text>
    <text
       filter="url(#solid)"
       x="425"
       y="1236"
       stroke-width="1"
       id="text313">1</text>
    <text
       filter="url(#solid)"
       x="445"
       y="1281"
       stroke-width="1"
       id="text314">1</text>
    <text
       filter="url(#solid)"
       x="465"
       y="1316"
       stroke-width="1"
       id="text315">1</text>
    <text
       filter="url(#solid)"
       x="485"
       y="1346"
       stroke-width="1"
       id="text316">1</text>
    <text
       filter="url(#solid)"
       x="505"
       y="1366"
       stroke-width="1"
       id="text317">1</text>
    <text
       filter="url(#solid)"
       x="325"
       y="922"
       stroke-width="1"
       id="text318">1</text>
    <text
       filter="url(#solid)"
       x="345"
       y="999"
       stroke-width="1"
       id="text319">1</text>
    <text
       filter="url(#solid)"
       x="365"
       y="1092"
       stroke-width="1"
       id="text320">1</text>
    <text
       filter="url(#solid)"
       x="385"
       y="1221"
       stroke-width="1"
       id="text321">1</text>
    <text
       filter="url(#solid)"
       x="405"
       y="1358"
       stroke-width="1"
       id="text322">1</text>
    <text
       filter="url(#solid)"
       x="425"
       y="1480"
       stroke-width="1"
       id="text323">1</text>
    <text
       filter="url(#solid)"
       x="445"
       y="1423"
       stroke-width="1"
       id="text324">1</text>
    <text
       filter="url(#solid)"
       x="285"
       y="815"
       stroke-width="1"
       id="text325">1</text>
    <text
       filter="url(#solid)"
       x="305"
       y="869"
       stroke-width="1"
       id="text326">1</text>
    <text
       filter="url(#solid)"
       x="325"
       y="816"
       stroke-width="1"
       id="text327">2</text>
    <text
       filter="url(#solid)"
       x="285"
       y="261"
       stroke-width="1"
       id="text328">2</text>
    <text
       filter="url(#solid)"
       x="305"
       y="276"
       stroke-width="1"
       id="text329">2</text>
    <text
       filter="url(#solid)"
       x="265"
       y="758"
       stroke-width="1"
       id="text330">1</text>
    <text
       filter="url(#solid)"
       x="285"
       y="701"
       stroke-width="1"
       id="text331">1</text>
    <text
       filter="url(#solid)"
       x="305"
       y="716"
       stroke-width="1"
       id="text332">1</text>
    <text
       filter="url(#solid)"
       x="245"
       y="525"
       stroke-width="1"
       id="text333">2</text>
    <text
       filter="url(#solid)"
       x="265"
       y="293"
       stroke-width="1"
       id="text334">3</text>
    <text
       filter="url(#solid)"
       x="285"
       y="326"
       stroke-width="1"
       id="text335">2</text>
    <text
       filter="url(#solid)"
       x="305"
       y="347"
       stroke-width="1"
       id="text336">2</text>
    <text
       filter="url(#solid)"
       x="325"
       y="368"
       stroke-width="1"
       id="text337">1</text>
    <text
       filter="url(#solid)"
       x="225"
       y="375"
       stroke-width="1"
       id="text338">1</text>
    <text
       filter="url(#solid)"
       x="151"
       y="188"
       stroke-width="1"
       id="text341">?</text>
    <text
       filter="url(#solid)"
       x="205"
       y="270"
       stroke-width="1"
       id="text342">2</text>
    <text
       filter="url(#solid)"
       x="225"
       y="166"
       stroke-width="1"
       id="text343">1</text>
  </g>
</svg>
