<?xml version="1.0"?>
<svg width="331" height="1085" xmlns="http://www.w3.org/2000/svg">
<g stroke-width="2" stroke="black" font-family="Verdana" font-size="5">
<text x="10" y="1070" stroke-width="1"> xpi15_dep_reduced_consensus</text>
<line x1="37" y1="52" x2="37" y2="59"  stroke="rgb(0,0,0)" stroke-width="2"/>
<line x1="37" y1="52" x2="37" y2="46"  stroke="rgb(0,0,0)" stroke-width="2"/>
<line x1="149" y1="536" x2="149" y2="542"  stroke="red"/>
<line x1="149" y1="531" x2="149" y2="536"  stroke="red"/>
<line x1="141" y1="712" x2="141" y2="718"  stroke="red"/>
<line x1="141" y1="707" x2="141" y2="712"  stroke="red"/>
<line x1="165" y1="833" x2="165" y2="839"  stroke="red"/>
<line x1="165" y1="828" x2="165" y2="833"  stroke="red"/>
<line x1="93" y1="404" x2="93" y2="410"  stroke="red"/>
<line x1="93" y1="399" x2="93" y2="404"  stroke="red"/>
<line x1="101" y1="657" x2="101" y2="663"  stroke="red"/>
<line x1="101" y1="652" x2="101" y2="657"  stroke="red"/>
<line x1="141" y1="818" x2="141" y2="830"  stroke="red"/>
<line x1="141" y1="806" x2="141" y2="818"  stroke="red"/>
<line x1="149" y1="830" x2="149" y2="844"  stroke="red"/>
<line x1="149" y1="817" x2="149" y2="830"  stroke="red"/>
<line x1="157" y1="844" x2="157" y2="855"  stroke="red"/>
<line x1="157" y1="833" x2="157" y2="844"  stroke="red"/>
<line x1="165" y1="855" x2="165" y2="861"  stroke="red"/>
<line x1="165" y1="850" x2="165" y2="855"  stroke="red"/>
<line x1="141" y1="528" x2="141" y2="536"  stroke="red"/>
<line x1="141" y1="520" x2="141" y2="528"  stroke="red"/>
<line x1="77" y1="401" x2="77" y2="415"  stroke="red"/>
<line x1="77" y1="388" x2="77" y2="401"  stroke="red"/>
<line x1="85" y1="415" x2="85" y2="426"  stroke="red"/>
<line x1="85" y1="404" x2="85" y2="415"  stroke="red"/>
<line x1="93" y1="426" x2="93" y2="432"  stroke="red"/>
<line x1="93" y1="421" x2="93" y2="426"  stroke="red"/>
<line x1="189" y1="954" x2="189" y2="960"  stroke="red"/>
<line x1="189" y1="949" x2="189" y2="954"  stroke="red"/>
<line x1="157" y1="915" x2="157" y2="926"  stroke="red"/>
<line x1="157" y1="905" x2="157" y2="915"  stroke="red"/>
<line x1="165" y1="926" x2="165" y2="936"  stroke="red"/>
<line x1="165" y1="916" x2="165" y2="926"  stroke="red"/>
<line x1="173" y1="936" x2="173" y2="946"  stroke="red"/>
<line x1="173" y1="927" x2="173" y2="936"  stroke="red"/>
<line x1="181" y1="946" x2="181" y2="954"  stroke="red"/>
<line x1="181" y1="938" x2="181" y2="946"  stroke="red"/>
<line x1="133" y1="546" x2="133" y2="565"  stroke="red"/>
<line x1="133" y1="528" x2="133" y2="546"  stroke="red"/>
<line x1="141" y1="565" x2="141" y2="577"  stroke="red"/>
<line x1="141" y1="553" x2="141" y2="565"  stroke="red"/>
<line x1="149" y1="564" x2="149" y2="591"  stroke="red"/>
<line x1="157" y1="591" x2="157" y2="597"  stroke="red"/>
<line x1="157" y1="586" x2="157" y2="591"  stroke="red"/>
<line x1="117" y1="316" x2="117" y2="323"  stroke="rgb(0,0,0)" stroke-width="2"/>
<line x1="117" y1="316" x2="117" y2="310"  stroke="rgb(0,0,0)" stroke-width="2"/>
<line x1="85" y1="267" x2="85" y2="280"  stroke="rgb(0,0,0)" stroke-width="2"/>
<line x1="85" y1="267" x2="85" y2="255"  stroke="rgb(0,0,0)" stroke-width="2"/>
<line x1="93" y1="279" x2="93" y2="292"  stroke="rgb(0,0,0)" stroke-width="2"/>
<line x1="93" y1="279" x2="93" y2="266"  stroke="rgb(0,0,0)" stroke-width="2"/>
<line x1="101" y1="291" x2="101" y2="306"  stroke="rgb(0,0,0)" stroke-width="2"/>
<line x1="101" y1="291" x2="101" y2="277"  stroke="rgb(0,0,0)" stroke-width="2"/>
<line x1="109" y1="305" x2="109" y2="317"  stroke="rgb(0,0,0)" stroke-width="2"/>
<line x1="109" y1="305" x2="109" y2="293"  stroke="rgb(0,0,0)" stroke-width="2"/>
<line x1="117" y1="294" x2="117" y2="301"  stroke="rgb(0,0,0)" stroke-width="2"/>
<line x1="117" y1="294" x2="117" y2="288"  stroke="rgb(0,0,0)" stroke-width="2"/>
<line x1="69" y1="389" x2="69" y2="401"  stroke="red"/>
<line x1="69" y1="377" x2="69" y2="389"  stroke="red"/>
<line x1="93" y1="624" x2="93" y2="630"  stroke="red"/>
<line x1="93" y1="619" x2="93" y2="624"  stroke="red"/>
<line x1="85" y1="616" x2="85" y2="624"  stroke="red"/>
<line x1="85" y1="608" x2="85" y2="616"  stroke="red"/>
<line x1="117" y1="803" x2="117" y2="823"  stroke="red"/>
<line x1="117" y1="784" x2="117" y2="803"  stroke="red"/>
<line x1="125" y1="823" x2="125" y2="852"  stroke="red"/>
<line x1="125" y1="795" x2="125" y2="823"  stroke="red"/>
<line x1="133" y1="852" x2="133" y2="886"  stroke="red"/>
<line x1="133" y1="818" x2="133" y2="852"  stroke="red"/>
<line x1="141" y1="886" x2="141" y2="901"  stroke="red"/>
<line x1="141" y1="872" x2="141" y2="886"  stroke="red"/>
<line x1="149" y1="901" x2="149" y2="915"  stroke="red"/>
<line x1="149" y1="888" x2="149" y2="901"  stroke="red"/>
<line x1="157" y1="888" x2="157" y2="894"  stroke="red"/>
<line x1="157" y1="883" x2="157" y2="888"  stroke="red"/>
<line x1="77" y1="454" x2="77" y2="465"  stroke="red"/>
<line x1="77" y1="443" x2="77" y2="454"  stroke="red"/>
<line x1="85" y1="465" x2="85" y2="476"  stroke="red"/>
<line x1="85" y1="454" x2="85" y2="465"  stroke="red"/>
<line x1="93" y1="476" x2="93" y2="487"  stroke="red"/>
<line x1="93" y1="465" x2="93" y2="476"  stroke="red"/>
<line x1="101" y1="487" x2="101" y2="499"  stroke="red"/>
<line x1="101" y1="476" x2="101" y2="487"  stroke="red"/>
<line x1="109" y1="499" x2="109" y2="512"  stroke="red"/>
<line x1="109" y1="487" x2="109" y2="499"  stroke="red"/>
<line x1="117" y1="512" x2="117" y2="527"  stroke="red"/>
<line x1="117" y1="498" x2="117" y2="512"  stroke="red"/>
<line x1="125" y1="527" x2="125" y2="546"  stroke="red"/>
<line x1="125" y1="509" x2="125" y2="527"  stroke="red"/>
<line x1="85" y1="195" x2="85" y2="201"  stroke="cyan"/>
<line x1="85" y1="190" x2="85" y2="195"  stroke="cyan"/>
<line x1="69" y1="352" x2="69" y2="360"  stroke="red"/>
<line x1="69" y1="344" x2="69" y2="352"  stroke="red"/>
<line x1="77" y1="360" x2="77" y2="366"  stroke="red"/>
<line x1="77" y1="355" x2="77" y2="360"  stroke="red"/>
<line x1="61" y1="342" x2="61" y2="352"  stroke="red"/>
<line x1="61" y1="333" x2="61" y2="342"  stroke="red"/>
<line x1="69" y1="177" x2="69" y2="187"  stroke="cyan"/>
<line x1="69" y1="168" x2="69" y2="177"  stroke="green"/>
<line x1="77" y1="187" x2="77" y2="195"  stroke="cyan"/>
<line x1="77" y1="179" x2="77" y2="187"  stroke="cyan"/>
<line x1="69" y1="96" x2="69" y2="102"  stroke="blue"/>
<line x1="69" y1="91" x2="69" y2="96"  stroke="blue"/>
<line x1="157" y1="767" x2="157" y2="773"  stroke="red"/>
<line x1="157" y1="762" x2="157" y2="767"  stroke="red"/>
<line x1="93" y1="239" x2="93" y2="245"  stroke="green"/>
<line x1="93" y1="234" x2="93" y2="239"  stroke="green"/>
<line x1="53" y1="180" x2="53" y2="203"  stroke="green"/>
<line x1="53" y1="180" x2="53" y2="156"  stroke="rgb(0,0,0)" stroke-width="2"/>
<line x1="61" y1="203" x2="61" y2="230"  stroke="green"/>
<line x1="61" y1="177" x2="61" y2="203"  stroke="green"/>
<line x1="69" y1="230" x2="69" y2="249"  stroke="green"/>
<line x1="69" y1="212" x2="69" y2="230"  stroke="green"/>
<line x1="77" y1="249" x2="77" y2="268"  stroke="rgb(0,0,0)" stroke-width="2"/>
<line x1="77" y1="231" x2="77" y2="249"  stroke="green"/>
<line x1="85" y1="231" x2="85" y2="239"  stroke="green"/>
<line x1="85" y1="223" x2="85" y2="231"  stroke="green"/>
<line x1="77" y1="132" x2="77" y2="140"  stroke="blue"/>
<line x1="77" y1="124" x2="77" y2="132"  stroke="blue"/>
<line x1="85" y1="140" x2="85" y2="146"  stroke="blue"/>
<line x1="85" y1="135" x2="85" y2="140"  stroke="blue"/>
<line x1="45" y1="81" x2="45" y2="94"  stroke="blue"/>
<line x1="45" y1="69" x2="45" y2="81"  stroke="blue"/>
<line x1="53" y1="94" x2="53" y2="109"  stroke="blue"/>
<line x1="53" y1="80" x2="53" y2="94"  stroke="blue"/>
<line x1="61" y1="109" x2="61" y2="122"  stroke="blue"/>
<line x1="61" y1="96" x2="61" y2="109"  stroke="blue"/>
<line x1="69" y1="122" x2="69" y2="132"  stroke="blue"/>
<line x1="69" y1="122" x2="69" y2="112"  stroke="rgb(0,0,0)" stroke-width="2"/>
<line x1="21" y1="77" x2="21" y2="120"  stroke="rgb(0,0,0)" stroke-width="2"/>
<line x1="21" y1="77" x2="21" y2="35"  stroke="rgb(0,0,0)" stroke-width="2"/>
<line x1="29" y1="119" x2="29" y2="187"  stroke="rgb(0,0,0)" stroke-width="2"/>
<line x1="29" y1="119" x2="29" y2="51"  stroke="rgb(0,0,0)" stroke-width="2"/>
<line x1="37" y1="186" x2="37" y2="293"  stroke="rgb(0,0,0)" stroke-width="2"/>
<line x1="37" y1="81" x2="37" y2="186"  stroke="blue"/>
<line x1="45" y1="292" x2="45" y2="404"  stroke="red"/>
<line x1="45" y1="292" x2="45" y2="179"  stroke="rgb(0,0,0)" stroke-width="2"/>
<line x1="53" y1="404" x2="53" y2="467"  stroke="red"/>
<line x1="53" y1="342" x2="53" y2="404"  stroke="red"/>
<line x1="61" y1="467" x2="61" y2="546"  stroke="red"/>
<line x1="61" y1="389" x2="61" y2="467"  stroke="red"/>
<line x1="69" y1="546" x2="69" y2="639"  stroke="red"/>
<line x1="69" y1="454" x2="69" y2="546"  stroke="red"/>
<line x1="77" y1="639" x2="77" y2="662"  stroke="red"/>
<line x1="77" y1="616" x2="77" y2="639"  stroke="red"/>
<line x1="85" y1="662" x2="85" y2="684"  stroke="red"/>
<line x1="85" y1="641" x2="85" y2="662"  stroke="red"/>
<line x1="93" y1="684" x2="93" y2="712"  stroke="red"/>
<line x1="93" y1="657" x2="93" y2="684"  stroke="red"/>
<line x1="101" y1="712" x2="101" y2="750"  stroke="red"/>
<line x1="101" y1="674" x2="101" y2="712"  stroke="red"/>
<line x1="109" y1="750" x2="109" y2="803"  stroke="red"/>
<line x1="109" y1="698" x2="109" y2="750"  stroke="red"/>
<line x1="117" y1="698" x2="117" y2="711"  stroke="red"/>
<line x1="117" y1="685" x2="117" y2="698"  stroke="red"/>
<line x1="125" y1="711" x2="125" y2="727"  stroke="red"/>
<line x1="125" y1="696" x2="125" y2="711"  stroke="red"/>
<line x1="133" y1="727" x2="133" y2="742"  stroke="red"/>
<line x1="133" y1="712" x2="133" y2="727"  stroke="red"/>
<line x1="141" y1="742" x2="141" y2="756"  stroke="red"/>
<line x1="141" y1="729" x2="141" y2="742"  stroke="red"/>
<line x1="149" y1="756" x2="149" y2="767"  stroke="red"/>
<line x1="149" y1="745" x2="149" y2="756"  stroke="red"/>
<line x1="157" y1="745" x2="157" y2="752"  stroke="rgb(0,0,0)" stroke-width="2"/>
<line x1="157" y1="740" x2="157" y2="745"  stroke="red"/>
<line x1="13" y1="51" x2="13" y2="78"  stroke="rgb(0,0,0)" stroke-width="2"/>
<line x1="13" y1="51" x2="13" y2="24"  stroke="rgb(0,0,0)" stroke-width="2"/>
<line x1="37" y1="52" x2="29" y2="52" stroke="rgb(0,0,0)" stroke-width="2"/>
<line x1="149" y1="536" x2="141" y2="536" stroke="red"/>
<line x1="141" y1="712" x2="133" y2="712" stroke="red"/>
<line x1="165" y1="833" x2="157" y2="833" stroke="red"/>
<line x1="93" y1="404" x2="85" y2="404" stroke="red"/>
<line x1="101" y1="657" x2="93" y2="657" stroke="red"/>
<line x1="141" y1="818" x2="133" y2="818" stroke="red"/>
<line x1="149" y1="830" x2="141" y2="830" stroke="red"/>
<line x1="157" y1="844" x2="149" y2="844" stroke="red"/>
<line x1="165" y1="855" x2="157" y2="855" stroke="red"/>
<line x1="141" y1="528" x2="133" y2="528" stroke="red"/>
<line x1="77" y1="401" x2="69" y2="401" stroke="red"/>
<line x1="85" y1="415" x2="77" y2="415" stroke="red"/>
<line x1="93" y1="426" x2="85" y2="426" stroke="red"/>
<line x1="189" y1="954" x2="181" y2="954" stroke="red"/>
<line x1="157" y1="915" x2="149" y2="915" stroke="red"/>
<line x1="165" y1="926" x2="157" y2="926" stroke="red"/>
<line x1="173" y1="936" x2="165" y2="936" stroke="red"/>
<line x1="181" y1="946" x2="173" y2="946" stroke="red"/>
<line x1="133" y1="546" x2="125" y2="546" stroke="red"/>
<line x1="141" y1="565" x2="133" y2="565" stroke="red"/>
<line x1="149" y1="577" x2="141" y2="577" stroke="red"/>
<line x1="157" y1="591" x2="149" y2="591" stroke="red"/>
<line x1="117" y1="316" x2="109" y2="316" stroke="rgb(0,0,0)" stroke-width="2"/>
<line x1="85" y1="267" x2="77" y2="267" stroke="rgb(0,0,0)" stroke-width="2"/>
<line x1="93" y1="279" x2="85" y2="279" stroke="rgb(0,0,0)" stroke-width="2"/>
<line x1="101" y1="291" x2="93" y2="291" stroke="rgb(0,0,0)" stroke-width="2"/>
<line x1="109" y1="305" x2="101" y2="305" stroke="rgb(0,0,0)" stroke-width="2"/>
<line x1="117" y1="294" x2="109" y2="294" stroke="rgb(0,0,0)" stroke-width="2"/>
<line x1="69" y1="389" x2="61" y2="389" stroke="red"/>
<line x1="93" y1="624" x2="85" y2="624" stroke="red"/>
<line x1="85" y1="616" x2="77" y2="616" stroke="red"/>
<line x1="117" y1="803" x2="109" y2="803" stroke="red"/>
<line x1="125" y1="823" x2="117" y2="823" stroke="red"/>
<line x1="133" y1="852" x2="125" y2="852" stroke="red"/>
<line x1="141" y1="886" x2="133" y2="886" stroke="red"/>
<line x1="149" y1="901" x2="141" y2="901" stroke="red"/>
<line x1="157" y1="888" x2="149" y2="888" stroke="red"/>
<line x1="77" y1="454" x2="69" y2="454" stroke="red"/>
<line x1="85" y1="465" x2="77" y2="465" stroke="red"/>
<line x1="93" y1="476" x2="85" y2="476" stroke="red"/>
<line x1="101" y1="487" x2="93" y2="487" stroke="red"/>
<line x1="109" y1="499" x2="101" y2="499" stroke="red"/>
<line x1="117" y1="512" x2="109" y2="512" stroke="red"/>
<line x1="125" y1="527" x2="117" y2="527" stroke="red"/>
<line x1="85" y1="195" x2="77" y2="195" stroke="cyan"/>
<line x1="69" y1="352" x2="61" y2="352" stroke="red"/>
<line x1="77" y1="360" x2="69" y2="360" stroke="red"/>
<line x1="61" y1="342" x2="53" y2="342" stroke="red"/>
<line x1="69" y1="177" x2="61" y2="177" stroke="green"/>
<line x1="77" y1="187" x2="69" y2="187" stroke="cyan"/>
<line x1="69" y1="96" x2="61" y2="96" stroke="blue"/>
<line x1="157" y1="767" x2="149" y2="767" stroke="red"/>
<line x1="93" y1="239" x2="85" y2="239" stroke="green"/>
<line x1="53" y1="180" x2="45" y2="180" stroke="rgb(0,0,0)" stroke-width="2"/>
<line x1="61" y1="203" x2="53" y2="203" stroke="green"/>
<line x1="69" y1="230" x2="61" y2="230" stroke="green"/>
<line x1="77" y1="249" x2="69" y2="249" stroke="green"/>
<line x1="85" y1="231" x2="77" y2="231" stroke="green"/>
<line x1="77" y1="132" x2="69" y2="132" stroke="blue"/>
<line x1="85" y1="140" x2="77" y2="140" stroke="blue"/>
<line x1="45" y1="81" x2="37" y2="81" stroke="blue"/>
<line x1="53" y1="94" x2="45" y2="94" stroke="blue"/>
<line x1="61" y1="109" x2="53" y2="109" stroke="blue"/>
<line x1="69" y1="122" x2="61" y2="122" stroke="blue"/>
<line x1="21" y1="77" x2="13" y2="77" stroke="rgb(0,0,0)" stroke-width="2"/>
<line x1="29" y1="119" x2="21" y2="119" stroke="rgb(0,0,0)" stroke-width="2"/>
<line x1="37" y1="186" x2="29" y2="186" stroke="rgb(0,0,0)" stroke-width="2"/>
<line x1="45" y1="292" x2="37" y2="292" stroke="rgb(0,0,0)" stroke-width="2"/>
<line x1="53" y1="404" x2="45" y2="404" stroke="red"/>
<line x1="61" y1="467" x2="53" y2="467" stroke="red"/>
<line x1="69" y1="546" x2="61" y2="546" stroke="red"/>
<line x1="77" y1="639" x2="69" y2="639" stroke="red"/>
<line x1="85" y1="662" x2="77" y2="662" stroke="red"/>
<line x1="93" y1="684" x2="85" y2="684" stroke="red"/>
<line x1="101" y1="712" x2="93" y2="712" stroke="red"/>
<line x1="109" y1="750" x2="101" y2="750" stroke="red"/>
<line x1="117" y1="698" x2="109" y2="698" stroke="red"/>
<line x1="125" y1="711" x2="117" y2="711" stroke="red"/>
<line x1="133" y1="727" x2="125" y2="727" stroke="red"/>
<line x1="141" y1="742" x2="133" y2="742" stroke="red"/>
<line x1="149" y1="756" x2="141" y2="756" stroke="red"/>
<line x1="157" y1="745" x2="149" y2="745" stroke="red"/>
<line x1="13" y1="51" x2="5" y2="51" stroke="rgb(0,0,0)" stroke-width="2"/>
<line x1="29" y1="36" x2="21" y2="36" stroke="rgb(0,0,0)" stroke-width="2"/>
<line x1="45" y1="47" x2="37" y2="47" stroke="rgb(0,0,0)" stroke-width="2"/>
<line x1="21" y1="25" x2="13" y2="25" stroke="rgb(0,0,0)" stroke-width="2"/>
<line x1="45" y1="58" x2="37" y2="58" stroke="rgb(0,0,0)" stroke-width="2"/>
<line x1="157" y1="531" x2="149" y2="531" stroke="red"/>
<line x1="157" y1="542" x2="149" y2="542" stroke="red"/>
<line x1="157" y1="564" x2="149" y2="564" stroke="red"/>
<line x1="165" y1="586" x2="157" y2="586" stroke="red"/>
<line x1="157" y1="575" x2="149" y2="575" stroke="red"/>
<line x1="149" y1="553" x2="141" y2="553" stroke="red"/>
<line x1="149" y1="729" x2="141" y2="729" stroke="red"/>
<line x1="149" y1="707" x2="141" y2="707" stroke="red"/>
<line x1="149" y1="718" x2="141" y2="718" stroke="red"/>
<line x1="157" y1="817" x2="149" y2="817" stroke="red"/>
<line x1="149" y1="806" x2="141" y2="806" stroke="red"/>
<line x1="173" y1="828" x2="165" y2="828" stroke="red"/>
<line x1="173" y1="839" x2="165" y2="839" stroke="red"/>
<line x1="109" y1="652" x2="101" y2="652" stroke="red"/>
<line x1="101" y1="399" x2="93" y2="399" stroke="red"/>
<line x1="109" y1="674" x2="101" y2="674" stroke="red"/>
<line x1="133" y1="795" x2="125" y2="795" stroke="red"/>
<line x1="133" y1="696" x2="125" y2="696" stroke="red"/>
<line x1="85" y1="388" x2="77" y2="388" stroke="red"/>
<line x1="101" y1="410" x2="93" y2="410" stroke="red"/>
<line x1="101" y1="421" x2="93" y2="421" stroke="red"/>
<line x1="125" y1="685" x2="117" y2="685" stroke="red"/>
<line x1="125" y1="784" x2="117" y2="784" stroke="red"/>
<line x1="109" y1="663" x2="101" y2="663" stroke="red"/>
<line x1="165" y1="905" x2="157" y2="905" stroke="red"/>
<line x1="149" y1="872" x2="141" y2="872" stroke="red"/>
<line x1="173" y1="850" x2="165" y2="850" stroke="red"/>
<line x1="173" y1="861" x2="165" y2="861" stroke="red"/>
<line x1="197" y1="949" x2="189" y2="949" stroke="red"/>
<line x1="165" y1="883" x2="157" y2="883" stroke="red"/>
<line x1="173" y1="916" x2="165" y2="916" stroke="red"/>
<line x1="149" y1="520" x2="141" y2="520" stroke="red"/>
<line x1="117" y1="487" x2="109" y2="487" stroke="red"/>
<line x1="101" y1="432" x2="93" y2="432" stroke="red"/>
<line x1="125" y1="498" x2="117" y2="498" stroke="red"/>
<line x1="181" y1="927" x2="173" y2="927" stroke="red"/>
<line x1="197" y1="960" x2="189" y2="960" stroke="red"/>
<line x1="189" y1="938" x2="181" y2="938" stroke="red"/>
<line x1="93" y1="454" x2="85" y2="454" stroke="red"/>
<line x1="85" y1="355" x2="77" y2="355" stroke="red"/>
<line x1="165" y1="740" x2="157" y2="740" stroke="red"/>
<line x1="165" y1="597" x2="157" y2="597" stroke="red"/>
<line x1="101" y1="619" x2="93" y2="619" stroke="red"/>
<line x1="125" y1="289" x2="117" y2="289" stroke="rgb(0,0,0)" stroke-width="2"/>
<line x1="125" y1="311" x2="117" y2="311" stroke="rgb(0,0,0)" stroke-width="2"/>
<line x1="101" y1="267" x2="93" y2="267" stroke="rgb(0,0,0)" stroke-width="2"/>
<line x1="93" y1="256" x2="85" y2="256" stroke="rgb(0,0,0)" stroke-width="2"/>
<line x1="125" y1="322" x2="117" y2="322" stroke="rgb(0,0,0)" stroke-width="2"/>
<line x1="109" y1="278" x2="101" y2="278" stroke="rgb(0,0,0)" stroke-width="2"/>
<line x1="125" y1="300" x2="117" y2="300" stroke="rgb(0,0,0)" stroke-width="2"/>
<line x1="93" y1="641" x2="85" y2="641" stroke="red"/>
<line x1="85" y1="443" x2="77" y2="443" stroke="red"/>
<line x1="77" y1="377" x2="69" y2="377" stroke="red"/>
<line x1="101" y1="630" x2="93" y2="630" stroke="red"/>
<line x1="93" y1="608" x2="85" y2="608" stroke="red"/>
<line x1="109" y1="476" x2="101" y2="476" stroke="red"/>
<line x1="101" y1="465" x2="93" y2="465" stroke="red"/>
<line x1="77" y1="168" x2="69" y2="168" stroke="green"/>
<line x1="165" y1="894" x2="157" y2="894" stroke="red"/>
<line x1="133" y1="509" x2="125" y2="509" stroke="red"/>
<line x1="93" y1="190" x2="85" y2="190" stroke="cyan"/>
<line x1="93" y1="201" x2="85" y2="201" stroke="cyan"/>
<line x1="77" y1="344" x2="69" y2="344" stroke="red"/>
<line x1="85" y1="366" x2="77" y2="366" stroke="red"/>
<line x1="69" y1="333" x2="61" y2="333" stroke="red"/>
<line x1="77" y1="212" x2="69" y2="212" stroke="green"/>
<line x1="85" y1="179" x2="77" y2="179" stroke="cyan"/>
<line x1="93" y1="135" x2="85" y2="135" stroke="blue"/>
<line x1="77" y1="91" x2="69" y2="91" stroke="blue"/>
<line x1="61" y1="80" x2="53" y2="80" stroke="blue"/>
<line x1="85" y1="124" x2="77" y2="124" stroke="blue"/>
<line x1="77" y1="102" x2="69" y2="102" stroke="blue"/>
<line x1="53" y1="69" x2="45" y2="69" stroke="blue"/>
<line x1="61" y1="157" x2="53" y2="157" stroke="rgb(0,0,0)" stroke-width="2"/>
<line x1="165" y1="762" x2="157" y2="762" stroke="red"/>
<line x1="165" y1="773" x2="157" y2="773" stroke="red"/>
<line x1="101" y1="234" x2="93" y2="234" stroke="green"/>
<line x1="101" y1="245" x2="93" y2="245" stroke="green"/>
<line x1="93" y1="223" x2="85" y2="223" stroke="green"/>
<line x1="93" y1="146" x2="85" y2="146" stroke="blue"/>
<line x1="77" y1="113" x2="69" y2="113" stroke="rgb(0,0,0)" stroke-width="2"/>
<line x1="165" y1="751" x2="157" y2="751" stroke="rgb(0,0,0)" stroke-width="2"/>
<defs>
    <filter x="0" y="0" width="1" height="1" id="solid">
      <feFlood flood-color="white"/>
      <feComposite in="SourceGraphic"/>
    </filter>
  </defs>
<text x="35" y="37" style="stroke:rgb(0,0,0)" stroke-width="1">Diplopterygium_bancroftii</text>
<text x="51" y="48" style="stroke:rgb(0,0,0)" stroke-width="1">Dipteris_conjugata</text>
<text x="27" y="26" style="stroke:rgb(0,0,0)" stroke-width="1">Gleichenella_pectinata</text>
<text x="51" y="59" style="stroke:rgb(0,0,0)" stroke-width="1">Matonia_pectinata</text>
<text x="163" y="532" style="stroke:red" stroke-width="1">Todea_papuana</text>
<text x="163" y="543" style="stroke:red" stroke-width="1">Todea_barbara</text>
<text x="163" y="565" style="stroke:red" stroke-width="1">Leptopteris_superba</text>
<text x="171" y="587" style="stroke:red" stroke-width="1">Leptopteris_wilkesiana</text>
<text x="163" y="576" style="stroke:red" stroke-width="1">Leptopteris_hymenophylloides</text>
<text x="155" y="554" style="stroke:red" stroke-width="1">Leptopteris_fraseri</text>
<text x="155" y="730" style="stroke:red" stroke-width="1">Osmunda_regalis</text>
<text x="155" y="708" style="stroke:red" stroke-width="1">Osmunda_lancea</text>
<text x="155" y="719" style="stroke:red" stroke-width="1">Osmunda_japonica</text>
<text x="163" y="818" style="stroke:red" stroke-width="1">Plenasium_vachellii</text>
<text x="155" y="807" style="stroke:red" stroke-width="1">Plenasium_javanica</text>
<text x="179" y="829" style="stroke:red" stroke-width="1">Plenasium_bromeliifolia</text>
<text x="179" y="840" style="stroke:red" stroke-width="1">Plenasium_banksiifolia</text>
<text x="115" y="653" style="stroke:red" stroke-width="1">Claytosmunda_claytoniana</text>
<text x="107" y="400" style="stroke:red" stroke-width="1">Osmundastrum_cinnamomea</text>
<text x="115" y="675" style="stroke:red" stroke-width="1">Claytosmunda_wehrii</text>
<text x="139" y="796" style="stroke:red" stroke-width="1">Osmunda_shimokawaensis</text>
<text x="139" y="697" style="stroke:red" stroke-width="1">Osmunda_iliaensis</text>
<text x="91" y="389" style="stroke:red" stroke-width="1">Osmundastrum_cinnamomea_NeogeneJapan</text>
<text x="107" y="411" style="stroke:red" stroke-width="1">Osmundastrum_cinnamomea_NeogeneUSA</text>
<text x="107" y="422" style="stroke:red" stroke-width="1">Osmundastrum_precinnamomea</text>
<text x="131" y="686" style="stroke:red" stroke-width="1">Osmunda_pluma</text>
<text x="131" y="785" style="stroke:red" stroke-width="1">Osmunda_oregonensis</text>
<text x="115" y="664" style="stroke:red" stroke-width="1">Claytosmunda_nathorstii</text>
<text x="171" y="906" style="stroke:red" stroke-width="1">Plenasium_chandleri</text>
<text x="155" y="873" style="stroke:red" stroke-width="1">Plenasium_dowkeri_Chandler</text>
<text x="179" y="851" style="stroke:red" stroke-width="1">Plenasium_dowkeri_Miller</text>
<text x="179" y="862" style="stroke:red" stroke-width="1">Plenasium_arnoldii</text>
<text x="203" y="950" style="stroke:red" stroke-width="1">Plenasium_crossii</text>
<text x="171" y="884" style="stroke:red" stroke-width="1">Plenasium_moorei</text>
<text x="179" y="917" style="stroke:red" stroke-width="1">Plenasium_bransonii</text>
<text x="155" y="521" style="stroke:red" stroke-width="1">Todea_tidwellii</text>
<text x="123" y="488" style="stroke:red" stroke-width="1">Osmunda_kidstonii</text>
<text x="107" y="433" style="stroke:red" stroke-width="1">Osmundastrum_cinnamomea_CretaceousCanada</text>
<text x="131" y="499" style="stroke:red" stroke-width="1">Claytosmunda_embreei</text>
<text x="187" y="928" style="stroke:red" stroke-width="1">Plenasium_nebraskensis</text>
<text x="203" y="961" style="stroke:red" stroke-width="1">Plenasium_dakotensis</text>
<text x="195" y="939" style="stroke:red" stroke-width="1">Plenasium_burgii</text>
<text x="99" y="455" style="stroke:red" stroke-width="1">Claytosmunda_tekelili</text>
<text x="91" y="356" style="stroke:red" stroke-width="1">Millerocaulis_kolbei</text>
<text x="171" y="741" style="stroke:red" stroke-width="1">Millerocaulis_guptai</text>
<text x="171" y="598" style="stroke:red" stroke-width="1">Leptoperis_estipularis</text>
<text x="107" y="620" style="stroke:red" stroke-width="1">Claytosmunda_johnstonii</text>
<text x="131" y="290" style="stroke:rgb(0,0,0)" stroke-width="1">Osmundacaulis_tasmanensis</text>
<text x="131" y="312" style="stroke:rgb(0,0,0)" stroke-width="1">Osmundacaulis_richmondii</text>
<text x="107" y="268" style="stroke:rgb(0,0,0)" stroke-width="1">Osmundacaulis_pruchnickii</text>
<text x="99" y="257" style="stroke:rgb(0,0,0)" stroke-width="1">Osmundacaulis_jonesii</text>
<text x="131" y="323" style="stroke:rgb(0,0,0)" stroke-width="1">Osmundacaulis_janae</text>
<text x="115" y="279" style="stroke:rgb(0,0,0)" stroke-width="1">Osmundacaulis_griggsii</text>
<text x="131" y="301" style="stroke:rgb(0,0,0)" stroke-width="1">Osmundacaulis_andrewii</text>
<text x="99" y="642" style="stroke:red" stroke-width="1">Claytosmunda_wangii</text>
<text x="91" y="444" style="stroke:red" stroke-width="1">Claytosmunda_plumites</text>
<text x="83" y="378" style="stroke:red" stroke-width="1">Osmundastrum_pulchella</text>
<text x="107" y="631" style="stroke:red" stroke-width="1">Claytosmunda_liaoningensis</text>
<text x="99" y="609" style="stroke:red" stroke-width="1">Claytosmunda_chengii</text>
<text x="115" y="477" style="stroke:red" stroke-width="1">Claytosmunda_sinica</text>
<text x="107" y="466" style="stroke:red" stroke-width="1">Claytosmunda_preosmunda</text>
<text x="83" y="169" style="stroke:green" stroke-width="1">Lunea_jonesii</text>
<text x="171" y="895" style="stroke:red" stroke-width="1">Millerocaulis_tuhajkulensis</text>
<text x="139" y="510" style="stroke:red" stroke-width="1">Osmundastrum_indentata</text>
<text x="99" y="191" style="stroke:cyan" stroke-width="1">Itopsidema_vancleavei</text>
<text x="99" y="202" style="stroke:cyan" stroke-width="1">Donwelliacaulis_chlouberii</text>
<text x="83" y="345" style="stroke:red" stroke-width="1">Millerocaulis_lutziae</text>
<text x="91" y="367" style="stroke:red" stroke-width="1">Millerocaulis_herbstii</text>
<text x="75" y="334" style="stroke:red" stroke-width="1">Claytosmunda_beardmorensis</text>
<text x="83" y="213" style="stroke:green" stroke-width="1">Zhongmingella_plenasioides</text>
<text x="91" y="180" style="stroke:cyan" stroke-width="1">Tiania_yunnanensis</text>
<text x="99" y="136" style="stroke:blue" stroke-width="1">Thamnopteris_splendida</text>
<text x="83" y="92" style="stroke:blue" stroke-width="1">Thamnopteris_schlechtendalii</text>
<text x="67" y="81" style="stroke:blue" stroke-width="1">Thamnopteris_kidstonii</text>
<text x="91" y="125" style="stroke:blue" stroke-width="1">Thamnopteris_javorskii</text>
<text x="83" y="103" style="stroke:blue" stroke-width="1">Thamnopteris_gwynnevaughanii</text>
<text x="59" y="70" style="stroke:blue" stroke-width="1">Thamnopteris_gracilis</text>
<text x="67" y="158" style="stroke:rgb(0,0,0)" stroke-width="1">Shuichengella_primitiva</text>
<text x="171" y="763" style="stroke:red" stroke-width="1">Palaeosmunda_williamsii</text>
<text x="171" y="774" style="stroke:red" stroke-width="1">Palaeosmunda_playfordii</text>
<text x="107" y="235" style="stroke:green" stroke-width="1">Guairea_millerii</text>
<text x="107" y="246" style="stroke:green" stroke-width="1">Guairea_carnierii</text>
<text x="99" y="224" style="stroke:green" stroke-width="1">Guairea_brasiliensis</text>
<text x="99" y="147" style="stroke:blue" stroke-width="1">Chasmatopteris_principalis</text>
<text x="83" y="114" style="stroke:rgb(0,0,0)" stroke-width="1">Bathypteris_rhomboidea</text>
<text x="171" y="752" style="stroke:rgb(0,0,0)" stroke-width="1">Anomorrhoea_fischeri</text>
</g>
<g stroke-width="2" stroke="black" font-family="Verdana" font-style="regular" font-size="5">
</g>
</svg>
