<?xml version="1.0"?>
<svg width="443" height="1438" xmlns="http://www.w3.org/2000/svg">
<g stroke-width="2" stroke="black" font-family="Verdana" font-size="5">
<text x="10" y="1423" stroke-width="1"> xpi5_dep_reduced_consensus</text>
<line x1="37" y1="52" x2="37" y2="59"  stroke="rgb(0,0,0)" stroke-width="2"/>
<line x1="37" y1="52" x2="37" y2="46"  stroke="rgb(0,0,0)" stroke-width="2"/>
<line x1="125" y1="877" x2="125" y2="883"  stroke="red"/>
<line x1="125" y1="872" x2="125" y2="877"  stroke="red"/>
<line x1="141" y1="272" x2="141" y2="278"  stroke="red"/>
<line x1="141" y1="267" x2="141" y2="272"  stroke="red"/>
<line x1="149" y1="440" x2="149" y2="448"  stroke="red"/>
<line x1="149" y1="432" x2="149" y2="440"  stroke="red"/>
<line x1="157" y1="448" x2="157" y2="454"  stroke="red"/>
<line x1="157" y1="443" x2="157" y2="448"  stroke="red"/>
<line x1="213" y1="624" x2="213" y2="630"  stroke="red"/>
<line x1="213" y1="619" x2="213" y2="624"  stroke="red"/>
<line x1="141" y1="430" x2="141" y2="440"  stroke="red"/>
<line x1="141" y1="421" x2="141" y2="430"  stroke="red"/>
<line x1="101" y1="162" x2="101" y2="168"  stroke="red"/>
<line x1="101" y1="157" x2="101" y2="162"  stroke="red"/>
<line x1="181" y1="597" x2="181" y2="609"  stroke="red"/>
<line x1="181" y1="586" x2="181" y2="597"  stroke="red"/>
<line x1="189" y1="609" x2="189" y2="621"  stroke="red"/>
<line x1="189" y1="597" x2="189" y2="609"  stroke="red"/>
<line x1="197" y1="621" x2="197" y2="635"  stroke="red"/>
<line x1="197" y1="608" x2="197" y2="621"  stroke="red"/>
<line x1="205" y1="635" x2="205" y2="646"  stroke="red"/>
<line x1="205" y1="624" x2="205" y2="635"  stroke="red"/>
<line x1="213" y1="646" x2="213" y2="652"  stroke="red"/>
<line x1="213" y1="641" x2="213" y2="646"  stroke="red"/>
<line x1="133" y1="264" x2="133" y2="272"  stroke="red"/>
<line x1="133" y1="256" x2="133" y2="264"  stroke="red"/>
<line x1="189" y1="1163" x2="189" y2="1170"  stroke="rgb(0,0,0)" stroke-width="2"/>
<line x1="189" y1="1163" x2="189" y2="1157"  stroke="rgb(0,0,0)" stroke-width="2"/>
<line x1="85" y1="159" x2="85" y2="173"  stroke="red"/>
<line x1="85" y1="146" x2="85" y2="159"  stroke="red"/>
<line x1="93" y1="173" x2="93" y2="184"  stroke="red"/>
<line x1="93" y1="162" x2="93" y2="173"  stroke="red"/>
<line x1="101" y1="184" x2="101" y2="190"  stroke="red"/>
<line x1="101" y1="179" x2="101" y2="184"  stroke="red"/>
<line x1="173" y1="525" x2="173" y2="531"  stroke="red"/>
<line x1="173" y1="520" x2="173" y2="525"  stroke="red"/>
<line x1="165" y1="549" x2="165" y2="574"  stroke="red"/>
<line x1="165" y1="525" x2="165" y2="549"  stroke="red"/>
<line x1="173" y1="574" x2="173" y2="597"  stroke="red"/>
<line x1="173" y1="551" x2="173" y2="574"  stroke="red"/>
<line x1="181" y1="551" x2="181" y2="561"  stroke="red"/>
<line x1="181" y1="542" x2="181" y2="551"  stroke="red"/>
<line x1="189" y1="561" x2="189" y2="569"  stroke="red"/>
<line x1="189" y1="553" x2="189" y2="561"  stroke="red"/>
<line x1="197" y1="569" x2="197" y2="575"  stroke="red"/>
<line x1="197" y1="564" x2="197" y2="569"  stroke="red"/>
<line x1="125" y1="281" x2="125" y2="299"  stroke="red"/>
<line x1="125" y1="264" x2="125" y2="281"  stroke="red"/>
<line x1="133" y1="299" x2="133" y2="309"  stroke="red"/>
<line x1="133" y1="289" x2="133" y2="299"  stroke="red"/>
<line x1="141" y1="309" x2="141" y2="319"  stroke="red"/>
<line x1="141" y1="300" x2="141" y2="309"  stroke="red"/>
<line x1="149" y1="319" x2="149" y2="327"  stroke="red"/>
<line x1="149" y1="311" x2="149" y2="319"  stroke="red"/>
<line x1="157" y1="327" x2="157" y2="333"  stroke="red"/>
<line x1="157" y1="322" x2="157" y2="327"  stroke="red"/>
<line x1="237" y1="1240" x2="237" y2="1247"  stroke="rgb(0,0,0)" stroke-width="2"/>
<line x1="237" y1="1240" x2="237" y2="1234"  stroke="rgb(0,0,0)" stroke-width="2"/>
<line x1="229" y1="1251" x2="229" y2="1263"  stroke="rgb(0,0,0)" stroke-width="2"/>
<line x1="229" y1="1251" x2="229" y2="1239"  stroke="rgb(0,0,0)" stroke-width="2"/>
<line x1="237" y1="1262" x2="237" y2="1269"  stroke="rgb(0,0,0)" stroke-width="2"/>
<line x1="237" y1="1262" x2="237" y2="1256"  stroke="rgb(0,0,0)" stroke-width="2"/>
<line x1="181" y1="1177" x2="181" y2="1192"  stroke="rgb(0,0,0)" stroke-width="2"/>
<line x1="181" y1="1177" x2="181" y2="1162"  stroke="rgb(0,0,0)" stroke-width="2"/>
<line x1="189" y1="1191" x2="189" y2="1203"  stroke="rgb(0,0,0)" stroke-width="2"/>
<line x1="189" y1="1191" x2="189" y2="1179"  stroke="rgb(0,0,0)" stroke-width="2"/>
<line x1="197" y1="1202" x2="197" y2="1214"  stroke="rgb(0,0,0)" stroke-width="2"/>
<line x1="197" y1="1202" x2="197" y2="1190"  stroke="rgb(0,0,0)" stroke-width="2"/>
<line x1="205" y1="1213" x2="205" y2="1226"  stroke="rgb(0,0,0)" stroke-width="2"/>
<line x1="205" y1="1213" x2="205" y2="1201"  stroke="rgb(0,0,0)" stroke-width="2"/>
<line x1="213" y1="1225" x2="213" y2="1238"  stroke="rgb(0,0,0)" stroke-width="2"/>
<line x1="213" y1="1225" x2="213" y2="1212"  stroke="rgb(0,0,0)" stroke-width="2"/>
<line x1="221" y1="1237" x2="221" y2="1252"  stroke="rgb(0,0,0)" stroke-width="2"/>
<line x1="221" y1="1237" x2="221" y2="1223"  stroke="rgb(0,0,0)" stroke-width="2"/>
<line x1="165" y1="1118" x2="165" y2="1146"  stroke="rgb(0,0,0)" stroke-width="2"/>
<line x1="165" y1="1118" x2="165" y2="1091"  stroke="rgb(0,0,0)" stroke-width="2"/>
<line x1="173" y1="1145" x2="173" y2="1178"  stroke="rgb(0,0,0)" stroke-width="2"/>
<line x1="173" y1="1145" x2="173" y2="1112"  stroke="rgb(0,0,0)" stroke-width="2"/>
<line x1="181" y1="1113" x2="181" y2="1124"  stroke="rgb(0,0,0)" stroke-width="2"/>
<line x1="181" y1="1113" x2="181" y2="1102"  stroke="rgb(0,0,0)" stroke-width="2"/>
<line x1="189" y1="1123" x2="189" y2="1134"  stroke="rgb(0,0,0)" stroke-width="2"/>
<line x1="189" y1="1123" x2="189" y2="1113"  stroke="rgb(0,0,0)" stroke-width="2"/>
<line x1="197" y1="1133" x2="197" y2="1142"  stroke="rgb(0,0,0)" stroke-width="2"/>
<line x1="197" y1="1133" x2="197" y2="1124"  stroke="rgb(0,0,0)" stroke-width="2"/>
<line x1="205" y1="1141" x2="205" y2="1148"  stroke="rgb(0,0,0)" stroke-width="2"/>
<line x1="205" y1="1141" x2="205" y2="1135"  stroke="rgb(0,0,0)" stroke-width="2"/>
<line x1="77" y1="147" x2="77" y2="159"  stroke="red"/>
<line x1="77" y1="135" x2="77" y2="147"  stroke="red"/>
<line x1="157" y1="481" x2="157" y2="487"  stroke="red"/>
<line x1="157" y1="476" x2="157" y2="481"  stroke="red"/>
<line x1="117" y1="861" x2="117" y2="904"  stroke="red"/>
<line x1="125" y1="904" x2="125" y2="915"  stroke="red"/>
<line x1="125" y1="894" x2="125" y2="904"  stroke="red"/>
<line x1="133" y1="915" x2="133" y2="926"  stroke="red"/>
<line x1="133" y1="905" x2="133" y2="915"  stroke="red"/>
<line x1="141" y1="926" x2="141" y2="937"  stroke="red"/>
<line x1="141" y1="916" x2="141" y2="926"  stroke="red"/>
<line x1="149" y1="937" x2="149" y2="947"  stroke="red"/>
<line x1="149" y1="927" x2="149" y2="937"  stroke="red"/>
<line x1="157" y1="947" x2="157" y2="957"  stroke="red"/>
<line x1="157" y1="938" x2="157" y2="947"  stroke="red"/>
<line x1="165" y1="957" x2="165" y2="965"  stroke="red"/>
<line x1="165" y1="949" x2="165" y2="957"  stroke="red"/>
<line x1="173" y1="965" x2="173" y2="971"  stroke="red"/>
<line x1="173" y1="960" x2="173" y2="965"  stroke="red"/>
<line x1="85" y1="212" x2="85" y2="223"  stroke="red"/>
<line x1="85" y1="201" x2="85" y2="212"  stroke="red"/>
<line x1="93" y1="223" x2="93" y2="235"  stroke="red"/>
<line x1="93" y1="212" x2="93" y2="223"  stroke="red"/>
<line x1="101" y1="235" x2="101" y2="248"  stroke="red"/>
<line x1="101" y1="223" x2="101" y2="235"  stroke="red"/>
<line x1="109" y1="248" x2="109" y2="263"  stroke="red"/>
<line x1="109" y1="234" x2="109" y2="248"  stroke="red"/>
<line x1="117" y1="263" x2="117" y2="281"  stroke="red"/>
<line x1="117" y1="245" x2="117" y2="263"  stroke="red"/>
<line x1="61" y1="96" x2="61" y2="102"  stroke="cyan"/>
<line x1="61" y1="91" x2="61" y2="96"  stroke="cyan"/>
<line x1="133" y1="998" x2="133" y2="1004"  stroke="red"/>
<line x1="133" y1="993" x2="133" y2="998"  stroke="red"/>
<line x1="45" y1="78" x2="45" y2="88"  stroke="cyan"/>
<line x1="45" y1="69" x2="45" y2="78"  stroke="green"/>
<line x1="53" y1="88" x2="53" y2="96"  stroke="cyan"/>
<line x1="53" y1="80" x2="53" y2="88"  stroke="cyan"/>
<line x1="125" y1="737" x2="125" y2="745"  stroke="blue"/>
<line x1="125" y1="729" x2="125" y2="737"  stroke="blue"/>
<line x1="133" y1="745" x2="133" y2="751"  stroke="blue"/>
<line x1="133" y1="740" x2="133" y2="745"  stroke="blue"/>
<line x1="157" y1="1042" x2="157" y2="1049"  stroke="rgb(0,0,0)" stroke-width="2"/>
<line x1="157" y1="1037" x2="157" y2="1042"  stroke="green"/>
<line x1="61" y1="169" x2="61" y2="215"  stroke="red"/>
<line x1="61" y1="124" x2="61" y2="169"  stroke="red"/>
<line x1="69" y1="215" x2="69" y2="283"  stroke="red"/>
<line x1="69" y1="147" x2="69" y2="215"  stroke="red"/>
<line x1="77" y1="283" x2="77" y2="355"  stroke="red"/>
<line x1="77" y1="212" x2="77" y2="283"  stroke="red"/>
<line x1="85" y1="355" x2="85" y2="367"  stroke="red"/>
<line x1="85" y1="344" x2="85" y2="355"  stroke="red"/>
<line x1="93" y1="367" x2="93" y2="379"  stroke="red"/>
<line x1="93" y1="355" x2="93" y2="367"  stroke="red"/>
<line x1="101" y1="379" x2="101" y2="392"  stroke="red"/>
<line x1="101" y1="366" x2="101" y2="379"  stroke="red"/>
<line x1="109" y1="392" x2="109" y2="408"  stroke="red"/>
<line x1="109" y1="377" x2="109" y2="392"  stroke="red"/>
<line x1="117" y1="408" x2="117" y2="428"  stroke="red"/>
<line x1="117" y1="388" x2="117" y2="408"  stroke="red"/>
<line x1="125" y1="399" x2="125" y2="457"  stroke="red"/>
<line x1="133" y1="457" x2="133" y2="484"  stroke="red"/>
<line x1="133" y1="430" x2="133" y2="457"  stroke="red"/>
<line x1="141" y1="484" x2="141" y2="503"  stroke="red"/>
<line x1="141" y1="465" x2="141" y2="484"  stroke="red"/>
<line x1="149" y1="503" x2="149" y2="526"  stroke="red"/>
<line x1="149" y1="481" x2="149" y2="503"  stroke="red"/>
<line x1="157" y1="526" x2="157" y2="549"  stroke="red"/>
<line x1="157" y1="503" x2="157" y2="526"  stroke="red"/>
<line x1="165" y1="503" x2="165" y2="509"  stroke="red"/>
<line x1="165" y1="498" x2="165" y2="503"  stroke="red"/>
<line x1="173" y1="1075" x2="173" y2="1081"  stroke="green"/>
<line x1="173" y1="1070" x2="173" y2="1075"  stroke="green"/>
<line x1="69" y1="807" x2="69" y2="820"  stroke="red"/>
<line x1="69" y1="795" x2="69" y2="807"  stroke="red"/>
<line x1="77" y1="820" x2="77" y2="835"  stroke="red"/>
<line x1="77" y1="806" x2="77" y2="820"  stroke="red"/>
<line x1="85" y1="835" x2="85" y2="854"  stroke="red"/>
<line x1="85" y1="817" x2="85" y2="835"  stroke="red"/>
<line x1="93" y1="854" x2="93" y2="881"  stroke="red"/>
<line x1="93" y1="828" x2="93" y2="854"  stroke="red"/>
<line x1="101" y1="881" x2="101" y2="924"  stroke="red"/>
<line x1="101" y1="839" x2="101" y2="881"  stroke="red"/>
<line x1="109" y1="850" x2="109" y2="998"  stroke="red"/>
<line x1="117" y1="998" x2="117" y2="1014"  stroke="red"/>
<line x1="117" y1="982" x2="117" y2="998"  stroke="red"/>
<line x1="125" y1="1014" x2="125" y2="1030"  stroke="red"/>
<line x1="125" y1="998" x2="125" y2="1014"  stroke="red"/>
<line x1="133" y1="1030" x2="133" y2="1046"  stroke="red"/>
<line x1="133" y1="1015" x2="133" y2="1030"  stroke="red"/>
<line x1="141" y1="1046" x2="141" y2="1068"  stroke="rgb(0,0,0)" stroke-width="2"/>
<line x1="141" y1="1026" x2="141" y2="1046"  stroke="red"/>
<line x1="149" y1="1067" x2="149" y2="1093"  stroke="rgb(0,0,0)" stroke-width="2"/>
<line x1="149" y1="1067" x2="149" y2="1041"  stroke="rgb(0,0,0)" stroke-width="2"/>
<line x1="157" y1="1092" x2="157" y2="1119"  stroke="rgb(0,0,0)" stroke-width="2"/>
<line x1="157" y1="1067" x2="157" y2="1092"  stroke="green"/>
<line x1="165" y1="1067" x2="165" y2="1075"  stroke="green"/>
<line x1="165" y1="1059" x2="165" y2="1067"  stroke="green"/>
<line x1="21" y1="76" x2="21" y2="117"  stroke="rgb(0,0,0)" stroke-width="2"/>
<line x1="21" y1="76" x2="21" y2="35"  stroke="rgb(0,0,0)" stroke-width="2"/>
<line x1="29" y1="116" x2="29" y2="181"  stroke="rgb(0,0,0)" stroke-width="2"/>
<line x1="29" y1="116" x2="29" y2="51"  stroke="rgb(0,0,0)" stroke-width="2"/>
<line x1="37" y1="180" x2="37" y2="283"  stroke="red"/>
<line x1="37" y1="180" x2="37" y2="77"  stroke="rgb(0,0,0)" stroke-width="2"/>
<line x1="45" y1="283" x2="45" y2="454"  stroke="red"/>
<line x1="45" y1="113" x2="45" y2="283"  stroke="red"/>
<line x1="53" y1="454" x2="53" y2="740"  stroke="red"/>
<line x1="53" y1="169" x2="53" y2="454"  stroke="red"/>
<line x1="61" y1="740" x2="61" y2="807"  stroke="red"/>
<line x1="61" y1="674" x2="61" y2="740"  stroke="red"/>
<line x1="69" y1="674" x2="69" y2="685"  stroke="red"/>
<line x1="69" y1="674" x2="69" y2="662"  stroke="rgb(0,0,0)" stroke-width="2"/>
<line x1="77" y1="685" x2="77" y2="696"  stroke="blue"/>
<line x1="77" y1="674" x2="77" y2="685"  stroke="red"/>
<line x1="85" y1="696" x2="85" y2="708"  stroke="blue"/>
<line x1="85" y1="685" x2="85" y2="696"  stroke="blue"/>
<line x1="93" y1="708" x2="93" y2="721"  stroke="blue"/>
<line x1="93" y1="696" x2="93" y2="708"  stroke="blue"/>
<line x1="101" y1="721" x2="101" y2="735"  stroke="blue"/>
<line x1="101" y1="707" x2="101" y2="721"  stroke="blue"/>
<line x1="109" y1="735" x2="109" y2="753"  stroke="blue"/>
<line x1="109" y1="718" x2="109" y2="735"  stroke="blue"/>
<line x1="117" y1="753" x2="117" y2="770"  stroke="blue"/>
<line x1="117" y1="737" x2="117" y2="753"  stroke="blue"/>
<line x1="125" y1="770" x2="125" y2="778"  stroke="blue"/>
<line x1="125" y1="762" x2="125" y2="770"  stroke="blue"/>
<line x1="133" y1="778" x2="133" y2="785"  stroke="rgb(0,0,0)" stroke-width="2"/>
<line x1="133" y1="773" x2="133" y2="778"  stroke="blue"/>
<line x1="13" y1="50" x2="13" y2="77"  stroke="rgb(0,0,0)" stroke-width="2"/>
<line x1="13" y1="50" x2="13" y2="24"  stroke="rgb(0,0,0)" stroke-width="2"/>
<line x1="37" y1="52" x2="29" y2="52" stroke="rgb(0,0,0)" stroke-width="2"/>
<line x1="125" y1="877" x2="117" y2="877" stroke="red"/>
<line x1="141" y1="272" x2="133" y2="272" stroke="red"/>
<line x1="149" y1="440" x2="141" y2="440" stroke="red"/>
<line x1="157" y1="448" x2="149" y2="448" stroke="red"/>
<line x1="213" y1="624" x2="205" y2="624" stroke="red"/>
<line x1="141" y1="430" x2="133" y2="430" stroke="red"/>
<line x1="101" y1="162" x2="93" y2="162" stroke="red"/>
<line x1="181" y1="597" x2="173" y2="597" stroke="red"/>
<line x1="189" y1="609" x2="181" y2="609" stroke="red"/>
<line x1="197" y1="621" x2="189" y2="621" stroke="red"/>
<line x1="205" y1="635" x2="197" y2="635" stroke="red"/>
<line x1="213" y1="646" x2="205" y2="646" stroke="red"/>
<line x1="133" y1="264" x2="125" y2="264" stroke="red"/>
<line x1="189" y1="1163" x2="181" y2="1163" stroke="rgb(0,0,0)" stroke-width="2"/>
<line x1="85" y1="159" x2="77" y2="159" stroke="red"/>
<line x1="93" y1="173" x2="85" y2="173" stroke="red"/>
<line x1="101" y1="184" x2="93" y2="184" stroke="red"/>
<line x1="173" y1="525" x2="165" y2="525" stroke="red"/>
<line x1="165" y1="549" x2="157" y2="549" stroke="red"/>
<line x1="173" y1="574" x2="165" y2="574" stroke="red"/>
<line x1="181" y1="551" x2="173" y2="551" stroke="red"/>
<line x1="189" y1="561" x2="181" y2="561" stroke="red"/>
<line x1="197" y1="569" x2="189" y2="569" stroke="red"/>
<line x1="125" y1="281" x2="117" y2="281" stroke="red"/>
<line x1="133" y1="299" x2="125" y2="299" stroke="red"/>
<line x1="141" y1="309" x2="133" y2="309" stroke="red"/>
<line x1="149" y1="319" x2="141" y2="319" stroke="red"/>
<line x1="157" y1="327" x2="149" y2="327" stroke="red"/>
<line x1="237" y1="1240" x2="229" y2="1240" stroke="rgb(0,0,0)" stroke-width="2"/>
<line x1="229" y1="1251" x2="221" y2="1251" stroke="rgb(0,0,0)" stroke-width="2"/>
<line x1="237" y1="1262" x2="229" y2="1262" stroke="rgb(0,0,0)" stroke-width="2"/>
<line x1="181" y1="1177" x2="173" y2="1177" stroke="rgb(0,0,0)" stroke-width="2"/>
<line x1="189" y1="1191" x2="181" y2="1191" stroke="rgb(0,0,0)" stroke-width="2"/>
<line x1="197" y1="1202" x2="189" y2="1202" stroke="rgb(0,0,0)" stroke-width="2"/>
<line x1="205" y1="1213" x2="197" y2="1213" stroke="rgb(0,0,0)" stroke-width="2"/>
<line x1="213" y1="1225" x2="205" y2="1225" stroke="rgb(0,0,0)" stroke-width="2"/>
<line x1="221" y1="1237" x2="213" y2="1237" stroke="rgb(0,0,0)" stroke-width="2"/>
<line x1="165" y1="1118" x2="157" y2="1118" stroke="rgb(0,0,0)" stroke-width="2"/>
<line x1="173" y1="1145" x2="165" y2="1145" stroke="rgb(0,0,0)" stroke-width="2"/>
<line x1="181" y1="1113" x2="173" y2="1113" stroke="rgb(0,0,0)" stroke-width="2"/>
<line x1="189" y1="1123" x2="181" y2="1123" stroke="rgb(0,0,0)" stroke-width="2"/>
<line x1="197" y1="1133" x2="189" y2="1133" stroke="rgb(0,0,0)" stroke-width="2"/>
<line x1="205" y1="1141" x2="197" y2="1141" stroke="rgb(0,0,0)" stroke-width="2"/>
<line x1="77" y1="147" x2="69" y2="147" stroke="red"/>
<line x1="157" y1="481" x2="149" y2="481" stroke="red"/>
<line x1="117" y1="882" x2="109" y2="882" stroke="red"/>
<line x1="125" y1="904" x2="117" y2="904" stroke="red"/>
<line x1="133" y1="915" x2="125" y2="915" stroke="red"/>
<line x1="141" y1="926" x2="133" y2="926" stroke="red"/>
<line x1="149" y1="937" x2="141" y2="937" stroke="red"/>
<line x1="157" y1="947" x2="149" y2="947" stroke="red"/>
<line x1="165" y1="957" x2="157" y2="957" stroke="red"/>
<line x1="173" y1="965" x2="165" y2="965" stroke="red"/>
<line x1="85" y1="212" x2="77" y2="212" stroke="red"/>
<line x1="93" y1="223" x2="85" y2="223" stroke="red"/>
<line x1="101" y1="235" x2="93" y2="235" stroke="red"/>
<line x1="109" y1="248" x2="101" y2="248" stroke="red"/>
<line x1="117" y1="263" x2="109" y2="263" stroke="red"/>
<line x1="61" y1="96" x2="53" y2="96" stroke="cyan"/>
<line x1="133" y1="998" x2="125" y2="998" stroke="red"/>
<line x1="45" y1="78" x2="37" y2="78" stroke="rgb(0,0,0)" stroke-width="2"/>
<line x1="53" y1="88" x2="45" y2="88" stroke="cyan"/>
<line x1="125" y1="737" x2="117" y2="737" stroke="blue"/>
<line x1="133" y1="745" x2="125" y2="745" stroke="blue"/>
<line x1="157" y1="1042" x2="149" y2="1042" stroke="rgb(0,0,0)" stroke-width="2"/>
<line x1="61" y1="169" x2="53" y2="169" stroke="red"/>
<line x1="69" y1="215" x2="61" y2="215" stroke="red"/>
<line x1="77" y1="283" x2="69" y2="283" stroke="red"/>
<line x1="85" y1="355" x2="77" y2="355" stroke="red"/>
<line x1="93" y1="367" x2="85" y2="367" stroke="red"/>
<line x1="101" y1="379" x2="93" y2="379" stroke="red"/>
<line x1="109" y1="392" x2="101" y2="392" stroke="red"/>
<line x1="117" y1="408" x2="109" y2="408" stroke="red"/>
<line x1="125" y1="428" x2="117" y2="428" stroke="red"/>
<line x1="133" y1="457" x2="125" y2="457" stroke="red"/>
<line x1="141" y1="484" x2="133" y2="484" stroke="red"/>
<line x1="149" y1="503" x2="141" y2="503" stroke="red"/>
<line x1="157" y1="526" x2="149" y2="526" stroke="red"/>
<line x1="165" y1="503" x2="157" y2="503" stroke="red"/>
<line x1="173" y1="1075" x2="165" y2="1075" stroke="green"/>
<line x1="69" y1="807" x2="61" y2="807" stroke="red"/>
<line x1="77" y1="820" x2="69" y2="820" stroke="red"/>
<line x1="85" y1="835" x2="77" y2="835" stroke="red"/>
<line x1="93" y1="854" x2="85" y2="854" stroke="red"/>
<line x1="101" y1="881" x2="93" y2="881" stroke="red"/>
<line x1="109" y1="924" x2="101" y2="924" stroke="red"/>
<line x1="117" y1="998" x2="109" y2="998" stroke="red"/>
<line x1="125" y1="1014" x2="117" y2="1014" stroke="red"/>
<line x1="133" y1="1030" x2="125" y2="1030" stroke="red"/>
<line x1="141" y1="1046" x2="133" y2="1046" stroke="red"/>
<line x1="149" y1="1067" x2="141" y2="1067" stroke="rgb(0,0,0)" stroke-width="2"/>
<line x1="157" y1="1092" x2="149" y2="1092" stroke="rgb(0,0,0)" stroke-width="2"/>
<line x1="165" y1="1067" x2="157" y2="1067" stroke="green"/>
<line x1="21" y1="76" x2="13" y2="76" stroke="rgb(0,0,0)" stroke-width="2"/>
<line x1="29" y1="116" x2="21" y2="116" stroke="rgb(0,0,0)" stroke-width="2"/>
<line x1="37" y1="180" x2="29" y2="180" stroke="rgb(0,0,0)" stroke-width="2"/>
<line x1="45" y1="283" x2="37" y2="283" stroke="red"/>
<line x1="53" y1="454" x2="45" y2="454" stroke="red"/>
<line x1="61" y1="740" x2="53" y2="740" stroke="red"/>
<line x1="69" y1="674" x2="61" y2="674" stroke="red"/>
<line x1="77" y1="685" x2="69" y2="685" stroke="red"/>
<line x1="85" y1="696" x2="77" y2="696" stroke="blue"/>
<line x1="93" y1="708" x2="85" y2="708" stroke="blue"/>
<line x1="101" y1="721" x2="93" y2="721" stroke="blue"/>
<line x1="109" y1="735" x2="101" y2="735" stroke="blue"/>
<line x1="117" y1="753" x2="109" y2="753" stroke="blue"/>
<line x1="125" y1="770" x2="117" y2="770" stroke="blue"/>
<line x1="133" y1="778" x2="125" y2="778" stroke="blue"/>
<line x1="13" y1="50" x2="5" y2="50" stroke="rgb(0,0,0)" stroke-width="2"/>
<line x1="29" y1="36" x2="21" y2="36" stroke="rgb(0,0,0)" stroke-width="2"/>
<line x1="45" y1="47" x2="37" y2="47" stroke="rgb(0,0,0)" stroke-width="2"/>
<line x1="21" y1="25" x2="13" y2="25" stroke="rgb(0,0,0)" stroke-width="2"/>
<line x1="45" y1="58" x2="37" y2="58" stroke="rgb(0,0,0)" stroke-width="2"/>
<line x1="133" y1="872" x2="125" y2="872" stroke="red"/>
<line x1="133" y1="883" x2="125" y2="883" stroke="red"/>
<line x1="221" y1="1213" x2="213" y2="1213" stroke="rgb(0,0,0)" stroke-width="2"/>
<line x1="149" y1="267" x2="141" y2="267" stroke="red"/>
<line x1="149" y1="278" x2="141" y2="278" stroke="red"/>
<line x1="157" y1="311" x2="149" y2="311" stroke="red"/>
<line x1="165" y1="322" x2="157" y2="322" stroke="red"/>
<line x1="149" y1="300" x2="141" y2="300" stroke="red"/>
<line x1="141" y1="289" x2="133" y2="289" stroke="red"/>
<line x1="157" y1="432" x2="149" y2="432" stroke="red"/>
<line x1="165" y1="443" x2="157" y2="443" stroke="red"/>
<line x1="165" y1="454" x2="157" y2="454" stroke="red"/>
<line x1="205" y1="608" x2="197" y2="608" stroke="red"/>
<line x1="197" y1="597" x2="189" y2="597" stroke="red"/>
<line x1="221" y1="619" x2="213" y2="619" stroke="red"/>
<line x1="221" y1="630" x2="213" y2="630" stroke="red"/>
<line x1="109" y1="157" x2="101" y2="157" stroke="red"/>
<line x1="125" y1="388" x2="117" y2="388" stroke="red"/>
<line x1="149" y1="465" x2="141" y2="465" stroke="red"/>
<line x1="149" y1="421" x2="141" y2="421" stroke="red"/>
<line x1="93" y1="146" x2="85" y2="146" stroke="red"/>
<line x1="109" y1="168" x2="101" y2="168" stroke="red"/>
<line x1="109" y1="179" x2="101" y2="179" stroke="red"/>
<line x1="133" y1="399" x2="125" y2="399" stroke="red"/>
<line x1="133" y1="410" x2="125" y2="410" stroke="red"/>
<line x1="117" y1="377" x2="109" y2="377" stroke="red"/>
<line x1="189" y1="542" x2="181" y2="542" stroke="red"/>
<line x1="189" y1="586" x2="181" y2="586" stroke="red"/>
<line x1="221" y1="641" x2="213" y2="641" stroke="red"/>
<line x1="221" y1="652" x2="213" y2="652" stroke="red"/>
<line x1="181" y1="520" x2="173" y2="520" stroke="red"/>
<line x1="149" y1="1026" x2="141" y2="1026" stroke="red"/>
<line x1="197" y1="553" x2="189" y2="553" stroke="red"/>
<line x1="141" y1="256" x2="133" y2="256" stroke="red"/>
<line x1="205" y1="1191" x2="197" y2="1191" stroke="rgb(0,0,0)" stroke-width="2"/>
<line x1="197" y1="1180" x2="189" y2="1180" stroke="rgb(0,0,0)" stroke-width="2"/>
<line x1="197" y1="1158" x2="189" y2="1158" stroke="rgb(0,0,0)" stroke-width="2"/>
<line x1="197" y1="1169" x2="189" y2="1169" stroke="rgb(0,0,0)" stroke-width="2"/>
<line x1="109" y1="223" x2="101" y2="223" stroke="red"/>
<line x1="109" y1="190" x2="101" y2="190" stroke="red"/>
<line x1="117" y1="234" x2="109" y2="234" stroke="red"/>
<line x1="205" y1="564" x2="197" y2="564" stroke="red"/>
<line x1="181" y1="531" x2="173" y2="531" stroke="red"/>
<line x1="205" y1="575" x2="197" y2="575" stroke="red"/>
<line x1="53" y1="113" x2="45" y2="113" stroke="red"/>
<line x1="141" y1="905" x2="133" y2="905" stroke="red"/>
<line x1="85" y1="806" x2="77" y2="806" stroke="red"/>
<line x1="85" y1="674" x2="77" y2="674" stroke="red"/>
<line x1="181" y1="960" x2="173" y2="960" stroke="red"/>
<line x1="117" y1="850" x2="109" y2="850" stroke="red"/>
<line x1="165" y1="938" x2="157" y2="938" stroke="red"/>
<line x1="165" y1="333" x2="157" y2="333" stroke="red"/>
<line x1="213" y1="1202" x2="205" y2="1202" stroke="rgb(0,0,0)" stroke-width="2"/>
<line x1="245" y1="1235" x2="237" y2="1235" stroke="rgb(0,0,0)" stroke-width="2"/>
<line x1="245" y1="1257" x2="237" y2="1257" stroke="rgb(0,0,0)" stroke-width="2"/>
<line x1="165" y1="476" x2="157" y2="476" stroke="red"/>
<line x1="205" y1="1125" x2="197" y2="1125" stroke="rgb(0,0,0)" stroke-width="2"/>
<line x1="213" y1="1136" x2="205" y2="1136" stroke="rgb(0,0,0)" stroke-width="2"/>
<line x1="189" y1="1103" x2="181" y2="1103" stroke="rgb(0,0,0)" stroke-width="2"/>
<line x1="245" y1="1246" x2="237" y2="1246" stroke="rgb(0,0,0)" stroke-width="2"/>
<line x1="245" y1="1268" x2="237" y2="1268" stroke="rgb(0,0,0)" stroke-width="2"/>
<line x1="173" y1="1092" x2="165" y2="1092" stroke="rgb(0,0,0)" stroke-width="2"/>
<line x1="77" y1="663" x2="69" y2="663" stroke="rgb(0,0,0)" stroke-width="2"/>
<line x1="229" y1="1224" x2="221" y2="1224" stroke="rgb(0,0,0)" stroke-width="2"/>
<line x1="197" y1="1114" x2="189" y2="1114" stroke="rgb(0,0,0)" stroke-width="2"/>
<line x1="213" y1="1147" x2="205" y2="1147" stroke="rgb(0,0,0)" stroke-width="2"/>
<line x1="109" y1="366" x2="101" y2="366" stroke="red"/>
<line x1="93" y1="344" x2="85" y2="344" stroke="red"/>
<line x1="85" y1="135" x2="77" y2="135" stroke="red"/>
<line x1="165" y1="487" x2="157" y2="487" stroke="red"/>
<line x1="101" y1="355" x2="93" y2="355" stroke="red"/>
<line x1="101" y1="212" x2="93" y2="212" stroke="red"/>
<line x1="93" y1="201" x2="85" y2="201" stroke="red"/>
<line x1="125" y1="982" x2="117" y2="982" stroke="red"/>
<line x1="53" y1="69" x2="45" y2="69" stroke="green"/>
<line x1="93" y1="817" x2="85" y2="817" stroke="red"/>
<line x1="109" y1="839" x2="101" y2="839" stroke="red"/>
<line x1="101" y1="828" x2="93" y2="828" stroke="red"/>
<line x1="149" y1="916" x2="141" y2="916" stroke="red"/>
<line x1="125" y1="861" x2="117" y2="861" stroke="red"/>
<line x1="173" y1="949" x2="165" y2="949" stroke="red"/>
<line x1="133" y1="894" x2="125" y2="894" stroke="red"/>
<line x1="141" y1="993" x2="133" y2="993" stroke="red"/>
<line x1="157" y1="927" x2="149" y2="927" stroke="red"/>
<line x1="141" y1="1015" x2="133" y2="1015" stroke="red"/>
<line x1="181" y1="971" x2="173" y2="971" stroke="red"/>
<line x1="125" y1="245" x2="117" y2="245" stroke="red"/>
<line x1="69" y1="91" x2="61" y2="91" stroke="cyan"/>
<line x1="69" y1="102" x2="61" y2="102" stroke="cyan"/>
<line x1="141" y1="1004" x2="133" y2="1004" stroke="red"/>
<line x1="77" y1="795" x2="69" y2="795" stroke="red"/>
<line x1="69" y1="124" x2="61" y2="124" stroke="red"/>
<line x1="165" y1="1037" x2="157" y2="1037" stroke="green"/>
<line x1="61" y1="80" x2="53" y2="80" stroke="cyan"/>
<line x1="141" y1="740" x2="133" y2="740" stroke="blue"/>
<line x1="101" y1="696" x2="93" y2="696" stroke="blue"/>
<line x1="117" y1="718" x2="109" y2="718" stroke="blue"/>
<line x1="141" y1="773" x2="133" y2="773" stroke="blue"/>
<line x1="109" y1="707" x2="101" y2="707" stroke="blue"/>
<line x1="133" y1="762" x2="125" y2="762" stroke="blue"/>
<line x1="133" y1="729" x2="125" y2="729" stroke="blue"/>
<line x1="141" y1="751" x2="133" y2="751" stroke="blue"/>
<line x1="165" y1="1048" x2="157" y2="1048" stroke="rgb(0,0,0)" stroke-width="2"/>
<line x1="173" y1="498" x2="165" y2="498" stroke="red"/>
<line x1="173" y1="509" x2="165" y2="509" stroke="red"/>
<line x1="181" y1="1070" x2="173" y2="1070" stroke="green"/>
<line x1="181" y1="1081" x2="173" y2="1081" stroke="green"/>
<line x1="173" y1="1059" x2="165" y2="1059" stroke="green"/>
<line x1="93" y1="685" x2="85" y2="685" stroke="blue"/>
<line x1="141" y1="784" x2="133" y2="784" stroke="rgb(0,0,0)" stroke-width="2"/>
<defs>
    <filter x="0" y="0" width="1" height="1" id="solid">
      <feFlood flood-color="white"/>
      <feComposite in="SourceGraphic"/>
    </filter>
  </defs>
<text x="35" y="37" style="stroke:rgb(0,0,0)" stroke-width="1">Diplopterygium_bancroftii</text>
<text x="51" y="48" style="stroke:rgb(0,0,0)" stroke-width="1">Dipteris_conjugata</text>
<text x="27" y="26" style="stroke:rgb(0,0,0)" stroke-width="1">Gleichenella_pectinata</text>
<text x="51" y="59" style="stroke:rgb(0,0,0)" stroke-width="1">Matonia_pectinata</text>
<text x="139" y="873" style="stroke:red" stroke-width="1">Millerocaulis_zamunerae</text>
<text x="139" y="884" style="stroke:red" stroke-width="1">Millerocaulis_australis_Vera2010</text>
<text x="227" y="1214" style="stroke:rgb(0,0,0)" stroke-width="1">Osmundacaulis_hoskingii_tabulatus</text>
<text x="155" y="268" style="stroke:red" stroke-width="1">Todea_papuana</text>
<text x="155" y="279" style="stroke:red" stroke-width="1">Todea_barbara</text>
<text x="163" y="312" style="stroke:red" stroke-width="1">Leptopteris_superba</text>
<text x="171" y="323" style="stroke:red" stroke-width="1">Leptopteris_wilkesiana</text>
<text x="155" y="301" style="stroke:red" stroke-width="1">Leptopteris_hymenophylloides</text>
<text x="147" y="290" style="stroke:red" stroke-width="1">Leptopteris_fraseri</text>
<text x="163" y="433" style="stroke:red" stroke-width="1">Osmunda_regalis</text>
<text x="171" y="444" style="stroke:red" stroke-width="1">Osmunda_lancea</text>
<text x="171" y="455" style="stroke:red" stroke-width="1">Osmunda_japonica</text>
<text x="211" y="609" style="stroke:red" stroke-width="1">Plenasium_vachellii</text>
<text x="203" y="598" style="stroke:red" stroke-width="1">Plenasium_javanica</text>
<text x="227" y="620" style="stroke:red" stroke-width="1">Plenasium_bromeliifolia</text>
<text x="227" y="631" style="stroke:red" stroke-width="1">Plenasium_banksiifolia</text>
<text x="115" y="158" style="stroke:red" stroke-width="1">Osmundastrum_cinnamomea</text>
<text x="131" y="389" style="stroke:red" stroke-width="1">Claytosmunda_wehrii</text>
<text x="155" y="466" style="stroke:red" stroke-width="1">Osmunda_shimokawaensis</text>
<text x="155" y="422" style="stroke:red" stroke-width="1">Osmunda_iliaensis</text>
<text x="99" y="147" style="stroke:red" stroke-width="1">Osmundastrum_cinnamomea_NeogeneJapan</text>
<text x="115" y="169" style="stroke:red" stroke-width="1">Osmundastrum_cinnamomea_NeogeneUSA</text>
<text x="115" y="180" style="stroke:red" stroke-width="1">Osmundastrum_precinnamomea</text>
<text x="139" y="400" style="stroke:red" stroke-width="1">Osmunda_pluma</text>
<text x="139" y="411" style="stroke:red" stroke-width="1">Osmunda_oregonensis</text>
<text x="123" y="378" style="stroke:red" stroke-width="1">Claytosmunda_nathorstii</text>
<text x="195" y="543" style="stroke:red" stroke-width="1">Plenasium_chandleri</text>
<text x="195" y="587" style="stroke:red" stroke-width="1">Plenasium_dowkeri_Chandler</text>
<text x="227" y="642" style="stroke:red" stroke-width="1">Plenasium_dowkeri_Miller</text>
<text x="227" y="653" style="stroke:red" stroke-width="1">Plenasium_arnoldii</text>
<text x="187" y="521" style="stroke:red" stroke-width="1">Plenasium_crossii</text>
<text x="155" y="1027" style="stroke:red" stroke-width="1">Plenasium_moorei</text>
<text x="203" y="554" style="stroke:red" stroke-width="1">Plenasium_bransonii</text>
<text x="147" y="257" style="stroke:red" stroke-width="1">Todea_tidwellii</text>
<text x="211" y="1192" style="stroke:rgb(0,0,0)" stroke-width="1">Osmundacaulis_whittlesii</text>
<text x="203" y="1181" style="stroke:rgb(0,0,0)" stroke-width="1">Osmundacaulis_skidegatensis</text>
<text x="203" y="1159" style="stroke:rgb(0,0,0)" stroke-width="1">Osmundacaulis_natalensis</text>
<text x="203" y="1170" style="stroke:rgb(0,0,0)" stroke-width="1">Osmundacaulis_atherstonei</text>
<text x="115" y="224" style="stroke:red" stroke-width="1">Osmunda_kidstonii</text>
<text x="115" y="191" style="stroke:red" stroke-width="1">Osmundastrum_cinnamomea_CretaceousCanada</text>
<text x="123" y="235" style="stroke:red" stroke-width="1">Claytosmunda_embreei</text>
<text x="211" y="565" style="stroke:red" stroke-width="1">Plenasium_nebraskensis</text>
<text x="187" y="532" style="stroke:red" stroke-width="1">Plenasium_dakotensis</text>
<text x="211" y="576" style="stroke:red" stroke-width="1">Plenasium_burgii</text>
<text x="59" y="114" style="stroke:red" stroke-width="1">Claytosmunda_tekelili</text>
<text x="147" y="906" style="stroke:red" stroke-width="1">Millerocaulis_rajmahalensis</text>
<text x="91" y="807" style="stroke:red" stroke-width="1">Millerocaulis_livingstonensis</text>
<text x="91" y="675" style="stroke:red" stroke-width="1">Millerocaulis_kolbei</text>
<text x="187" y="961" style="stroke:red" stroke-width="1">Millerocaulis_guptai</text>
<text x="123" y="851" style="stroke:red" stroke-width="1">Millerocaulis_australis</text>
<text x="171" y="939" style="stroke:red" stroke-width="1">Millerocaulis_amarjolensis</text>
<text x="171" y="334" style="stroke:red" stroke-width="1">Leptoperis_estipularis</text>
<text x="219" y="1203" style="stroke:rgb(0,0,0)" stroke-width="1">Osmundacaulis_zululandensis</text>
<text x="251" y="1236" style="stroke:rgb(0,0,0)" stroke-width="1">Osmundacaulis_tidwellii</text>
<text x="251" y="1258" style="stroke:rgb(0,0,0)" stroke-width="1">Osmundacaulis_bamfordiae</text>
<text x="171" y="477" style="stroke:red" stroke-width="1">Claytosmunda_johnstonii</text>
<text x="211" y="1126" style="stroke:rgb(0,0,0)" stroke-width="1">Osmundacaulis_tehuelchensis</text>
<text x="219" y="1137" style="stroke:rgb(0,0,0)" stroke-width="1">Osmundacaulis_tasmanensis</text>
<text x="195" y="1104" style="stroke:rgb(0,0,0)" stroke-width="1">Osmundacaulis_pruchnickii</text>
<text x="251" y="1247" style="stroke:rgb(0,0,0)" stroke-width="1">Osmundacaulis_nerii</text>
<text x="251" y="1269" style="stroke:rgb(0,0,0)" stroke-width="1">Osmundacaulis_lemonii</text>
<text x="179" y="1093" style="stroke:rgb(0,0,0)" stroke-width="1">Osmundacaulis_jonesii</text>
<text x="83" y="664" style="stroke:rgb(0,0,0)" stroke-width="1">Osmundacaulis_janae</text>
<text x="235" y="1225" style="stroke:rgb(0,0,0)" stroke-width="1">Osmundacaulis_hoskingii_var.hoskingii</text>
<text x="203" y="1115" style="stroke:rgb(0,0,0)" stroke-width="1">Osmundacaulis_griggsii</text>
<text x="219" y="1148" style="stroke:rgb(0,0,0)" stroke-width="1">Osmundacaulis_andrewii</text>
<text x="115" y="367" style="stroke:red" stroke-width="1">Claytosmunda_wangii</text>
<text x="99" y="345" style="stroke:red" stroke-width="1">Claytosmunda_plumites</text>
<text x="91" y="136" style="stroke:red" stroke-width="1">Osmundastrum_pulchella</text>
<text x="171" y="488" style="stroke:red" stroke-width="1">Claytosmunda_liaoningensis</text>
<text x="107" y="356" style="stroke:red" stroke-width="1">Claytosmunda_chengii</text>
<text x="107" y="213" style="stroke:red" stroke-width="1">Claytosmunda_sinica</text>
<text x="99" y="202" style="stroke:red" stroke-width="1">Claytosmunda_preosmunda</text>
<text x="131" y="983" style="stroke:red" stroke-width="1">Millerocaulis_juandahensis</text>
<text x="59" y="70" style="stroke:green" stroke-width="1">Lunea_jonesii</text>
<text x="99" y="818" style="stroke:red" stroke-width="1">Millerocaulis_websteri</text>
<text x="115" y="840" style="stroke:red" stroke-width="1">Millerocaulis_swanensis</text>
<text x="107" y="829" style="stroke:red" stroke-width="1">Millerocaulis_spinksii</text>
<text x="155" y="917" style="stroke:red" stroke-width="1">Millerocaulis_santaecrucis</text>
<text x="131" y="862" style="stroke:red" stroke-width="1">Millerocaulis_patagonicus</text>
<text x="179" y="950" style="stroke:red" stroke-width="1">Millerocaulis_macromedullosus</text>
<text x="139" y="895" style="stroke:red" stroke-width="1">Millerocaulis_hebeiensis</text>
<text x="147" y="994" style="stroke:red" stroke-width="1">Millerocaulis_broganii</text>
<text x="163" y="928" style="stroke:red" stroke-width="1">Millerocaulis_beipiaoensis</text>
<text x="147" y="1016" style="stroke:red" stroke-width="1">Millerocaulis_tuhajkulensis</text>
<text x="187" y="972" style="stroke:red" stroke-width="1">Millerocaulis_stipabonettiorum</text>
<text x="131" y="246" style="stroke:red" stroke-width="1">Osmundastrum_indentata</text>
<text x="75" y="92" style="stroke:cyan" stroke-width="1">Itopsidema_vancleavei</text>
<text x="75" y="103" style="stroke:cyan" stroke-width="1">Donwelliacaulis_chlouberii</text>
<text x="147" y="1005" style="stroke:red" stroke-width="1">Millerocaulis_woolfei</text>
<text x="83" y="796" style="stroke:red" stroke-width="1">Millerocaulis_lutziae</text>
<text x="75" y="125" style="stroke:red" stroke-width="1">Claytosmunda_beardmorensis</text>
<text x="171" y="1038" style="stroke:green" stroke-width="1">Zhongmingella_plenasioides</text>
<text x="67" y="81" style="stroke:cyan" stroke-width="1">Tiania_yunnanensis</text>
<text x="147" y="741" style="stroke:blue" stroke-width="1">Thamnopteris_uralica</text>
<text x="107" y="697" style="stroke:blue" stroke-width="1">Thamnopteris_splendida</text>
<text x="123" y="719" style="stroke:blue" stroke-width="1">Thamnopteris_schlechtendalii</text>
<text x="147" y="774" style="stroke:blue" stroke-width="1">Thamnopteris_kidstonii</text>
<text x="115" y="708" style="stroke:blue" stroke-width="1">Thamnopteris_javorskii</text>
<text x="139" y="763" style="stroke:blue" stroke-width="1">Thamnopteris_gwynnevaughanii</text>
<text x="139" y="730" style="stroke:blue" stroke-width="1">Thamnopteris_gracilis</text>
<text x="147" y="752" style="stroke:blue" stroke-width="1">Thamnopteris_diploxylon</text>
<text x="171" y="1049" style="stroke:rgb(0,0,0)" stroke-width="1">Shuichengella_primitiva</text>
<text x="179" y="499" style="stroke:red" stroke-width="1">Palaeosmunda_williamsii</text>
<text x="179" y="510" style="stroke:red" stroke-width="1">Palaeosmunda_playfordii</text>
<text x="187" y="1071" style="stroke:green" stroke-width="1">Guairea_millerii</text>
<text x="187" y="1082" style="stroke:green" stroke-width="1">Guairea_carnierii</text>
<text x="179" y="1060" style="stroke:green" stroke-width="1">Guairea_brasiliensis</text>
<text x="99" y="686" style="stroke:blue" stroke-width="1">Chasmatopteris_principalis</text>
<text x="147" y="785" style="stroke:rgb(0,0,0)" stroke-width="1">Bathypteris_rhomboidea</text>
</g>
<g stroke-width="2" stroke="black" font-family="Verdana" font-style="regular" font-size="5">
</g>
</svg>
