<?xml version="1.0"?>
<svg width="1171" height="1109" xmlns="http://www.w3.org/2000/svg">
<g stroke-width="2" stroke="black" font-family="Verdana" font-size="12">
<text x="10" y="1094" stroke-width="1"> L = 346 (L = 341)</text>
<line x1="94" y1="95" x2="74" y2="95" />
<line x1="234" y1="565" x2="214" y2="565" />
<line x1="240" y1="435" x2="218" y2="435" />
<line x1="196" y1="402" x2="174" y2="402" />
<line x1="218" y1="420" x2="196" y2="420" />
<line x1="254" y1="315" x2="234" y2="315" />
<line x1="154" y1="155" x2="134" y2="155" />
<line x1="214" y1="475" x2="194" y2="475" />
<line x1="258" y1="535" x2="236" y2="535" />
<line x1="174" y1="455" x2="154" y2="455" />
<line x1="194" y1="508" x2="174" y2="508" />
<line x1="214" y1="542" x2="194" y2="542" />
<line x1="236" y1="520" x2="214" y2="520" />
<line x1="54" y1="45" x2="34" y2="45" />
<line x1="194" y1="215" x2="174" y2="215" />
<line x1="114" y1="154" x2="94" y2="154" />
<line x1="134" y1="183" x2="114" y2="183" />
<line x1="154" y1="212" x2="134" y2="212" />
<line x1="174" y1="239" x2="154" y2="239" />
<line x1="194" y1="263" x2="174" y2="263" />
<line x1="214" y1="282" x2="194" y2="282" />
<line x1="234" y1="300" x2="214" y2="300" />
<line x1="34" y1="84" x2="14" y2="84" />
<line x1="54" y1="124" x2="34" y2="124" />
<line x1="74" y1="184" x2="54" y2="184" />
<line x1="94" y1="273" x2="74" y2="273" />
<line x1="114" y1="393" x2="94" y2="393" />
<line x1="134" y1="442" x2="114" y2="442" />
<line x1="154" y1="520" x2="134" y2="520" />
<line x1="174" y1="585" x2="154" y2="585" />
<line x1="14" y1="54" x2="5" y2="54" />
<line x1="74" y1="65" x2="54" y2="65" />
<line x1="114" y1="85" x2="94" y2="85" />
<line x1="34" y1="25" x2="14" y2="25" />
<line x1="114" y1="105" x2="94" y2="105" />
<line x1="154" y1="365" x2="134" y2="365" />
<line x1="216" y1="385" x2="196" y2="385" />
<line x1="260" y1="425" x2="240" y2="425" />
<line x1="260" y1="445" x2="240" y2="445" />
<line x1="234" y1="465" x2="214" y2="465" />
<line x1="238" y1="405" x2="218" y2="405" />
<line x1="174" y1="145" x2="154" y2="145" />
<line x1="214" y1="205" x2="194" y2="205" />
<line x1="234" y1="265" x2="214" y2="265" />
<line x1="274" y1="305" x2="254" y2="305" />
<line x1="214" y1="245" x2="194" y2="245" />
<line x1="174" y1="185" x2="154" y2="185" />
<line x1="274" y1="325" x2="254" y2="325" />
<line x1="174" y1="165" x2="154" y2="165" />
<line x1="134" y1="125" x2="114" y2="125" />
<line x1="234" y1="485" x2="214" y2="485" />
<line x1="134" y1="345" x2="114" y2="345" />
<line x1="278" y1="525" x2="258" y2="525" />
<line x1="278" y1="545" x2="258" y2="545" />
<line x1="256" y1="505" x2="236" y2="505" />
<line x1="214" y1="225" x2="194" y2="225" />
<line x1="254" y1="285" x2="234" y2="285" />
<line x1="95" y1="85" x2="95" y2="105" />
<line x1="241" y1="425" x2="241" y2="445" />
<line x1="197" y1="385" x2="197" y2="420" />
<line x1="219" y1="405" x2="219" y2="435" />
<line x1="255" y1="305" x2="255" y2="325" />
<line x1="155" y1="145" x2="155" y2="165" />
<line x1="215" y1="465" x2="215" y2="485" />
<line x1="259" y1="525" x2="259" y2="545" />
<line x1="175" y1="402" x2="175" y2="508" />
<line x1="195" y1="475" x2="195" y2="542" />
<line x1="215" y1="520" x2="215" y2="565" />
<line x1="237" y1="505" x2="237" y2="535" />
<line x1="195" y1="205" x2="195" y2="225" />
<line x1="115" y1="125" x2="115" y2="183" />
<line x1="135" y1="155" x2="135" y2="212" />
<line x1="155" y1="185" x2="155" y2="239" />
<line x1="175" y1="215" x2="175" y2="263" />
<line x1="195" y1="245" x2="195" y2="282" />
<line x1="215" y1="265" x2="215" y2="300" />
<line x1="235" y1="285" x2="235" y2="315" />
<line x1="35" y1="45" x2="35" y2="124" />
<line x1="55" y1="65" x2="55" y2="184" />
<line x1="75" y1="95" x2="75" y2="273" />
<line x1="95" y1="154" x2="95" y2="393" />
<line x1="115" y1="345" x2="115" y2="442" />
<line x1="135" y1="365" x2="135" y2="520" />
<line x1="155" y1="455" x2="155" y2="585" />
<line x1="15" y1="25" x2="15" y2="84" />
<defs>
    <filter x="0" y="0.0" width="1" height="1.0" id="solid">
      <feFlood flood-color="white"/>
      <feComposite in="SourceGraphic"/>
    </filter>
  </defs>
<text x="80" y="67" stroke-width="1">Diplopterygium_bancroftii</text>
<text x="120" y="87" stroke-width="1">Dipteris_conjugata</text>
<text x="40" y="27" stroke-width="1">Gleichenella_pectinata</text>
<text x="120" y="107" stroke-width="1">Matonia_pectinata</text>
<text x="160" y="367" stroke-width="1">Osmundacaulis_janae</text>
<text x="222" y="387" stroke-width="1">Lunea_jonesii</text>
<text x="266" y="427" stroke-width="1">Itopsidema_vancleavei</text>
<text x="266" y="447" stroke-width="1">Donwelliacaulis_chlouberii</text>
<text x="240" y="467" stroke-width="1">Zhongmingella_plenasioides</text>
<text x="244" y="407" stroke-width="1">Tiania_yunnanensis</text>
<text x="180" y="147" stroke-width="1">Thamnopteris_uralica</text>
<text x="220" y="207" stroke-width="1">Thamnopteris_splendida</text>
<text x="240" y="267" stroke-width="1">Thamnopteris_schlechtendalii</text>
<text x="280" y="307" stroke-width="1">Thamnopteris_kidstonii</text>
<text x="220" y="247" stroke-width="1">Thamnopteris_kazanensis</text>
<text x="180" y="187" stroke-width="1">Thamnopteris_javorskii</text>
<text x="280" y="327" stroke-width="1">Thamnopteris_gwynnevaughanii</text>
<text x="180" y="167" stroke-width="1">Thamnopteris_gracilis</text>
<text x="140" y="127" stroke-width="1">Thamnopteris_diploxylon</text>
<text x="240" y="487" stroke-width="1">Shuichengella_primitiva</text>
<text x="140" y="347" stroke-width="1">Palaeosmunda_williamsii</text>
<text x="284" y="527" stroke-width="1">Guairea_millerii</text>
<text x="284" y="547" stroke-width="1">Guairea_carnierii</text>
<text x="262" y="507" stroke-width="1">Guairea_brasiliensis</text>
<text x="220" y="227" stroke-width="1">Chasmatopteris_principalis</text>
<text x="260" y="287" stroke-width="1">Bathypteris_rhomboidea</text>
<text x="238" y="567" stroke-width="1">[Osmundacaulis]</text>
<text x="58" y="47" stroke-width="1">[outgroup]</text>
<text x="178" y="587" stroke-width="1">[Remaining_Osmundales]</text>
</g>
<g stroke-width="2" stroke="black" font-family="Verdana" font-style="regular" font-size="12">
<text filter="url(#solid)" x="80" y="96" stroke-width="1">0</text>
<text filter="url(#solid)" x="220" y="566" stroke-width="1">0</text>
<text filter="url(#solid)" x="224" y="436" stroke-width="1">[-]</text>
<text filter="url(#solid)" x="180" y="403" stroke-width="1">[-]</text>
<text filter="url(#solid)" x="202" y="421" stroke-width="1">[-]</text>
<text filter="url(#solid)" x="240" y="316" stroke-width="1">0</text>
<text filter="url(#solid)" x="140" y="156" stroke-width="1">0</text>
<text filter="url(#solid)" x="200" y="476" stroke-width="1">0</text>
<text filter="url(#solid)" x="242" y="536" stroke-width="1">[-]</text>
<text filter="url(#solid)" x="160" y="456" stroke-width="1">0</text>
<text filter="url(#solid)" x="180" y="509" stroke-width="1">0</text>
<text filter="url(#solid)" x="200" y="543" stroke-width="1">0</text>
<text filter="url(#solid)" x="220" y="521" stroke-width="1">[-]</text>
<text filter="url(#solid)" x="40" y="46" stroke-width="1">0</text>
<text filter="url(#solid)" x="180" y="216" stroke-width="1">0</text>
<text filter="url(#solid)" x="100" y="155" stroke-width="1">0</text>
<text filter="url(#solid)" x="120" y="184" stroke-width="1">0</text>
<text filter="url(#solid)" x="140" y="213" stroke-width="1">0</text>
<text filter="url(#solid)" x="160" y="240" stroke-width="1">0</text>
<text filter="url(#solid)" x="180" y="264" stroke-width="1">0</text>
<text filter="url(#solid)" x="200" y="283" stroke-width="1">0</text>
<text filter="url(#solid)" x="220" y="301" stroke-width="1">0</text>
<text filter="url(#solid)" x="20" y="85" stroke-width="1">0</text>
<text filter="url(#solid)" x="40" y="125" stroke-width="1">0</text>
<text filter="url(#solid)" x="60" y="185" stroke-width="1">0</text>
<text filter="url(#solid)" x="80" y="274" stroke-width="1">0</text>
<text filter="url(#solid)" x="100" y="394" stroke-width="1">0</text>
<text filter="url(#solid)" x="120" y="443" stroke-width="1">0</text>
<text filter="url(#solid)" x="140" y="521" stroke-width="1">0</text>
<text filter="url(#solid)" x="160" y="586" stroke-width="1">0</text>
<text filter="url(#solid)" x="6" y="55" stroke-width="1">0</text>
<text filter="url(#solid)" x="60" y="66" stroke-width="1">?</text>
<text filter="url(#solid)" x="100" y="86" stroke-width="1">?</text>
<text filter="url(#solid)" x="20" y="26" stroke-width="1">?</text>
<text filter="url(#solid)" x="100" y="106" stroke-width="1">?</text>
<text filter="url(#solid)" x="140" y="366" stroke-width="1">0</text>
<text filter="url(#solid)" x="202" y="386" stroke-width="1">?</text>
<text filter="url(#solid)" x="246" y="426" stroke-width="1">?</text>
<text filter="url(#solid)" x="246" y="446" stroke-width="1">?</text>
<text filter="url(#solid)" x="220" y="466" stroke-width="1">?</text>
<text filter="url(#solid)" x="224" y="406" stroke-width="1">?</text>
<text filter="url(#solid)" x="160" y="146" stroke-width="1">0</text>
<text filter="url(#solid)" x="200" y="206" stroke-width="1">0</text>
<text filter="url(#solid)" x="220" y="266" stroke-width="1">0</text>
<text filter="url(#solid)" x="260" y="306" stroke-width="1">0</text>
<text filter="url(#solid)" x="200" y="246" stroke-width="1">?</text>
<text filter="url(#solid)" x="160" y="186" stroke-width="1">0</text>
<text filter="url(#solid)" x="260" y="326" stroke-width="1">0</text>
<text filter="url(#solid)" x="160" y="166" stroke-width="1">?</text>
<text filter="url(#solid)" x="120" y="126" stroke-width="1">?</text>
<text filter="url(#solid)" x="220" y="486" stroke-width="1">0</text>
<text filter="url(#solid)" x="120" y="346" stroke-width="1">0</text>
<text filter="url(#solid)" x="264" y="526" stroke-width="1">?</text>
<text filter="url(#solid)" x="264" y="546" stroke-width="1">?</text>
<text filter="url(#solid)" x="242" y="506" stroke-width="1">?</text>
<text filter="url(#solid)" x="200" y="226" stroke-width="1">0</text>
<text filter="url(#solid)" x="240" y="286" stroke-width="1">0</text>
</g>
</svg>
