<?xml version="1.0"?>
<svg width="1290" height="2173" xmlns="http://www.w3.org/2000/svg">
<g stroke-width="2" stroke="black" font-family="Verdana" font-size="20">
<line x1="414" y1="1135" x2="394" y2="1135" />
<line x1="454" y1="1295" x2="434" y2="1295" />
<line x1="494" y1="1380" x2="474" y2="1380" />
<line x1="514" y1="1395" x2="494" y2="1395" />
<line x1="334" y1="875" x2="314" y2="875" />
<line x1="554" y1="1500" x2="534" y2="1500" />
<line x1="574" y1="1515" x2="554" y2="1515" />
<line x1="534" y1="1531" x2="514" y2="1531" />
<line x1="554" y1="1562" x2="534" y2="1562" />
<line x1="574" y1="1580" x2="554" y2="1580" />
<line x1="594" y1="1595" x2="574" y2="1595" />
<line x1="194" y1="400" x2="174" y2="400" />
<line x1="214" y1="415" x2="194" y2="415" />
<line x1="254" y1="645" x2="234" y2="645" />
<line x1="294" y1="724" x2="274" y2="724" />
<line x1="314" y1="744" x2="294" y2="744" />
<line x1="334" y1="763" x2="314" y2="763" />
<line x1="354" y1="782" x2="334" y2="782" />
<line x1="374" y1="800" x2="354" y2="800" />
<line x1="394" y1="815" x2="374" y2="815" />
<line x1="214" y1="555" x2="194" y2="555" />
<line x1="434" y1="1183" x2="414" y2="1183" />
<line x1="454" y1="1202" x2="434" y2="1202" />
<line x1="474" y1="1220" x2="454" y2="1220" />
<line x1="494" y1="1235" x2="474" y2="1235" />
<line x1="354" y1="1043" x2="334" y2="1043" />
<line x1="374" y1="1101" x2="354" y2="1101" />
<line x1="394" y1="1197" x2="374" y2="1197" />
<line x1="414" y1="1260" x2="394" y2="1260" />
<line x1="434" y1="1338" x2="414" y2="1338" />
<line x1="454" y1="1382" x2="434" y2="1382" />
<line x1="474" y1="1419" x2="454" y2="1419" />
<line x1="494" y1="1459" x2="474" y2="1459" />
<line x1="514" y1="1493" x2="494" y2="1493" />
<line x1="534" y1="1455" x2="514" y2="1455" />
<line x1="234" y1="595" x2="214" y2="595" />
<line x1="394" y1="955" x2="374" y2="955" />
<line x1="194" y1="600" x2="174" y2="600" />
<line x1="214" y1="645" x2="194" y2="645" />
<line x1="234" y1="695" x2="214" y2="695" />
<line x1="254" y1="745" x2="234" y2="745" />
<line x1="274" y1="805" x2="254" y2="805" />
<line x1="294" y1="886" x2="274" y2="886" />
<line x1="314" y1="928" x2="294" y2="928" />
<line x1="334" y1="982" x2="314" y2="982" />
<line x1="354" y1="922" x2="334" y2="922" />
<line x1="374" y1="940" x2="354" y2="940" />
<line x1="114" y1="140" x2="94" y2="140" />
<line x1="134" y1="155" x2="114" y2="155" />
<line x1="174" y1="355" x2="154" y2="355" />
<line x1="154" y1="533" x2="134" y2="533" />
<line x1="174" y1="562" x2="154" y2="562" />
<line x1="214" y1="475" x2="194" y2="475" />
<line x1="134" y1="462" x2="114" y2="462" />
<line x1="154" y1="392" x2="134" y2="392" />
<line x1="174" y1="430" x2="154" y2="430" />
<line x1="194" y1="460" x2="174" y2="460" />
<line x1="54" y1="55" x2="34" y2="55" />
<line x1="154" y1="233" x2="134" y2="233" />
<line x1="174" y1="262" x2="154" y2="262" />
<line x1="194" y1="300" x2="174" y2="300" />
<line x1="214" y1="315" x2="194" y2="315" />
<line x1="34" y1="91" x2="7" y2="91" />
<line x1="54" y1="128" x2="34" y2="128" />
<line x1="74" y1="171" x2="54" y2="171" />
<line x1="94" y1="237" x2="74" y2="237" />
<line x1="114" y1="335" x2="94" y2="335" />
<line x1="134" y1="209" x2="114" y2="209" />
<line x1="7" y1="58" x2="5" y2="58" />
<line x1="434" y1="1125" x2="414" y2="1125" />
<line x1="434" y1="1145" x2="414" y2="1145" />
<line x1="594" y1="1505" x2="574" y2="1505" />
<line x1="574" y1="1545" x2="554" y2="1545" />
<line x1="614" y1="1585" x2="594" y2="1585" />
<line x1="594" y1="1565" x2="574" y2="1565" />
<line x1="574" y1="1485" x2="554" y2="1485" />
<line x1="474" y1="1265" x2="454" y2="1265" />
<line x1="474" y1="1285" x2="454" y2="1285" />
<line x1="474" y1="1305" x2="454" y2="1305" />
<line x1="354" y1="865" x2="334" y2="865" />
<line x1="534" y1="1385" x2="514" y2="1385" />
<line x1="474" y1="1325" x2="454" y2="1325" />
<line x1="514" y1="1365" x2="494" y2="1365" />
<line x1="534" y1="1405" x2="514" y2="1405" />
<line x1="354" y1="885" x2="334" y2="885" />
<line x1="594" y1="1525" x2="574" y2="1525" />
<line x1="514" y1="1425" x2="494" y2="1425" />
<line x1="554" y1="1445" x2="534" y2="1445" />
<line x1="234" y1="545" x2="214" y2="545" />
<line x1="394" y1="1005" x2="374" y2="1005" />
<line x1="474" y1="1185" x2="454" y2="1185" />
<line x1="274" y1="625" x2="254" y2="625" />
<line x1="414" y1="945" x2="394" y2="945" />
<line x1="394" y1="1025" x2="374" y2="1025" />
<line x1="514" y1="1225" x2="494" y2="1225" />
<line x1="614" y1="1605" x2="594" y2="1605" />
<line x1="394" y1="785" x2="374" y2="785" />
<line x1="214" y1="385" x2="194" y2="385" />
<line x1="234" y1="405" x2="214" y2="405" />
<line x1="234" y1="425" x2="214" y2="425" />
<line x1="334" y1="725" x2="314" y2="725" />
<line x1="354" y1="745" x2="334" y2="745" />
<line x1="474" y1="1345" x2="454" y2="1345" />
<line x1="414" y1="805" x2="394" y2="805" />
<line x1="374" y1="765" x2="354" y2="765" />
<line x1="394" y1="1045" x2="374" y2="1045" />
<line x1="174" y1="505" x2="154" y2="505" />
<line x1="94" y1="105" x2="74" y2="105" />
<line x1="394" y1="1065" x2="374" y2="1065" />
<line x1="274" y1="645" x2="254" y2="645" />
<line x1="314" y1="705" x2="294" y2="705" />
<line x1="274" y1="685" x2="254" y2="685" />
<line x1="274" y1="665" x2="254" y2="665" />
<line x1="494" y1="1205" x2="474" y2="1205" />
<line x1="414" y1="825" x2="394" y2="825" />
<line x1="394" y1="1085" x2="374" y2="1085" />
<line x1="234" y1="565" x2="214" y2="565" />
<line x1="454" y1="1165" x2="434" y2="1165" />
<line x1="374" y1="985" x2="354" y2="985" />
<line x1="254" y1="585" x2="234" y2="585" />
<line x1="514" y1="1245" x2="494" y2="1245" />
<line x1="394" y1="1105" x2="374" y2="1105" />
<line x1="314" y1="845" x2="294" y2="845" />
<line x1="554" y1="1465" x2="534" y2="1465" />
<line x1="134" y1="125" x2="114" y2="125" />
<line x1="154" y1="145" x2="134" y2="145" />
<line x1="254" y1="605" x2="234" y2="605" />
<line x1="374" y1="905" x2="354" y2="905" />
<line x1="414" y1="965" x2="394" y2="965" />
<line x1="394" y1="925" x2="374" y2="925" />
<line x1="194" y1="345" x2="174" y2="345" />
<line x1="154" y1="165" x2="134" y2="165" />
<line x1="234" y1="305" x2="214" y2="305" />
<line x1="194" y1="225" x2="174" y2="225" />
<line x1="174" y1="205" x2="154" y2="205" />
<line x1="194" y1="245" x2="174" y2="245" />
<line x1="214" y1="285" x2="194" y2="285" />
<line x1="194" y1="265" x2="174" y2="265" />
<line x1="194" y1="365" x2="174" y2="365" />
<line x1="27" y1="25" x2="7" y2="25" />
<line x1="194" y1="525" x2="174" y2="525" />
<line x1="234" y1="465" x2="214" y2="465" />
<line x1="234" y1="485" x2="214" y2="485" />
<line x1="214" y1="445" x2="194" y2="445" />
<line x1="74" y1="45" x2="54" y2="45" />
<line x1="74" y1="65" x2="54" y2="65" />
<line x1="74" y1="85" x2="54" y2="85" />
<line x1="234" y1="325" x2="214" y2="325" />
<line x1="154" y1="185" x2="134" y2="185" />
<line x1="415" y1="1125" x2="415" y2="1145" />
<line x1="455" y1="1265" x2="455" y2="1325" />
<line x1="495" y1="1365" x2="495" y2="1395" />
<line x1="515" y1="1385" x2="515" y2="1405" />
<line x1="335" y1="865" x2="335" y2="885" />
<line x1="555" y1="1485" x2="555" y2="1515" />
<line x1="575" y1="1505" x2="575" y2="1525" />
<line x1="535" y1="1500" x2="535" y2="1562" />
<line x1="555" y1="1545" x2="555" y2="1580" />
<line x1="575" y1="1565" x2="575" y2="1595" />
<line x1="595" y1="1585" x2="595" y2="1605" />
<line x1="195" y1="385" x2="195" y2="415" />
<line x1="215" y1="405" x2="215" y2="425" />
<line x1="255" y1="625" x2="255" y2="665" />
<line x1="295" y1="705" x2="295" y2="744" />
<line x1="315" y1="725" x2="315" y2="763" />
<line x1="335" y1="745" x2="335" y2="782" />
<line x1="355" y1="765" x2="355" y2="800" />
<line x1="375" y1="785" x2="375" y2="815" />
<line x1="395" y1="805" x2="395" y2="825" />
<line x1="215" y1="545" x2="215" y2="565" />
<line x1="435" y1="1165" x2="435" y2="1202" />
<line x1="455" y1="1185" x2="455" y2="1220" />
<line x1="475" y1="1205" x2="475" y2="1235" />
<line x1="495" y1="1225" x2="495" y2="1245" />
<line x1="355" y1="985" x2="355" y2="1101" />
<line x1="375" y1="1005" x2="375" y2="1197" />
<line x1="395" y1="1135" x2="395" y2="1260" />
<line x1="415" y1="1183" x2="415" y2="1338" />
<line x1="435" y1="1295" x2="435" y2="1382" />
<line x1="455" y1="1345" x2="455" y2="1419" />
<line x1="475" y1="1380" x2="475" y2="1459" />
<line x1="495" y1="1425" x2="495" y2="1493" />
<line x1="515" y1="1455" x2="515" y2="1531" />
<line x1="535" y1="1445" x2="535" y2="1465" />
<line x1="235" y1="585" x2="235" y2="605" />
<line x1="395" y1="945" x2="395" y2="965" />
<line x1="195" y1="555" x2="195" y2="645" />
<line x1="215" y1="595" x2="215" y2="695" />
<line x1="235" y1="645" x2="235" y2="745" />
<line x1="255" y1="685" x2="255" y2="805" />
<line x1="275" y1="724" x2="275" y2="886" />
<line x1="295" y1="845" x2="295" y2="928" />
<line x1="315" y1="875" x2="315" y2="982" />
<line x1="335" y1="922" x2="335" y2="1043" />
<line x1="355" y1="905" x2="355" y2="940" />
<line x1="375" y1="925" x2="375" y2="955" />
<line x1="115" y1="125" x2="115" y2="155" />
<line x1="135" y1="145" x2="135" y2="165" />
<line x1="175" y1="345" x2="175" y2="365" />
<line x1="155" y1="505" x2="155" y2="562" />
<line x1="175" y1="525" x2="175" y2="600" />
<line x1="215" y1="465" x2="215" y2="485" />
<line x1="135" y1="392" x2="135" y2="533" />
<line x1="155" y1="355" x2="155" y2="430" />
<line x1="175" y1="400" x2="175" y2="460" />
<line x1="195" y1="445" x2="195" y2="475" />
<line x1="55" y1="45" x2="55" y2="65" />
<line x1="155" y1="205" x2="155" y2="262" />
<line x1="175" y1="225" x2="175" y2="300" />
<line x1="195" y1="285" x2="195" y2="315" />
<line x1="215" y1="305" x2="215" y2="325" />
<line x1="35" y1="55" x2="35" y2="128" />
<line x1="55" y1="85" x2="55" y2="171" />
<line x1="75" y1="105" x2="75" y2="237" />
<line x1="95" y1="140" x2="95" y2="335" />
<line x1="115" y1="209" x2="115" y2="462" />
<line x1="135" y1="185" x2="135" y2="233" />
<line x1="8" y1="25" x2="8" y2="91" />
<defs>
    <filter x="0" y="0.0" width="1" height="1.0" id="solid">
      <feFlood flood-color="white"/>
      <feComposite in="SourceGraphic"/>
    </filter>
  </defs>
<text x="440" y="1129" stroke-width="1">Millerocaulis_zamunerae</text>
<text x="440" y="1149" stroke-width="1">Millerocaulis_australis_Vera2010</text>
<text x="600" y="1509" stroke-width="1">Todea_barbara</text>
<text x="580" y="1549" stroke-width="1">Leptopteris_superba</text>
<text x="620" y="1589" stroke-width="1">Leptopteris_wilkesiana</text>
<text x="600" y="1569" stroke-width="1">Leptopteris_hymenophylloides</text>
<text x="580" y="1489" stroke-width="1">Leptopteris_fraseri</text>
<text x="480" y="1269" stroke-width="1">Osmunda_regalis</text>
<text x="480" y="1289" stroke-width="1">Osmunda_lancea</text>
<text x="480" y="1309" stroke-width="1">Osmunda_japonica</text>
<text x="360" y="869" stroke-width="1">Claytosmunda_claytoniana</text>
<text x="540" y="1389" stroke-width="1">Osmundastrum_cinnamomea</text>
<text x="480" y="1329" stroke-width="1">Osmunda_iliaensis</text>
<text x="520" y="1369" stroke-width="1">Osmundastrum_cinnamomea_NeogeneJapan</text>
<text x="540" y="1409" stroke-width="1">Osmundastrum_cinnamomea_NeogeneUSA</text>
<text x="360" y="889" stroke-width="1">Claytosmunda_nathorstii</text>
<text x="600" y="1529" stroke-width="1">Todea_tidwellii</text>
<text x="520" y="1429" stroke-width="1">Osmunda_kidstonii</text>
<text x="560" y="1449" stroke-width="1">Claytosmunda_embreei</text>
<text x="240" y="549" stroke-width="1">Claytosmunda_tekelili</text>
<text x="400" y="1009" stroke-width="1">Millerocaulis_sahnii</text>
<text x="480" y="1189" stroke-width="1">Millerocaulis_rajmahalensis</text>
<text x="280" y="629" stroke-width="1">Millerocaulis_livingstonensis</text>
<text x="420" y="949" stroke-width="1">Millerocaulis_kolbei</text>
<text x="400" y="1029" stroke-width="1">Millerocaulis_australis</text>
<text x="520" y="1229" stroke-width="1">Millerocaulis_amarjolensis</text>
<text x="620" y="1609" stroke-width="1">Leptoperis_estipularis</text>
<text x="400" y="789" stroke-width="1">Claytosmunda_johnstonii</text>
<text x="220" y="389" stroke-width="1">Osmundacaulis_tehuelchensis</text>
<text x="240" y="409" stroke-width="1">Osmundacaulis_tasmanensis</text>
<text x="240" y="429" stroke-width="1">Osmundacaulis_andrewii</text>
<text x="340" y="729" stroke-width="1">Claytosmunda_wangii</text>
<text x="360" y="749" stroke-width="1">Claytosmunda_plumites</text>
<text x="480" y="1349" stroke-width="1">Osmundastrum_pulchella</text>
<text x="420" y="809" stroke-width="1">Claytosmunda_liaoningensis</text>
<text x="380" y="769" stroke-width="1">Claytosmunda_chengii</text>
<text x="400" y="1049" stroke-width="1">Millerocaulis_dunlopii</text>
<text x="180" y="509" stroke-width="1">Lunea_jonesii</text>
<text x="100" y="109" stroke-width="1">Grammatocaulis_donponii</text>
<text x="400" y="1069" stroke-width="1">Millerocaulis_wrightii</text>
<text x="280" y="649" stroke-width="1">Millerocaulis_websteri</text>
<text x="320" y="709" stroke-width="1">Millerocaulis_wadei</text>
<text x="280" y="689" stroke-width="1">Millerocaulis_swanensis</text>
<text x="280" y="669" stroke-width="1">Millerocaulis_spinksii</text>
<text x="500" y="1209" stroke-width="1">Millerocaulis_santaecrucis</text>
<text x="420" y="829" stroke-width="1">Millerocaulis_richmondii</text>
<text x="400" y="1089" stroke-width="1">Millerocaulis_patagonicus</text>
<text x="240" y="569" stroke-width="1">Millerocaulis_macromedullosus</text>
<text x="460" y="1169" stroke-width="1">Millerocaulis_hebeiensis</text>
<text x="380" y="989" stroke-width="1">Millerocaulis_gibbianus</text>
<text x="260" y="589" stroke-width="1">Millerocaulis_broganii</text>
<text x="520" y="1249" stroke-width="1">Millerocaulis_beipiaoensis</text>
<text x="400" y="1109" stroke-width="1">Millerocaulis_aucklandicus</text>
<text x="320" y="849" stroke-width="1">Millerocaulis_tuhajkulensis</text>
<text x="560" y="1469" stroke-width="1">Osmundastrum_indentata</text>
<text x="140" y="129" stroke-width="1">Itopsidema_vancleavei</text>
<text x="160" y="149" stroke-width="1">Donwelliacaulis_chlouberii</text>
<text x="260" y="609" stroke-width="1">Millerocaulis_woolfei</text>
<text x="380" y="909" stroke-width="1">Millerocaulis_lutziae</text>
<text x="420" y="969" stroke-width="1">Millerocaulis_herbstii</text>
<text x="400" y="929" stroke-width="1">Claytosmunda_beardmorensis</text>
<text x="200" y="349" stroke-width="1">Zhongmingella_plenasioides</text>
<text x="160" y="169" stroke-width="1">Tiania_yunnanensis</text>
<text x="240" y="309" stroke-width="1">Thamnopteris_splendida</text>
<text x="200" y="229" stroke-width="1">Thamnopteris_schlechtendalii</text>
<text x="180" y="209" stroke-width="1">Thamnopteris_kidstonii</text>
<text x="200" y="249" stroke-width="1">Thamnopteris_kazanensis</text>
<text x="220" y="289" stroke-width="1">Thamnopteris_javorskii</text>
<text x="200" y="269" stroke-width="1">Thamnopteris_gwynnevaughanii</text>
<text x="200" y="369" stroke-width="1">Shuichengella_primitiva</text>
<text x="33" y="29" stroke-width="1">Rastropteris_pinquanensis</text>
<text x="200" y="529" stroke-width="1">Palaeosmunda_williamsii</text>
<text x="240" y="469" stroke-width="1">Guairea_millerii</text>
<text x="240" y="489" stroke-width="1">Guairea_carnierii</text>
<text x="220" y="449" stroke-width="1">Guairea_brasiliensis</text>
<text x="80" y="49" stroke-width="1">Grammatopteris_freitasii</text>
<text x="80" y="69" stroke-width="1">Grammatopteris_rigollotii</text>
<text x="80" y="89" stroke-width="1">Grammatopteris_baldaufii</text>
<text x="240" y="329" stroke-width="1">Chasmatopteris_principalis</text>
<text x="160" y="189" stroke-width="1">Bathypteris_rhomboidea</text>
</g>
<g stroke-width="2" stroke="black" font-family="Verdana" font-style="regular" font-size="20">
<text filter="url(#solid)" x="400" y="1136" stroke-width="1">1</text>
<text filter="url(#solid)" x="440" y="1296" stroke-width="1">1</text>
<text filter="url(#solid)" x="480" y="1381" stroke-width="1">5</text>
<text filter="url(#solid)" x="500" y="1396" stroke-width="1">5</text>
<text filter="url(#solid)" x="320" y="876" stroke-width="1">1</text>
<text filter="url(#solid)" x="540" y="1501" stroke-width="1">5</text>
<text filter="url(#solid)" x="560" y="1516" stroke-width="1">5</text>
<text filter="url(#solid)" x="520" y="1532" stroke-width="1">5</text>
<text filter="url(#solid)" x="540" y="1563" stroke-width="1">5</text>
<text filter="url(#solid)" x="560" y="1581" stroke-width="1">5</text>
<text filter="url(#solid)" x="580" y="1596" stroke-width="1">5</text>
<text filter="url(#solid)" x="180" y="401" stroke-width="1">3</text>
<text filter="url(#solid)" x="200" y="416" stroke-width="1">8</text>
<text filter="url(#solid)" x="240" y="646" stroke-width="1">1</text>
<text filter="url(#solid)" x="280" y="725" stroke-width="1">1</text>
<text filter="url(#solid)" x="300" y="745" stroke-width="1">1</text>
<text filter="url(#solid)" x="320" y="764" stroke-width="1">1</text>
<text filter="url(#solid)" x="340" y="783" stroke-width="1">1</text>
<text filter="url(#solid)" x="360" y="801" stroke-width="1">1</text>
<text filter="url(#solid)" x="380" y="816" stroke-width="1">1</text>
<text filter="url(#solid)" x="200" y="556" stroke-width="1">4</text>
<text filter="url(#solid)" x="420" y="1184" stroke-width="1">1</text>
<text filter="url(#solid)" x="440" y="1203" stroke-width="1">1</text>
<text filter="url(#solid)" x="460" y="1221" stroke-width="1">1</text>
<text filter="url(#solid)" x="480" y="1236" stroke-width="1">1</text>
<text filter="url(#solid)" x="340" y="1044" stroke-width="1">1</text>
<text filter="url(#solid)" x="360" y="1102" stroke-width="1">1</text>
<text filter="url(#solid)" x="380" y="1198" stroke-width="1">1</text>
<text filter="url(#solid)" x="400" y="1261" stroke-width="1">1</text>
<text filter="url(#solid)" x="420" y="1339" stroke-width="1">1</text>
<text filter="url(#solid)" x="440" y="1383" stroke-width="1">1</text>
<text filter="url(#solid)" x="460" y="1420" stroke-width="1">1</text>
<text filter="url(#solid)" x="480" y="1460" stroke-width="1">3</text>
<text filter="url(#solid)" x="500" y="1494" stroke-width="1">3</text>
<text filter="url(#solid)" x="520" y="1456" stroke-width="1">3</text>
<text filter="url(#solid)" x="220" y="596" stroke-width="1">1</text>
<text filter="url(#solid)" x="380" y="956" stroke-width="1">1</text>
<text filter="url(#solid)" x="180" y="601" stroke-width="1">3</text>
<text filter="url(#solid)" x="200" y="646" stroke-width="1">3</text>
<text filter="url(#solid)" x="220" y="696" stroke-width="1">1</text>
<text filter="url(#solid)" x="240" y="746" stroke-width="1">1</text>
<text filter="url(#solid)" x="260" y="806" stroke-width="1">1</text>
<text filter="url(#solid)" x="280" y="887" stroke-width="1">1</text>
<text filter="url(#solid)" x="300" y="929" stroke-width="1">1</text>
<text filter="url(#solid)" x="320" y="983" stroke-width="1">1</text>
<text filter="url(#solid)" x="340" y="923" stroke-width="1">2</text>
<text filter="url(#solid)" x="360" y="941" stroke-width="1">2</text>
<text filter="url(#solid)" x="100" y="141" stroke-width="1">2</text>
<text filter="url(#solid)" x="120" y="156" stroke-width="1">1</text>
<text filter="url(#solid)" x="160" y="356" stroke-width="1">1</text>
<text filter="url(#solid)" x="140" y="534" stroke-width="1">1</text>
<text filter="url(#solid)" x="160" y="563" stroke-width="1">3</text>
<text filter="url(#solid)" x="200" y="476" stroke-width="1">1</text>
<text filter="url(#solid)" x="120" y="463" stroke-width="1">2</text>
<text filter="url(#solid)" x="140" y="393" stroke-width="1">1</text>
<text filter="url(#solid)" x="160" y="431" stroke-width="1">1</text>
<text filter="url(#solid)" x="180" y="461" stroke-width="1">1</text>
<text filter="url(#solid)" x="40" y="56" stroke-width="1">2</text>
<text filter="url(#solid)" x="140" y="234" stroke-width="1">1</text>
<text filter="url(#solid)" x="160" y="263" stroke-width="1">1</text>
<text filter="url(#solid)" x="180" y="301" stroke-width="1">2</text>
<text filter="url(#solid)" x="200" y="316" stroke-width="1">1</text>
<text filter="url(#solid)" x="13" y="92" stroke-width="1">8?</text>
<text filter="url(#solid)" x="40" y="129" stroke-width="1">1</text>
<text filter="url(#solid)" x="60" y="172" stroke-width="1">4</text>
<text filter="url(#solid)" x="80" y="238" stroke-width="1">4</text>
<text filter="url(#solid)" x="100" y="336" stroke-width="1">2</text>
<text filter="url(#solid)" x="120" y="210" stroke-width="1">4</text>
</g>
</svg>
